%TF.GenerationSoftware,Altium Limited,Altium Designer,23.3.1 (30)*%
G04 Layer_Color=8421504*
%FSLAX45Y45*%
%MOMM*%
%TF.SameCoordinates,5468FEB5-A0EC-45A8-B7CF-D9D5DC2F6AF5*%
%TF.FilePolarity,Positive*%
%TF.FileFunction,Paste,Top*%
%TF.Part,Single*%
G01*
G75*
%TA.AperFunction,SMDPad,CuDef*%
%ADD10C,2.00000*%
%ADD11R,1.70000X1.00000*%
%ADD12R,1.05000X1.30000*%
G04:AMPARAMS|DCode=13|XSize=3.2mm|YSize=1.75mm|CornerRadius=0.0525mm|HoleSize=0mm|Usage=FLASHONLY|Rotation=90.000|XOffset=0mm|YOffset=0mm|HoleType=Round|Shape=RoundedRectangle|*
%AMROUNDEDRECTD13*
21,1,3.20000,1.64500,0,0,90.0*
21,1,3.09500,1.75000,0,0,90.0*
1,1,0.10500,0.82250,1.54750*
1,1,0.10500,0.82250,-1.54750*
1,1,0.10500,-0.82250,-1.54750*
1,1,0.10500,-0.82250,1.54750*
%
%ADD13ROUNDEDRECTD13*%
G04:AMPARAMS|DCode=14|XSize=0.9mm|YSize=1.75mm|CornerRadius=0.0495mm|HoleSize=0mm|Usage=FLASHONLY|Rotation=90.000|XOffset=0mm|YOffset=0mm|HoleType=Round|Shape=RoundedRectangle|*
%AMROUNDEDRECTD14*
21,1,0.90000,1.65100,0,0,90.0*
21,1,0.80100,1.75000,0,0,90.0*
1,1,0.09900,0.82550,0.40050*
1,1,0.09900,0.82550,-0.40050*
1,1,0.09900,-0.82550,-0.40050*
1,1,0.09900,-0.82550,0.40050*
%
%ADD14ROUNDEDRECTD14*%
%ADD15R,1.00000X1.45000*%
%ADD16R,1.00000X0.80000*%
%ADD17R,0.80000X1.00000*%
%ADD18R,1.00000X1.70000*%
%TA.AperFunction,ConnectorPad*%
%ADD19R,1.65000X1.30000*%
%ADD20R,1.80000X1.90000*%
%ADD21R,1.00000X1.90000*%
%ADD22R,1.42500X1.55000*%
%ADD23R,0.45000X1.38000*%
%TA.AperFunction,SMDPad,CuDef*%
%ADD24O,1.60000X0.30000*%
%ADD25O,0.30000X1.60000*%
%ADD26R,1.40000X1.70000*%
%ADD27R,1.70000X1.40000*%
D10*
X9869221Y8350227D02*
D03*
X10750222Y7799777D02*
D03*
D11*
X10100000Y9205001D02*
D03*
Y9394998D02*
D03*
X8650000Y5055001D02*
D03*
Y5244998D02*
D03*
X8050002Y5055001D02*
D03*
Y5244998D02*
D03*
X8299999Y8954999D02*
D03*
Y9145001D02*
D03*
X10487352Y7758496D02*
D03*
Y7568499D02*
D03*
X9349999Y4740001D02*
D03*
Y4549999D02*
D03*
Y4054998D02*
D03*
Y4245000D02*
D03*
D12*
X8712500Y9135000D02*
D03*
Y9365000D02*
D03*
X8887500D02*
D03*
Y9135000D02*
D03*
D13*
X10822500Y4410000D02*
D03*
D14*
X10197500Y4180000D02*
D03*
Y4410000D02*
D03*
Y4640000D02*
D03*
D15*
X8135000Y4192500D02*
D03*
X7965000D02*
D03*
X8135000Y4707500D02*
D03*
X7965000D02*
D03*
X8735000Y4192500D02*
D03*
X8565000D02*
D03*
X8735000Y4707500D02*
D03*
X8565000D02*
D03*
D16*
X8300000Y9625000D02*
D03*
Y9475000D02*
D03*
D17*
X8755000Y8730000D02*
D03*
X8905000D02*
D03*
D18*
X11445001Y7600000D02*
D03*
X11254999D02*
D03*
X11445001Y7999999D02*
D03*
X11254999D02*
D03*
X11445001Y8399998D02*
D03*
X11254999D02*
D03*
X11445001Y8799998D02*
D03*
X11254999D02*
D03*
X11445001Y9200002D02*
D03*
X11254999D02*
D03*
X11445001Y9600001D02*
D03*
X11254999D02*
D03*
X10150000Y3350002D02*
D03*
X10339997D02*
D03*
X12045000Y9600001D02*
D03*
X11854998D02*
D03*
X12045000Y9200002D02*
D03*
X11854998D02*
D03*
X12045000Y8799998D02*
D03*
X11854998D02*
D03*
X12045000Y8399998D02*
D03*
X11854998D02*
D03*
X12045001Y7999999D02*
D03*
X11854999D02*
D03*
X12045000Y7600000D02*
D03*
X11854998D02*
D03*
D19*
X8712498Y3214999D02*
D03*
X9387498D02*
D03*
D20*
X8935002D02*
D03*
D21*
X9204999D02*
D03*
D22*
X8801251Y3472500D02*
D03*
X9298751D02*
D03*
D23*
X8920001Y3480998D02*
D03*
X8985000D02*
D03*
X9049998D02*
D03*
X9115002D02*
D03*
X9180001D02*
D03*
D24*
X9489999Y7884998D02*
D03*
Y7835001D02*
D03*
Y7784998D02*
D03*
Y7735001D02*
D03*
Y7684999D02*
D03*
Y7635001D02*
D03*
Y7584999D02*
D03*
Y7535001D02*
D03*
Y7484999D02*
D03*
Y7435002D02*
D03*
Y7384999D02*
D03*
Y7335002D02*
D03*
Y7284999D02*
D03*
Y7235002D02*
D03*
Y7185000D02*
D03*
Y7135002D02*
D03*
X8330001D02*
D03*
Y7185000D02*
D03*
Y7235002D02*
D03*
Y7284999D02*
D03*
Y7335002D02*
D03*
Y7384999D02*
D03*
Y7435002D02*
D03*
Y7484999D02*
D03*
Y7535001D02*
D03*
Y7584999D02*
D03*
Y7635001D02*
D03*
Y7684999D02*
D03*
Y7735001D02*
D03*
Y7784998D02*
D03*
Y7835001D02*
D03*
Y7884998D02*
D03*
D25*
X9285000Y6929999D02*
D03*
X9234998D02*
D03*
X9185001D02*
D03*
X9134998D02*
D03*
X9085001D02*
D03*
X9034998D02*
D03*
X8985001D02*
D03*
X8934999D02*
D03*
X8885001D02*
D03*
X8834999D02*
D03*
X8785001D02*
D03*
X8734999D02*
D03*
X8685002D02*
D03*
X8634999D02*
D03*
X8585002D02*
D03*
X8534999D02*
D03*
Y8090002D02*
D03*
X8585002D02*
D03*
X8634999D02*
D03*
X8685002D02*
D03*
X8734999D02*
D03*
X8785001D02*
D03*
X8834999D02*
D03*
X8885001D02*
D03*
X8934999D02*
D03*
X8985001D02*
D03*
X9034998D02*
D03*
X9085001D02*
D03*
X9134998D02*
D03*
X9185001D02*
D03*
X9234998D02*
D03*
X9285000D02*
D03*
D26*
X9914300Y3550001D02*
D03*
X9685700D02*
D03*
X9418599Y8730000D02*
D03*
X9189999D02*
D03*
X9664299Y6500002D02*
D03*
X9435699D02*
D03*
X10614299Y5000000D02*
D03*
X10385699D02*
D03*
X9914301Y4149999D02*
D03*
X9685701D02*
D03*
X9914301Y3850000D02*
D03*
X9685701D02*
D03*
D27*
X7999999Y7835702D02*
D03*
Y8064302D02*
D03*
X9749998Y9185699D02*
D03*
Y9414299D02*
D03*
X7500000Y7514300D02*
D03*
Y7285700D02*
D03*
X10200000Y8014299D02*
D03*
Y7785699D02*
D03*
X9849998Y8014299D02*
D03*
Y7785699D02*
D03*
X7830002Y7055698D02*
D03*
Y7284298D02*
D03*
%TF.MD5,79f7266758c0fa052dbc25bed0751308*%
M02*
