%TF.GenerationSoftware,Altium Limited,Altium Designer,23.3.1 (30)*%
G04 Layer_Physical_Order=4*
G04 Layer_Color=16711680*
%FSLAX45Y45*%
%MOMM*%
%TF.SameCoordinates,5468FEB5-A0EC-45A8-B7CF-D9D5DC2F6AF5*%
%TF.FilePolarity,Positive*%
%TF.FileFunction,Copper,L4,Bot,Signal*%
%TF.Part,Single*%
G01*
G75*
%TA.AperFunction,Conductor*%
%ADD28C,0.30000*%
%ADD30C,0.50000*%
%TA.AperFunction,TestPad*%
%ADD35C,1.80000*%
%TA.AperFunction,ViaPad*%
%ADD36C,4.00000*%
%ADD37C,0.70000*%
%TA.AperFunction,Conductor*%
%ADD38C,0.20000*%
%TA.AperFunction,ComponentPad*%
%ADD39C,1.60020*%
D28*
X12605223Y9407936D02*
X12647287Y9450000D01*
X11750000Y9700000D02*
X12042064Y9407936D01*
X12605223D01*
X12355847Y9284300D02*
X12427620Y9212527D01*
X10782945Y9284300D02*
X12355847D01*
X12427620Y9212527D02*
Y9223351D01*
X11933800Y9357300D02*
X12619796D01*
X11760883Y5050000D02*
X12540892Y4269991D01*
X11444056Y5050000D02*
X11760883D01*
X11409770Y4650000D02*
X12162103D01*
X12540892Y4269991D02*
X12771990D01*
X10183804Y8423584D02*
Y8766424D01*
X10189240Y8771860D01*
X9425940Y7665720D02*
X10183804Y8423584D01*
X9700000Y8258244D02*
X9701333Y8256911D01*
X9700000Y8258244D02*
Y8400000D01*
X10156162Y8856162D01*
X8893396Y5541658D02*
X10658342D01*
X8889970Y5545085D02*
X8893396Y5541658D01*
X7500000Y4450000D02*
X7810240D01*
X8866046Y5462060D02*
X8897464Y5430642D01*
X10629128D01*
X7750000Y4550000D02*
X7849853D01*
X8882919Y5384800D02*
X9015200D01*
X7849853Y4550000D02*
X8761913Y5462060D01*
X8779600Y5419360D02*
X8848359D01*
X8813980Y5336360D02*
X8813980D01*
X9100340Y5050000D01*
X8761913Y5462060D02*
X8866046D01*
X7810240Y4450000D02*
X8779600Y5419360D01*
X8848359D02*
X8882919Y5384800D01*
X8102175Y4169555D02*
X11701414D01*
X8035540Y4102920D02*
X8102175Y4169555D01*
X11701414D02*
X11821530Y4049438D01*
X10549588Y4004008D02*
X10605014Y4059434D01*
X7450000Y4000000D02*
X7454008Y4004008D01*
X10549588D01*
X6357620Y4269740D02*
X6524440Y4102920D01*
X8035540D01*
X10167000Y7717617D02*
X10799383Y8350000D01*
X9824268Y7216958D02*
X10167000Y7559690D01*
X10250000Y7600000D02*
X11050000D01*
X10167000Y7559690D02*
Y7717617D01*
X11050000Y7600000D02*
X11250000Y7800000D01*
X10583790Y5766210D02*
X11446152Y4903848D01*
X9391226Y5766210D02*
X10583790D01*
X9241815Y5915620D02*
X9391226Y5766210D01*
X8667603Y5750000D02*
X9076195D01*
X7700000Y4782397D02*
X8667603Y5750000D01*
X8889315Y5962409D02*
X8895424Y5956300D01*
X8889315Y5962409D02*
Y6036300D01*
X8850000Y6075615D02*
X8889315Y6036300D01*
X8850000Y6075615D02*
Y6150000D01*
X6705901Y4911899D02*
X7686283D01*
X8850000Y6075615D01*
X6700002Y4906000D02*
X6705901Y4911899D01*
X10562960Y3900000D02*
X10712960Y4050000D01*
X7650000Y3900000D02*
X10562960D01*
X9100000Y3817000D02*
X9118798Y3835798D01*
X7300000Y4000000D02*
X7483000Y3817000D01*
X9100000D01*
X9118798Y3835798D02*
X10735798D01*
X7467339Y3700000D02*
X8700000D01*
X7198899Y3968440D02*
X7467339Y3700000D01*
X6473500Y3968440D02*
X7198899D01*
X11800463Y3947487D02*
X13147366D01*
X13410013Y4210133D01*
X11697949Y4050000D02*
X11800463Y3947487D01*
X12517834Y9567466D02*
Y10123463D01*
X12510285Y10131980D02*
X12517834Y10123463D01*
X12322729Y10343598D02*
X12510285Y10131980D01*
X11750000Y10077324D02*
X12127324Y9700000D01*
X12200000D01*
X11750000Y10077324D02*
Y10168672D01*
X12296302Y9560398D02*
X12301220Y9555480D01*
X12296302Y9560398D02*
Y9603699D01*
X12200000Y9700000D02*
X12296302Y9603699D01*
X7498944Y10168672D02*
X11750000D01*
X6850000Y10300000D02*
X7367615D01*
X7498944Y10168672D01*
X6650325Y10100325D02*
X6850000Y10300000D01*
X5965774Y10100325D02*
X6650325D01*
X7500000Y9900000D02*
X11822080D01*
X7300000Y9700000D02*
X7500000Y9900000D01*
X6850000Y9700000D02*
X7300000D01*
X6650000Y9900000D02*
X6850000Y9700000D01*
X6000000Y9900000D02*
X6650000D01*
X9467000Y8562220D02*
Y9199609D01*
X9880374Y9612983D02*
X10971050D01*
X9467000Y9199609D02*
X9880374Y9612983D01*
X8846749Y8316031D02*
X8849360Y8313420D01*
X8846749Y8316031D02*
Y8518404D01*
X7865153Y9500000D02*
X8846749Y8518404D01*
X6203080Y9500000D02*
X7865153D01*
X7693419Y9389567D02*
X8636877Y8446110D01*
X8746110D01*
X6197813Y9389567D02*
X7693419D01*
X13266161Y3256021D02*
X13509575Y3499435D01*
Y6844425D01*
X12900000Y7454001D02*
X13509575Y6844425D01*
X13292386Y4338886D02*
Y5130227D01*
X13002937Y4049438D02*
X13292386Y4338886D01*
X13242700Y5179913D02*
X13292386Y5130227D01*
X13158673Y4791327D02*
Y5917327D01*
Y4791327D02*
X13200000Y4750000D01*
X5717000Y9317000D02*
X6000000Y9600000D01*
X8997880D01*
X5717000Y6786012D02*
Y9317000D01*
X5597767Y6783404D02*
Y9497767D01*
X11822080Y9900000D02*
X12255500Y9466580D01*
X5597767Y9497767D02*
X6000000Y9900000D01*
X5717000Y6786012D02*
X5950000Y6553012D01*
X8997880Y9600000D02*
X9199880Y9398000D01*
X5289030Y9689030D02*
X6050000Y10450000D01*
X5289030Y6303530D02*
Y9689030D01*
Y6303530D02*
X5547360Y6045200D01*
X5383829Y9667717D02*
X6069138Y10353026D01*
X5383829Y6666171D02*
X5600000Y6450000D01*
X5383829Y6666171D02*
Y9667717D01*
X5485737Y9620288D02*
X5965774Y10100325D01*
X5485737Y6766512D02*
Y9620288D01*
Y6766512D02*
X6330249Y5922000D01*
X5597767Y6783404D02*
X5951172Y6430000D01*
X6112000Y6938000D02*
X6446002D01*
X5800000Y7250000D02*
X6112000Y6938000D01*
X11821530Y4049438D02*
X13002937D01*
X9015200Y5384800D02*
X9152570Y5247430D01*
X10452570D02*
X11250000Y4450000D01*
X9152570Y5247430D02*
X10452570D01*
X8767000Y6173575D02*
Y6184380D01*
X7647916Y5054491D02*
X8767000Y6173575D01*
X7454000Y7446000D02*
X8688023Y6211977D01*
X8883000Y6300380D02*
Y6484380D01*
X8767000Y6184380D02*
X8883000Y6300380D01*
X6800002Y5000000D02*
X7586863D01*
X7641354Y5054491D02*
X7645509D01*
X7586863Y5000000D02*
X7641354Y5054491D01*
X9241815Y5915620D02*
Y6698534D01*
X9158815Y5950000D02*
Y6462185D01*
X8630498Y6990502D02*
X9158815Y6462185D01*
X8713500Y7226849D02*
X9241815Y6698534D01*
X9076195Y5750000D02*
X9241815Y5915620D01*
X8887771Y5948646D02*
X8895424Y5956300D01*
X6934200Y6449060D02*
Y6520180D01*
X7051040Y6637020D01*
Y7597140D02*
X7874818D01*
X13325700Y5300000D02*
X13410013Y5215687D01*
Y4210133D02*
Y5215687D01*
X12900000Y6176001D02*
X13158673Y5917327D01*
X12900000Y5930001D02*
X13084204Y5745796D01*
Y4665796D02*
Y5745796D01*
Y4665796D02*
X13150000Y4600000D01*
X12900000Y7200001D02*
X13242700Y6857300D01*
Y5179913D02*
Y6857300D01*
X12944890Y4150000D02*
X13028011Y4233120D01*
X12900000Y4872234D02*
X13028011Y4744224D01*
Y4233120D02*
Y4744224D01*
X12900000Y4872234D02*
Y4914001D01*
X7322980Y4450000D02*
X7500000D01*
X11157910Y4242090D02*
X12113806D01*
X10350000Y5050000D02*
X11157910Y4242090D01*
X12142347Y4242346D02*
X12150000Y4250000D01*
X12114062Y4242346D02*
X12142347D01*
X12113806Y4242090D02*
X12114062Y4242346D01*
X6950000Y3350000D02*
X7250000D01*
X7350000Y3450000D01*
X11420520D01*
X11648440Y3677920D01*
X11306176Y3600000D02*
X11339176Y3567000D01*
X11350000D01*
X6700000Y3600000D02*
X6950000Y3350000D01*
X6200000Y3600000D02*
X6700000D01*
X6280548Y3256021D02*
X13266161D01*
X6089198Y3447372D02*
X6280548Y3256021D01*
X6089198Y3447372D02*
Y5035098D01*
X6235700Y4206240D02*
X6473500Y3968440D01*
X8700000Y3700000D02*
X9250000D01*
X6881420Y4283000D02*
X7138600D01*
X6752775Y4269740D02*
X7169891Y4686856D01*
X6357620Y4269740D02*
X6752775D01*
X6784340Y4185920D02*
X6881420Y4283000D01*
X8586800Y6450000D02*
X8800000D01*
X9526588Y3726588D02*
X11376588D01*
X11505720Y3855720D01*
X9450000Y3650000D02*
X9526588Y3726588D01*
X9300000Y3650000D02*
X9450000D01*
X11505720Y3855720D02*
X11640820D01*
X9250000Y3700000D02*
X9300000Y3650000D01*
X10735798Y3835798D02*
X10850000Y3950000D01*
X7600000Y3600000D02*
X11306176D01*
X9315160Y8293000D02*
X9542346Y8520187D01*
X10207001Y4492999D02*
X10400000Y4300000D01*
X8107419Y4492999D02*
X10207001D01*
X7864420Y4250000D02*
X8107419Y4492999D01*
X8311843Y8170530D02*
X8454616D01*
X8746886Y7878260D01*
X8780394Y7961260D02*
X8783701D01*
X8820912Y7924049D02*
X8866951D01*
X8441654Y8300000D02*
X8780394Y7961260D01*
X8783701D02*
X8820912Y7924049D01*
X8686800Y7795260D02*
X8862640D01*
X8333387Y8300000D02*
X8441654D01*
X8866951Y7924049D02*
X8870500Y7920500D01*
X7537647Y9095740D02*
X8333387Y8300000D01*
X7066280Y9095740D02*
X7537647D01*
X6987296Y8525703D02*
X7956669D01*
X8311843Y8170530D01*
X8394530Y8087530D02*
X8686800Y7795260D01*
X7528253Y9306560D02*
X8565843Y8268970D01*
X7106560Y9306560D02*
X7528253D01*
X8565843Y8268970D02*
X8567420D01*
X13089439Y8151441D02*
Y9747700D01*
X13028011Y8652247D02*
Y9389370D01*
X12900000Y7962001D02*
X13089439Y8151441D01*
X12867380Y9550000D02*
X13028011Y9389370D01*
X12387140Y10450000D02*
X13089439Y9747700D01*
X13300000Y8450000D02*
X13541618Y8691618D01*
X13505180Y9999316D02*
X13541618Y9962878D01*
Y8691618D02*
Y9962878D01*
X13505180Y9999316D02*
Y10010140D01*
X9297580Y7295700D02*
X9369159D01*
X11163107Y5501752D02*
X11248248D01*
X9222298Y7378700D02*
X9346546D01*
X9625246Y7100000D02*
X11217166D01*
X9346546Y7378700D02*
X9625246Y7100000D01*
X9369159Y7295700D02*
X11163107Y5501752D01*
X9310824Y7174680D02*
X9327705Y7157800D01*
X9300000Y7174680D02*
X9310824D01*
X9327705Y7157800D02*
X9336256D01*
X11444056Y5050000D01*
X11446152Y4903848D02*
X11595992D01*
X12450000Y6126000D02*
Y8447963D01*
X12646000Y8470001D02*
X12760425Y8584426D01*
X12771990Y4269991D02*
X12900000Y4398001D01*
X9450000Y8150000D02*
X9458934D01*
X9533000Y8224066D01*
Y8415620D01*
X9641022Y8523642D01*
X8849360Y8313420D02*
X9218200D01*
X9199880Y8412480D02*
Y9398000D01*
X9218200Y8313420D02*
X9467000Y8562220D01*
X9542346Y8520187D02*
Y8542346D01*
X9550000Y8550000D01*
X9641022Y8523642D02*
Y8726099D01*
X12313302Y10353026D02*
X12322729Y10343598D01*
X6069138Y10353026D02*
X12313302D01*
X11167379Y8600000D02*
X11250000D01*
X10707351Y8642649D02*
X11124730D01*
X11167379Y8600000D01*
X10775040Y8550000D02*
X11100000D01*
X8953500Y7886120D02*
Y8036560D01*
X8862640Y7795260D02*
X8953500Y7886120D01*
X9209222Y7749540D02*
X9600000Y8140318D01*
Y8400000D01*
X6767723Y5032278D02*
X6800002Y5000000D01*
X9000000Y7689176D02*
Y7700000D01*
Y7689176D02*
X9043220Y7645956D01*
Y7621720D02*
Y7645956D01*
Y7621720D02*
X9083040Y7581900D01*
X9806940D01*
X8810645Y7585207D02*
X9002629D01*
X9050838Y7536998D01*
X8398988Y7996865D02*
X8810645Y7585207D01*
X9126220Y7665720D02*
X9425940D01*
X8567420Y8268970D02*
X8737648Y8098742D01*
X8791389D01*
X8792831Y8097300D02*
X8892760D01*
X8953500Y8036560D01*
X8791389Y8098742D02*
X8792831Y8097300D01*
X11584940Y5506720D02*
X12307280D01*
X10547914Y6543746D02*
Y6817000D01*
X11052368Y5913120D02*
X11277528Y5687960D01*
X10547914Y6543746D02*
X11584940Y5506720D01*
X10850000Y8200000D02*
X12178420D01*
X12192000Y8186420D01*
X6083000Y6684000D02*
X6446002D01*
X5867000Y6900000D02*
X6083000Y6684000D01*
X6700002Y5160000D02*
X6712099D01*
X8189601Y5039601D02*
X8550000Y5400000D01*
X8136766Y5039601D02*
X8189601D01*
X7205980Y4333000D02*
X7322980Y4450000D01*
X7169891Y4686856D02*
X7784021D01*
X8136766Y5039601D01*
X10658342Y5541658D02*
X11150000Y5050000D01*
X7084399Y4782397D02*
X7700000D01*
X7100000Y9300000D02*
X7106560Y9306560D01*
X7361593Y8900000D02*
X7550000D01*
X11248248Y5501752D02*
X11600000Y5150000D01*
X11303000Y8430260D02*
X11350000Y8477260D01*
X11114280Y8935720D02*
X11350000Y8700000D01*
Y8477260D02*
Y8700000D01*
X12450000Y6126000D02*
X12646000Y5930001D01*
X12255500Y9466580D02*
X12603480D01*
X12647287Y9450000D02*
X12850000D01*
X12603480Y9466580D02*
X12686900Y9550000D01*
X12867380D01*
X9501880Y9700000D02*
X11750000D01*
X9199880Y9398000D02*
X9501880Y9700000D01*
X9596938Y8970071D02*
X10197150Y9570283D01*
X10496961D01*
X10971050Y9612983D02*
X11226733Y9357300D01*
X10496961Y9570283D02*
X10782945Y9284300D01*
X11226733Y9357300D02*
X11933800D01*
X13027922Y7577922D02*
X13467097D01*
X9596938Y8770183D02*
Y8970071D01*
X13489175Y7600000D02*
X13500000D01*
X13467097Y7577922D02*
X13489175Y7600000D01*
X6987296Y8525703D02*
X7361593Y8900000D01*
X6923593Y8462000D02*
X6987296Y8525703D01*
X6700002Y8462000D02*
X6923593D01*
X7122160Y8404860D02*
X7200301Y8483001D01*
X5200000Y6163960D02*
Y9750000D01*
Y6163960D02*
X5695960Y5668000D01*
X5200000Y9750000D02*
X6000000Y10550000D01*
X13150000Y4500000D02*
Y4600000D01*
X9600000Y8400000D02*
X10143315Y8943315D01*
X10406685D01*
X10156162Y8856162D02*
X10322560D01*
X9596938Y8770183D02*
X9641022Y8726099D01*
X10406685Y8943315D02*
X10707351Y8642649D01*
X9806940Y7581900D02*
X10775040Y8550000D01*
X9761220Y7411220D02*
X10780260Y8430260D01*
X11303000D01*
X10514280Y8935720D02*
X11114280D01*
X10360660Y9089340D02*
X10514280Y8935720D01*
X10360660Y9089340D02*
Y9405620D01*
X12286420Y8186420D02*
X12349480Y8249480D01*
X12192000Y8186420D02*
X12286420D01*
X12349480Y8249480D02*
Y8427481D01*
X10799383Y8350000D02*
X12250000D01*
X9761220Y7299960D02*
Y7411220D01*
X11249486Y7132320D02*
X11254740D01*
X9372009Y7427991D02*
X9625745Y7174255D01*
X8963809Y7482741D02*
X9446359D01*
X11217166Y7100000D02*
X11249486Y7132320D01*
X9712142Y7216958D02*
X9824268D01*
X9866655Y7174255D02*
X9908540Y7216140D01*
X9446359Y7482741D02*
X9712142Y7216958D01*
X9625745Y7174255D02*
X9866655D01*
X11635002Y6950000D02*
X11650000Y6935003D01*
X9177991Y7427991D02*
X9372009D01*
X9100378Y7256780D02*
X9222298Y7378700D01*
X8856980Y7256780D02*
X9100378D01*
X8904046Y7542505D02*
X8963809Y7482741D01*
X9049960Y7299960D02*
X9177991Y7427991D01*
X8981237Y7440042D02*
X9021537Y7399741D01*
X9032362D01*
X8981440Y7299960D02*
X9049960D01*
X8890036Y7490033D02*
X8940027Y7440042D01*
X8981237D01*
X11595992Y4903848D02*
X11597640Y4902200D01*
X12057393Y4914001D02*
X12646000D01*
X11283434Y5687960D02*
X12057393Y4914001D01*
X11277528Y5687960D02*
X11283434D01*
X7138600Y4283000D02*
X7171600Y4250000D01*
X9100340Y5050000D02*
X10350000D01*
X10629128Y5430642D02*
X11409770Y4650000D01*
X6446002Y4648002D02*
X6577777Y4779777D01*
X12450000Y4150000D02*
X12944890D01*
X12150000Y4450000D02*
X12450000Y4150000D01*
X11250000Y4450000D02*
X12150000D01*
X10850000Y3950000D02*
X11663920D01*
X11750000Y3863920D01*
Y3639780D02*
Y3863920D01*
X10712960Y4050000D02*
X11697949D01*
X11628120Y3517900D02*
X11750000Y3639780D01*
X6050000Y10450000D02*
X12387140D01*
X6000000Y10550000D02*
X12434460D01*
X13172440Y9812020D01*
X7171600Y4250000D02*
X7864420D01*
X6700002Y4398000D02*
X7084399Y4782397D01*
X6089198Y5035098D02*
X6339840Y5285740D01*
X6700002Y7446000D02*
X7454000D01*
X8054340Y6982460D02*
X8586800Y6450000D01*
X8498840Y6868540D02*
Y7350760D01*
Y6868540D02*
X8883000Y6484380D01*
X5951172Y6430000D02*
X6446002D01*
X6330249Y5922000D02*
X6446002D01*
X10360660Y9405620D02*
X10398760Y9443720D01*
X6110798Y9407718D02*
X6203080Y9500000D01*
X12307280Y5506720D02*
X12646000Y5168001D01*
X11221720Y7216140D02*
X12192000Y8186420D01*
X6446002Y5410002D02*
X6574257Y5538257D01*
X6316980Y4310380D02*
X6357620Y4269740D01*
X8630498Y6990502D02*
Y7272599D01*
X8711199Y7353300D01*
X8765540D01*
X6059145Y7700000D02*
X6446002D01*
X6295964Y7446000D02*
X6446002D01*
X6235700Y7506264D02*
X6295964Y7446000D01*
X7200301Y8483001D02*
X7788336D01*
X8274472Y7996865D01*
X8398988D01*
X9050838Y7536998D02*
X9524182D01*
X9761220Y7299960D01*
X7874818Y7597140D02*
X7970520Y7692842D01*
X8131358D01*
X8387080Y7437120D01*
X8844280D01*
X8981440Y7299960D01*
X9908540Y7216140D02*
X11221720D01*
X12349480Y8427481D02*
X12646000Y8724001D01*
X10322560Y8856162D02*
X10590982Y8587740D01*
X13172440Y9428480D02*
Y9812020D01*
X5695960Y5668000D02*
X6446002D01*
X6849999Y5643712D02*
Y6800002D01*
X7399995Y8399998D02*
X7777963D01*
X8506460Y7671501D01*
X6576990Y6553012D02*
X6700002Y6430000D01*
X6446002Y4648002D02*
Y4652000D01*
X8491835Y7490033D02*
X8890036D01*
X8246323Y7735545D02*
X8491835Y7490033D01*
X7928635Y7735545D02*
X8246323D01*
X7876591Y7683500D02*
X7928635Y7735545D01*
X6970502Y7683500D02*
X7876591D01*
X6700002Y7954000D02*
X6970502Y7683500D01*
X8635456Y7542505D02*
X8904046D01*
X8506460Y7671501D02*
X8635456Y7542505D01*
X8831580Y7231380D02*
X8856980Y7256780D01*
X5951220Y7651750D02*
X6235700Y7367270D01*
X5951220Y7651750D02*
Y7809220D01*
X6096000Y7954000D01*
X6446002D01*
X6110798Y9206677D02*
Y9407718D01*
Y9206677D02*
X6218250Y9099225D01*
Y8943751D02*
Y9099225D01*
Y8943751D02*
X6446002Y8716000D01*
X6316980Y5030978D02*
X6446002Y5160000D01*
X6316980Y4310380D02*
Y5030978D01*
X8054340Y6982460D02*
Y7609840D01*
X6153501Y9262501D02*
X6446002Y8970000D01*
X6153501Y9262501D02*
Y9345254D01*
X6197813Y9389567D01*
X7364740Y8208000D02*
X7780020Y7792720D01*
X6700002Y8208000D02*
X7364740D01*
X6093460Y6045200D02*
X6344920Y5793740D01*
X5547360Y6045200D02*
X6093460D01*
X6446002Y5410002D02*
Y5414000D01*
D30*
X13600000Y3350000D02*
Y7631522D01*
X13177673Y8053847D02*
Y8983983D01*
Y8053847D02*
X13600000Y7631522D01*
D35*
X7650002Y6707998D02*
D03*
Y6453998D02*
D03*
Y6199998D02*
D03*
Y5945998D02*
D03*
Y5691998D02*
D03*
Y5437998D02*
D03*
X11650000Y5665003D02*
D03*
Y5919003D02*
D03*
Y6173003D02*
D03*
Y6427003D02*
D03*
Y6681003D02*
D03*
Y6935003D02*
D03*
D36*
X7112000Y10007600D02*
D03*
X12192000D02*
D03*
Y3657600D02*
D03*
X7112000D02*
D03*
D37*
X12427620Y9212527D02*
D03*
X9701333Y8256911D02*
D03*
X10550000Y7950000D02*
D03*
X8889970Y5545085D02*
D03*
X8813980Y5336360D02*
D03*
X7750000Y4550000D02*
D03*
X8350000Y4350000D02*
D03*
X10250000Y7600000D02*
D03*
X7650000Y3900000D02*
D03*
X7450000Y4000000D02*
D03*
X7300000D02*
D03*
X8277803Y8687804D02*
D03*
X13200000Y4750000D02*
D03*
X5800000Y7250000D02*
D03*
X8688023Y6211977D02*
D03*
X7645509Y5054491D02*
D03*
X8850000Y6150000D02*
D03*
X9158815Y5950000D02*
D03*
X8895424Y5956300D02*
D03*
X7051040Y7597140D02*
D03*
Y6637020D02*
D03*
X13325700Y5300000D02*
D03*
X12150000Y4250000D02*
D03*
X11350000Y3567000D02*
D03*
X6784340Y4185920D02*
D03*
X8800000Y6450000D02*
D03*
X9400000Y3750000D02*
D03*
X9315160Y8293000D02*
D03*
X9715002Y4409999D02*
D03*
X7450000Y6950000D02*
D03*
X9800000Y6250000D02*
D03*
X10450000Y4700000D02*
D03*
X9418658Y9366665D02*
D03*
X12050000Y7350000D02*
D03*
X7800000Y8050000D02*
D03*
X9550000Y6200000D02*
D03*
X8749321Y7878260D02*
D03*
X8394530Y8087530D02*
D03*
X8746110Y8446110D02*
D03*
X8647640Y8309820D02*
D03*
X8849360Y8313420D02*
D03*
X13600000Y3350000D02*
D03*
X13177673Y8983983D02*
D03*
X9300000Y7174680D02*
D03*
X10100000Y9050000D02*
D03*
X8870500Y7920500D02*
D03*
X8845550Y7689850D02*
D03*
X11250000Y7800000D02*
D03*
X9450000Y8150000D02*
D03*
X9199880Y8412480D02*
D03*
X9550000Y8550000D02*
D03*
X7450000Y7100000D02*
D03*
X7600000Y3600000D02*
D03*
X11250000Y8600000D02*
D03*
X11100000Y8550000D02*
D03*
X9000000Y7700000D02*
D03*
X9126220Y7665720D02*
D03*
X11052368Y5913120D02*
D03*
X10850000Y8200000D02*
D03*
X7700000Y5250000D02*
D03*
X8550000Y5400000D02*
D03*
X7500000Y4450000D02*
D03*
X7100000Y9300000D02*
D03*
X7550000Y8900000D02*
D03*
X11600000Y5150000D02*
D03*
X12519660Y9565640D02*
D03*
X12301220Y9555480D02*
D03*
X12850000Y9450000D02*
D03*
X9679940Y8869680D02*
D03*
X13500000Y7600000D02*
D03*
X7122160Y8404860D02*
D03*
X13300000Y8450000D02*
D03*
X13150000Y4500000D02*
D03*
X10189240Y8771860D02*
D03*
X12250000Y8350000D02*
D03*
X9761220Y7299960D02*
D03*
X10547914Y6817000D02*
D03*
X9032362Y7399741D02*
D03*
X9297580Y7295700D02*
D03*
X11597640Y4902200D02*
D03*
X11150000Y5050000D02*
D03*
X11640820Y3855720D02*
D03*
X10400000Y4300000D02*
D03*
X8700000Y3700000D02*
D03*
X7205980Y4333000D02*
D03*
X6200000Y3600000D02*
D03*
X5867000Y6900000D02*
D03*
X5600000Y6450000D02*
D03*
X10398760Y9443720D02*
D03*
X7066280Y9095740D02*
D03*
X11628120Y3517900D02*
D03*
X8765540Y7353300D02*
D03*
X11648440Y3677920D02*
D03*
X6059145Y7700000D02*
D03*
X6235700Y7506264D02*
D03*
X6934200Y6449060D02*
D03*
X10590982Y8587740D02*
D03*
X13172440Y9428480D02*
D03*
X10607040Y4061460D02*
D03*
X8713500Y7226849D02*
D03*
X9209222Y7749540D02*
D03*
X8498840Y7350760D02*
D03*
X6849999Y6800002D02*
D03*
X7399995Y8399998D02*
D03*
X13505180Y10010140D02*
D03*
X8506460Y7671501D02*
D03*
X11254740Y7132320D02*
D03*
X8831580Y7231380D02*
D03*
X6235700Y4206240D02*
D03*
Y7367270D02*
D03*
X8054340Y7609840D02*
D03*
X6339840Y5285740D02*
D03*
X7780020Y7792720D02*
D03*
X6344920Y5793740D02*
D03*
D38*
X12911115Y8584508D02*
G03*
X12888017Y8584426I-11114J-122507D01*
G01*
X12911983D02*
G03*
X12911115Y8584508I-11982J-122425D01*
G01*
X12696952Y8592991D02*
X12769010Y8665049D01*
X12603047Y8592991D02*
X12696952D01*
X12599037Y8597001D02*
X12603047Y8592991D01*
X12450000Y8447963D02*
X12599037Y8597001D01*
X12769010Y8665049D02*
Y9330990D01*
X12960188Y8584426D02*
X13028011Y8652247D01*
X12911983Y8584426D02*
X12960188D01*
X12911983D02*
X12911983D01*
X12760425D02*
X12888017D01*
X13022665Y7572665D02*
X13027922Y7577922D01*
X12773000Y7500963D02*
X12844701Y7572665D01*
X13022665D01*
X12773000Y5803001D02*
Y7500963D01*
X12646000Y5676001D02*
X12773000Y5803001D01*
X12619796Y9357300D02*
X12742700D01*
X12769010Y9330990D01*
X11933800Y9357300D02*
X11938800Y9362300D01*
X6576992Y4780562D02*
X6577777Y4779777D01*
X6576992Y4972290D02*
X6636978Y5032276D01*
X6576992Y4780562D02*
Y4972290D01*
X6636978Y5032276D02*
X6767723Y5032278D01*
X6767354Y5561069D02*
X6849999Y5643712D01*
X6744543Y5538257D02*
X6767354Y5561069D01*
X5950000Y6553012D02*
X6576990D01*
X6574257Y5538257D02*
X6744543D01*
D39*
X12646000Y9224001D02*
D03*
X12900000D02*
D03*
X12646000Y8970001D02*
D03*
X12900000D02*
D03*
X12646000Y8716001D02*
D03*
X12900000D02*
D03*
X12646000Y8462001D02*
D03*
X12900000D02*
D03*
X12646000Y8208001D02*
D03*
X12900000D02*
D03*
X12646000Y7954001D02*
D03*
X12900000D02*
D03*
X12646000Y7700001D02*
D03*
X12900000D02*
D03*
X12646000Y7446001D02*
D03*
X12900000D02*
D03*
X12646000Y7192001D02*
D03*
X12900000D02*
D03*
X12646000Y6938001D02*
D03*
X12900000D02*
D03*
X12646000Y6684001D02*
D03*
X12900000D02*
D03*
X12646000Y6430001D02*
D03*
X12900000D02*
D03*
X12646000Y6176001D02*
D03*
X12900000D02*
D03*
X12646000Y5922001D02*
D03*
X12900000D02*
D03*
X12646000Y5668001D02*
D03*
X12900000D02*
D03*
X12646000Y5414001D02*
D03*
X12900000D02*
D03*
X12646000Y5160001D02*
D03*
X12900000D02*
D03*
X12646000Y4906001D02*
D03*
X12900000D02*
D03*
X12646000Y4652001D02*
D03*
X12900000D02*
D03*
X12646000Y4398001D02*
D03*
X12900000D02*
D03*
X6700002Y4398000D02*
D03*
X6446002D02*
D03*
X6700002Y4652000D02*
D03*
X6446002D02*
D03*
X6700002Y4906000D02*
D03*
X6446002D02*
D03*
X6700002Y5160000D02*
D03*
X6446002D02*
D03*
X6700002Y5414000D02*
D03*
X6446002D02*
D03*
X6700002Y5668000D02*
D03*
X6446002D02*
D03*
X6700002Y5922000D02*
D03*
X6446002D02*
D03*
X6700002Y6176000D02*
D03*
X6446002D02*
D03*
X6700002Y6430000D02*
D03*
X6446002D02*
D03*
X6700002Y6684000D02*
D03*
X6446002D02*
D03*
X6700002Y6938000D02*
D03*
X6446002D02*
D03*
X6700002Y7192000D02*
D03*
X6446002D02*
D03*
X6700002Y7446000D02*
D03*
X6446002D02*
D03*
X6700002Y7700000D02*
D03*
X6446002D02*
D03*
X6700002Y7954000D02*
D03*
X6446002D02*
D03*
X6700002Y8208000D02*
D03*
X6446002D02*
D03*
X6700002Y8462000D02*
D03*
X6446002D02*
D03*
X6700002Y8716000D02*
D03*
X6446002D02*
D03*
X6700002Y8970000D02*
D03*
X6446002D02*
D03*
X6700002Y9224000D02*
D03*
X6446002D02*
D03*
%TF.MD5,cbee89b435b44d3e878128f69e361528*%
M02*
