%TF.GenerationSoftware,Altium Limited,Altium Designer,23.3.1 (30)*%
G04 Layer_Physical_Order=1*
G04 Layer_Color=255*
%FSLAX45Y45*%
%MOMM*%
%TF.SameCoordinates,5468FEB5-A0EC-45A8-B7CF-D9D5DC2F6AF5*%
%TF.FilePolarity,Positive*%
%TF.FileFunction,Copper,L1,Top,Signal*%
%TF.Part,Single*%
G01*
G75*
%TA.AperFunction,SMDPad,CuDef*%
%ADD10C,2.00000*%
%ADD11R,1.70000X1.00000*%
%ADD12R,1.05000X1.30000*%
G04:AMPARAMS|DCode=13|XSize=3.2mm|YSize=1.75mm|CornerRadius=0.0525mm|HoleSize=0mm|Usage=FLASHONLY|Rotation=90.000|XOffset=0mm|YOffset=0mm|HoleType=Round|Shape=RoundedRectangle|*
%AMROUNDEDRECTD13*
21,1,3.20000,1.64500,0,0,90.0*
21,1,3.09500,1.75000,0,0,90.0*
1,1,0.10500,0.82250,1.54750*
1,1,0.10500,0.82250,-1.54750*
1,1,0.10500,-0.82250,-1.54750*
1,1,0.10500,-0.82250,1.54750*
%
%ADD13ROUNDEDRECTD13*%
G04:AMPARAMS|DCode=14|XSize=0.9mm|YSize=1.75mm|CornerRadius=0.0495mm|HoleSize=0mm|Usage=FLASHONLY|Rotation=90.000|XOffset=0mm|YOffset=0mm|HoleType=Round|Shape=RoundedRectangle|*
%AMROUNDEDRECTD14*
21,1,0.90000,1.65100,0,0,90.0*
21,1,0.80100,1.75000,0,0,90.0*
1,1,0.09900,0.82550,0.40050*
1,1,0.09900,0.82550,-0.40050*
1,1,0.09900,-0.82550,-0.40050*
1,1,0.09900,-0.82550,0.40050*
%
%ADD14ROUNDEDRECTD14*%
%ADD15R,1.00000X1.45000*%
%ADD16R,1.00000X0.80000*%
%ADD17R,0.80000X1.00000*%
%ADD18R,1.00000X1.70000*%
%TA.AperFunction,ConnectorPad*%
%ADD19R,1.65000X1.30000*%
%ADD20R,1.80000X1.90000*%
%ADD21R,1.00000X1.90000*%
%ADD22R,1.42500X1.55000*%
%ADD23R,0.45000X1.38000*%
%TA.AperFunction,SMDPad,CuDef*%
%ADD24O,1.60000X0.30000*%
%ADD25O,0.30000X1.60000*%
%ADD26R,1.40000X1.70000*%
%ADD27R,1.70000X1.40000*%
%TA.AperFunction,Conductor*%
%ADD28C,0.30000*%
%ADD29C,0.80000*%
%ADD30C,0.50000*%
%ADD31C,0.40000*%
%ADD32C,0.26017*%
%ADD33C,0.60000*%
%TA.AperFunction,ComponentPad*%
%ADD34C,1.52400*%
%TA.AperFunction,TestPad*%
%ADD35C,1.80000*%
%TA.AperFunction,ViaPad*%
%ADD36C,4.00000*%
%ADD37C,0.70000*%
D10*
X9869221Y8350227D02*
D03*
X10750222Y7799777D02*
D03*
D11*
X10100000Y9205001D02*
D03*
Y9394998D02*
D03*
X8650000Y5055001D02*
D03*
Y5244998D02*
D03*
X8050002Y5055001D02*
D03*
Y5244998D02*
D03*
X8299999Y8954999D02*
D03*
Y9145001D02*
D03*
X10487352Y7758496D02*
D03*
Y7568499D02*
D03*
X9349999Y4740001D02*
D03*
Y4549999D02*
D03*
Y4054998D02*
D03*
Y4245000D02*
D03*
D12*
X8712500Y9135000D02*
D03*
Y9365000D02*
D03*
X8887500D02*
D03*
Y9135000D02*
D03*
D13*
X10822500Y4410000D02*
D03*
D14*
X10197500Y4180000D02*
D03*
Y4410000D02*
D03*
Y4640000D02*
D03*
D15*
X8135000Y4192500D02*
D03*
X7965000D02*
D03*
X8135000Y4707500D02*
D03*
X7965000D02*
D03*
X8735000Y4192500D02*
D03*
X8565000D02*
D03*
X8735000Y4707500D02*
D03*
X8565000D02*
D03*
D16*
X8300000Y9625000D02*
D03*
Y9475000D02*
D03*
D17*
X8755000Y8730000D02*
D03*
X8905000D02*
D03*
D18*
X11445001Y7600000D02*
D03*
X11254999D02*
D03*
X11445001Y7999999D02*
D03*
X11254999D02*
D03*
X11445001Y8399998D02*
D03*
X11254999D02*
D03*
X11445001Y8799998D02*
D03*
X11254999D02*
D03*
X11445001Y9200002D02*
D03*
X11254999D02*
D03*
X11445001Y9600001D02*
D03*
X11254999D02*
D03*
X10150000Y3350002D02*
D03*
X10339997D02*
D03*
X12045000Y9600001D02*
D03*
X11854998D02*
D03*
X12045000Y9200002D02*
D03*
X11854998D02*
D03*
X12045000Y8799998D02*
D03*
X11854998D02*
D03*
X12045000Y8399998D02*
D03*
X11854998D02*
D03*
X12045001Y7999999D02*
D03*
X11854999D02*
D03*
X12045000Y7600000D02*
D03*
X11854998D02*
D03*
D19*
X8712498Y3214999D02*
D03*
X9387498D02*
D03*
D20*
X8935002D02*
D03*
D21*
X9204999D02*
D03*
D22*
X8801251Y3472500D02*
D03*
X9298751D02*
D03*
D23*
X8920001Y3480998D02*
D03*
X8985000D02*
D03*
X9049998D02*
D03*
X9115002D02*
D03*
X9180001D02*
D03*
D24*
X9489999Y7884998D02*
D03*
Y7835001D02*
D03*
Y7784998D02*
D03*
Y7735001D02*
D03*
Y7684999D02*
D03*
Y7635001D02*
D03*
Y7584999D02*
D03*
Y7535001D02*
D03*
Y7484999D02*
D03*
Y7435002D02*
D03*
Y7384999D02*
D03*
Y7335002D02*
D03*
Y7284999D02*
D03*
Y7235002D02*
D03*
Y7185000D02*
D03*
Y7135002D02*
D03*
X8330001D02*
D03*
Y7185000D02*
D03*
Y7235002D02*
D03*
Y7284999D02*
D03*
Y7335002D02*
D03*
Y7384999D02*
D03*
Y7435002D02*
D03*
Y7484999D02*
D03*
Y7535001D02*
D03*
Y7584999D02*
D03*
Y7635001D02*
D03*
Y7684999D02*
D03*
Y7735001D02*
D03*
Y7784998D02*
D03*
Y7835001D02*
D03*
Y7884998D02*
D03*
D25*
X9285000Y6929999D02*
D03*
X9234998D02*
D03*
X9185001D02*
D03*
X9134998D02*
D03*
X9085001D02*
D03*
X9034998D02*
D03*
X8985001D02*
D03*
X8934999D02*
D03*
X8885001D02*
D03*
X8834999D02*
D03*
X8785001D02*
D03*
X8734999D02*
D03*
X8685002D02*
D03*
X8634999D02*
D03*
X8585002D02*
D03*
X8534999D02*
D03*
Y8090002D02*
D03*
X8585002D02*
D03*
X8634999D02*
D03*
X8685002D02*
D03*
X8734999D02*
D03*
X8785001D02*
D03*
X8834999D02*
D03*
X8885001D02*
D03*
X8934999D02*
D03*
X8985001D02*
D03*
X9034998D02*
D03*
X9085001D02*
D03*
X9134998D02*
D03*
X9185001D02*
D03*
X9234998D02*
D03*
X9285000D02*
D03*
D26*
X9914300Y3550001D02*
D03*
X9685700D02*
D03*
X9418599Y8730000D02*
D03*
X9189999D02*
D03*
X9664299Y6500002D02*
D03*
X9435699D02*
D03*
X10614299Y5000000D02*
D03*
X10385699D02*
D03*
X9914301Y4149999D02*
D03*
X9685701D02*
D03*
X9914301Y3850000D02*
D03*
X9685701D02*
D03*
D27*
X7999999Y7835702D02*
D03*
Y8064302D02*
D03*
X9749998Y9185699D02*
D03*
Y9414299D02*
D03*
X7500000Y7514300D02*
D03*
Y7285700D02*
D03*
X10200000Y8014299D02*
D03*
Y7785699D02*
D03*
X9849998Y8014299D02*
D03*
Y7785699D02*
D03*
X7830002Y7055698D02*
D03*
Y7284298D02*
D03*
D28*
X12427620Y9207890D02*
Y9212527D01*
Y9207890D02*
X12460556Y9174953D01*
Y8655444D02*
X12646000Y8470001D01*
X12460556Y8655444D02*
Y9174953D01*
X12301359Y9001621D02*
Y9555341D01*
Y9001621D02*
X12385040Y8917940D01*
X12194540Y9639300D02*
X12938760Y9662160D01*
X12194540Y8678108D02*
Y9639300D01*
Y8678108D02*
X12334240Y8538408D01*
X9621333Y8262807D02*
X9695437D01*
X9701333Y8256911D01*
X9550000Y8334140D02*
X9621333Y8262807D01*
X10293232Y7362308D02*
X10739304D01*
X10997300Y7620304D02*
Y8871320D01*
X10739304Y7362308D02*
X10997300Y7620304D01*
X10149840Y7505700D02*
X10293232Y7362308D01*
X10618499Y7568499D02*
X10774407Y7724407D01*
X10487352Y7568499D02*
X10618499D01*
X10215927Y7500000D02*
X10383854D01*
X10438855Y7555001D01*
X10487352D01*
X8894999Y9364299D02*
Y9374998D01*
X8758195Y8604655D02*
Y8730000D01*
X8330824D02*
X8758195D01*
X8705002Y9134998D02*
Y9145001D01*
X8330001Y7835001D02*
X8395001D01*
X8211718D02*
X8330001D01*
X9821454Y9240699D02*
X9966871Y9386116D01*
X10091118D01*
X10100000Y9394998D01*
X9804998Y9240699D02*
X9821454D01*
X9749998Y9185699D02*
X9804998Y9240699D01*
X8894999Y8987150D02*
X8896812Y8985336D01*
Y8738188D02*
Y8985336D01*
Y8738188D02*
X8930000Y8705000D01*
X8894999Y8987150D02*
Y9134998D01*
X8650000Y4815000D02*
X8735000Y4730000D01*
X8650000Y4815000D02*
Y5055001D01*
X8735000Y4707500D02*
Y4730000D01*
X8873184Y5056627D02*
X9071252Y5254696D01*
X8651626Y5056627D02*
X8873184D01*
X9071252Y5254696D02*
Y6478748D01*
X8889706Y5545348D02*
X8889970Y5545085D01*
X8889706Y5545348D02*
Y5950582D01*
X8980611Y5575017D02*
Y6860609D01*
X8983828Y5503041D02*
Y5571800D01*
X8980611Y6860609D02*
X8985001Y6864999D01*
X8980611Y5575017D02*
X8983828Y5571800D01*
X8985001Y6864999D02*
Y6929999D01*
X8980611Y5499824D02*
X8983828Y5503041D01*
X8855235Y5166360D02*
X8980611Y5291736D01*
Y5499824D01*
X8767000Y5394164D02*
Y6184380D01*
Y5394164D02*
X8813980Y5347184D01*
Y5336360D02*
Y5347184D01*
X9034998Y6515001D02*
X9071252Y6478748D01*
X9034998Y6515001D02*
Y6929999D01*
X8568455Y4418455D02*
Y4733455D01*
X8500000Y4350000D02*
X8568455Y4418455D01*
X7965000Y4585000D02*
X8200000Y4350000D01*
X8350000D01*
X7965000Y4585000D02*
Y4707500D01*
X8050002Y4814998D02*
Y5055001D01*
Y4814998D02*
X8135000Y4730000D01*
Y4707500D02*
Y4730000D01*
X7750000Y4100000D02*
Y4550000D01*
X7933000Y3565620D02*
Y3917000D01*
X7750000Y4100000D02*
X7933000Y3917000D01*
X8350000Y4350000D02*
X8500000D01*
X8930000Y8694470D02*
Y8705000D01*
Y8694470D02*
X9085001Y8539469D01*
Y8090002D02*
Y8539469D01*
X8663110Y8509570D02*
X8758195Y8604655D01*
X10160925Y7555001D02*
X10215927Y7500000D01*
X9821860Y7600000D02*
X10250000D01*
X9795002Y7555001D02*
X10160925D01*
X9636862Y7784998D02*
X9821860Y7600000D01*
X6101080Y9469120D02*
X7212940Y10580980D01*
X13218820D01*
X13692700Y10107100D01*
X12900000Y6438001D02*
X13025121Y6312880D01*
X6270433Y6097569D02*
X6446002Y5922000D01*
X6270433Y7150397D02*
X6319520Y7199484D01*
X6270433Y6097569D02*
Y7150397D01*
X6172286Y4269654D02*
Y7303856D01*
Y4269654D02*
X6235700Y4206240D01*
X6172286Y7303856D02*
X6235700Y7367270D01*
X5883286Y7524141D02*
X6059145Y7700000D01*
X5883286Y7087246D02*
Y7524141D01*
X5484678Y6688638D02*
X5883286Y7087246D01*
X5950000Y4177031D02*
Y7449052D01*
X6152698Y7651750D01*
Y8136438D01*
X7645509Y3904491D02*
Y5054491D01*
Y3904491D02*
X7650000Y3900000D01*
X7400000Y4060824D02*
Y4550000D01*
X7450000Y4000000D02*
Y4010824D01*
X7400000Y4060824D02*
X7450000Y4010824D01*
X7000000Y4000000D02*
X7300000D01*
Y4650000D02*
X7400000Y4550000D01*
X6914140Y3914140D02*
X7000000Y4000000D01*
X6212891Y3914140D02*
X6914140D01*
X5750560Y4249440D02*
X6621648Y3378352D01*
X7378352D01*
X7600000Y3600000D01*
X8277803Y8687804D02*
X8288627D01*
X8330824Y8730000D01*
X13550000Y7450000D02*
X13600000Y7500000D01*
Y9602900D01*
X13550000Y5095817D02*
Y7450000D01*
X13204182Y4750000D02*
X13550000Y5095817D01*
X13200000Y4750000D02*
X13204182D01*
X13200685Y5425015D02*
X13325700Y5300000D01*
X12900000Y6692001D02*
X13200685Y6391316D01*
Y5425015D02*
Y6391316D01*
X9800000Y10300000D02*
X11100000D01*
X8264103Y10114103D02*
X9614103D01*
X9800000Y10300000D01*
X7161920Y9011920D02*
X8264103Y10114103D01*
X8350144Y9950144D02*
X10500144D01*
X10700000Y10150000D01*
X7880589Y9480589D02*
X8350144Y9950144D01*
X5300000Y6750000D02*
X5800000Y7250000D01*
X5300000Y4321520D02*
Y6750000D01*
X5950000Y4177031D02*
X6212891Y3914140D01*
X8688023Y6211977D02*
X8691353D01*
X8885001Y6405625D01*
X8550000Y6200000D02*
X8800000Y6450000D01*
X8550000Y5400000D02*
Y6200000D01*
X8885001Y6302381D02*
Y6405625D01*
X8934999Y6234998D02*
Y6929999D01*
X8850000Y6150000D02*
X8934999Y6234998D01*
X8767000Y6184380D02*
X8885001Y6302381D01*
X9158815Y5208815D02*
Y5950000D01*
X8897620Y4947620D02*
X9158815Y5208815D01*
X8889706Y5950582D02*
X8895424Y5956300D01*
X7778117Y8185025D02*
X8077260D01*
X8321953Y7940332D01*
Y7884998D02*
Y7940332D01*
X7211456Y7618364D02*
X7778117Y8185025D01*
X8321953Y7884998D02*
X8330001D01*
X7134056Y7814776D02*
X7569200Y8249920D01*
X7134056Y6325056D02*
Y7814776D01*
X6985000Y6176000D02*
X7134056Y6325056D01*
X7051040Y6637020D02*
Y7597140D01*
X7279176Y7596676D02*
X7632700Y7950200D01*
X7279176Y5993174D02*
Y7596676D01*
X6700002Y5414000D02*
X7279176Y5993174D01*
X7435291Y6776811D02*
X7547183Y6888704D01*
X7300000Y5350000D02*
X7435291Y5485291D01*
Y6776811D01*
X7360067Y5810067D02*
Y7596165D01*
X7000000Y5450000D02*
X7360067Y5810067D01*
Y7596165D02*
X7463902Y7700000D01*
X13408701Y5176080D02*
Y9334460D01*
X12474104Y10269056D02*
X13408701Y9334460D01*
X12900000Y4667379D02*
X13408701Y5176080D01*
X12900000Y4660001D02*
Y4667379D01*
X12637302Y4643303D02*
X12646000Y4652001D01*
X12150000Y4250008D02*
X12543295Y4643303D01*
X12637302D01*
X11350000Y3567000D02*
Y4900000D01*
X6237019Y4042361D02*
X6926165D01*
X7205980Y4322176D01*
X6481262Y4102918D02*
X6852918D01*
X7000000Y4250000D01*
Y4350000D01*
X6707881Y4185920D02*
X6784340D01*
X6575801Y4318000D02*
X6707881Y4185920D01*
X6319520Y4264660D02*
X6481262Y4102918D01*
X6050000Y4229380D02*
X6237019Y4042361D01*
X8885001Y6405625D02*
Y6929999D01*
X7686426Y5438338D02*
X7703884Y5455796D01*
X8785001Y6550574D02*
Y6929999D01*
X8717000Y6484380D02*
X8765620Y6533000D01*
X7703884Y5455796D02*
X8717000Y6484380D01*
X8767427Y6533000D02*
X8785001Y6550574D01*
X8765620Y6533000D02*
X8767427Y6533000D01*
X8649312Y8309820D02*
X8685002Y8274130D01*
X8647640Y8309820D02*
X8649312D01*
X9234998Y8184998D02*
X9307506Y8257506D01*
Y8285347D02*
X9315160Y8293000D01*
X9307506Y8257506D02*
Y8285347D01*
X9664299Y6500002D02*
Y6515002D01*
X9609299Y6570003D02*
X9664299Y6515002D01*
X9285000Y6864999D02*
Y6929999D01*
Y6864999D02*
X9290366D01*
X9585362Y6570003D01*
X9609299D01*
X10529855Y5829300D02*
X11485702D01*
X9315735Y7043420D02*
X10529855Y5829300D01*
X9185001Y7043420D02*
X9315735D01*
X9189999Y8730000D02*
X9199104Y8739105D01*
X9647246Y7835001D02*
X9696547Y7785699D01*
X9849998D01*
X9489999Y7835001D02*
X9647246D01*
X7810824Y8050000D02*
X7825126Y8064302D01*
X7999999D01*
X7800000Y8050000D02*
X7810824D01*
X8897620Y4038600D02*
Y4947620D01*
X8756975Y7936975D02*
X8785001Y7965002D01*
X8756975Y7885914D02*
Y7936975D01*
X8749321Y7878260D02*
X8756975Y7885914D01*
X8394530Y8087530D02*
X8511540Y7970520D01*
X8746110Y8446110D02*
X8750000Y8450000D01*
X8663110Y8411730D02*
X8734999Y8339841D01*
X8750000Y8450000D02*
X8866999D01*
X8734999Y8090002D02*
Y8339841D01*
X8663110Y8411730D02*
Y8509570D01*
X8866999Y8450000D02*
X8934999Y8382000D01*
X8885001Y8090002D02*
Y8277779D01*
X8849360Y8313420D02*
X8885001Y8277779D01*
X12950259Y9450000D02*
X13260675Y9139585D01*
Y8830676D02*
Y9139585D01*
X12900000Y8470001D02*
X13260675Y8830676D01*
X13150000Y4500000D02*
X13692700Y5042700D01*
X13150000Y4500000D02*
Y4500000D01*
X13692700Y5042700D02*
Y10107100D01*
X12802005Y10400895D02*
X13600000Y9602900D01*
X13500000Y7600000D02*
Y9407935D01*
X11574020Y10324020D02*
X12583915D01*
X13500000Y9407935D01*
X11400000Y10150000D02*
X11574020Y10324020D01*
X9247139Y10494940D02*
X13020380D01*
X8992915Y10240715D02*
X9247139Y10494940D01*
X13020380D02*
X13505180Y10010140D01*
X7120913Y9320913D02*
X8040715Y10240715D01*
X8992915D01*
X10841762Y5998520D02*
X11570482D01*
X9705280Y7135002D02*
X10841762Y5998520D01*
X9489999Y7135002D02*
X9705280D01*
X9220149Y7091680D02*
X9473672D01*
X10652232Y5913120D01*
X11052368D01*
X8949362Y7362468D02*
X9220149Y7091680D01*
X9300000Y7174680D02*
X9410319Y7284999D01*
X12817947Y6048848D02*
X12958800D01*
X13025121Y6115170D02*
Y6312880D01*
X12958800Y6048848D02*
X13025121Y6115170D01*
X12771120Y6002020D02*
X12817947Y6048848D01*
X11640820Y4488180D02*
X12442288Y5289648D01*
X12767647D01*
X12900000Y5422001D01*
X11714286Y4906206D02*
X12351881Y5543801D01*
X12697445D01*
X12771120Y5617476D01*
X9234998Y8090002D02*
Y8184998D01*
X11804239Y10269056D02*
X12474104D01*
X11535183Y10000000D02*
X11804239Y10269056D01*
X11200895Y10400895D02*
X12802005D01*
X11100000Y10300000D02*
X11200895Y10400895D01*
X10700000Y10150000D02*
X11400000D01*
X8834999Y7965002D02*
X8870500Y7929501D01*
Y7920500D02*
Y7929501D01*
X8834999Y7965002D02*
Y8090002D01*
X11250000Y7995000D02*
X11254999Y7999999D01*
X11250000Y7800000D02*
Y7995000D01*
X9285000Y8155002D02*
X9305002D01*
X9450000Y8300000D01*
X9285000Y8135000D02*
Y8155002D01*
X9382073Y8082073D02*
X9450000Y8150000D01*
X9382073Y8040953D02*
Y8082073D01*
X9134998Y8347598D02*
X9199880Y8412480D01*
X9134998Y8090002D02*
Y8347598D01*
X9550000Y8334140D02*
Y8550000D01*
X7505635Y7285700D02*
X7560635Y7230700D01*
X10955040Y10000000D02*
X11535183D01*
X11350000Y4900000D02*
X11600000Y5150000D01*
X11250000Y8600000D02*
Y8794999D01*
X11254999Y8799998D01*
X11100000Y8550000D02*
X11107653Y8542346D01*
X11147651D02*
X11254999Y8434998D01*
X11107653Y8542346D02*
X11147651D01*
X10997300Y8871320D02*
X11239500Y9113520D01*
X11254999Y8399998D02*
Y8434998D01*
X8785001Y7965002D02*
Y8090002D01*
X9321800Y7980680D02*
X9382073Y8040953D01*
X9185001Y7980680D02*
X9321800D01*
X9185001D02*
Y8090002D01*
X7499989Y4725200D02*
X7500620Y4724569D01*
X7499989Y6753229D02*
X7592761Y6846001D01*
X7499989Y4725200D02*
Y6753229D01*
X6817360Y6565900D02*
Y6566642D01*
X6700002Y6684000D02*
X6817360Y6566642D01*
X6319520Y7199484D02*
Y8032750D01*
X6849999Y7281610D02*
X6887002Y7318614D01*
Y7887005D02*
X7399995Y8399998D01*
X6887002Y7318614D02*
Y7887005D01*
X6700002Y7192000D02*
X6824203Y7316201D01*
Y8041096D02*
X7122160Y8339054D01*
X6824203Y7316201D02*
Y8041096D01*
X6849999Y6800002D02*
Y7281610D01*
X7000000Y4951998D02*
Y5450000D01*
X6017000Y8656580D02*
X6211580Y8462000D01*
X6017000Y8656580D02*
Y9385040D01*
X6101080Y9469120D01*
X6211580Y8462000D02*
X6446002D01*
X8685002Y8090002D02*
Y8274130D01*
X9000000Y7700000D02*
X9133360Y7833360D01*
X9271701D01*
X9126220Y7665720D02*
X9212011Y7535001D01*
X9489999D01*
Y7884998D02*
X9570699D01*
X9700000Y8014299D01*
X11570482Y5998520D02*
X11650000Y5919003D01*
X12000000Y5713500D02*
Y6300001D01*
X11150000Y5450000D02*
X11736500D01*
X12000000Y5713500D01*
X11350000Y5350000D02*
X11776200D01*
X12100000Y5673800D01*
Y6146001D01*
X7500000Y7285700D02*
X7505635D01*
X10590982Y8587740D02*
X10850000Y8328722D01*
Y8200000D02*
Y8328722D01*
X7500620Y4450620D02*
Y4724569D01*
X7500000Y4450000D02*
X7500620Y4450620D01*
X9234998Y6815002D02*
Y6929999D01*
Y6815002D02*
X9300000Y6750000D01*
X10190540Y8773160D02*
X10273160D01*
X11065640Y9565640D02*
X11254999D01*
X10273160Y8773160D02*
X11065640Y9565640D01*
X10398760Y9443720D02*
X10955040Y10000000D01*
X7880589Y9230589D02*
Y9480589D01*
X6903720Y9011920D02*
X7161920D01*
X7550000Y8900000D02*
X7880589Y9230589D01*
X11150000Y5050000D02*
Y5150000D01*
X11350000Y5350000D01*
X11250000Y5050000D02*
X11450000Y5250000D01*
X11250000Y4178640D02*
Y5050000D01*
X11450000Y5250000D02*
X11885049D01*
X11049000Y3977640D02*
X11250000Y4178640D01*
X11885049Y5250000D02*
X12415520Y5780471D01*
X11051300Y5351300D02*
X11150000Y5450000D01*
X12100000Y6146001D02*
X12646000Y6692001D01*
X12000000Y6300001D02*
X12646000Y6946001D01*
X12938760Y9662160D02*
X13172440Y9428480D01*
X12519660Y9104340D02*
Y9565640D01*
X12850000Y9450000D02*
X12950259D01*
X7122160Y8339054D02*
Y8404860D01*
X12900000Y8216001D02*
X13134000Y8450000D01*
X13300000D01*
X10189240Y8771860D02*
X10190540Y8773160D01*
X9749998Y8965387D02*
X9850000Y8865385D01*
X9527540Y7937500D02*
X9850000Y8259960D01*
Y8865385D01*
X9749998Y8965387D02*
Y9135699D01*
X12250000Y7850001D02*
Y8350000D01*
Y7850001D02*
X12646000Y7454001D01*
X9664700Y7299960D02*
X9761220D01*
X9562301Y7392302D02*
X9972613D01*
X9127362Y7384999D02*
X9554999D01*
X9972613Y7392302D02*
X10547914Y6817000D01*
X9554999Y7384999D02*
X9562301Y7392302D01*
X9815605Y7185000D02*
X10827602Y6173003D01*
X9599742Y7235002D02*
X9664700Y7299960D01*
X9489999Y7185000D02*
X9815605D01*
X9489999Y7435002D02*
X10078207D01*
X11086206Y6427003D02*
X11650000D01*
X10078207Y7435002D02*
X11086206Y6427003D01*
X10827602Y6173003D02*
X11650000D01*
X9032362Y7399741D02*
X9112620D01*
X8949362Y7434121D02*
X9000240Y7484999D01*
X8949362Y7362468D02*
Y7434121D01*
X9000240Y7484999D02*
X9489999D01*
X9112620Y7399741D02*
X9127362Y7384999D01*
X9308405Y7295700D02*
X9347706Y7335002D01*
X9489999D01*
X9297580Y7295700D02*
X9308405D01*
X9410319Y7284999D02*
X9489999D01*
X11526520Y4526520D02*
X12422001Y5422001D01*
X11526520Y3619500D02*
X11628120Y3517900D01*
X11526520Y3619500D02*
Y4526520D01*
X11601646Y4906206D02*
X11714286D01*
X12422001Y5422001D02*
X12646000D01*
X11597640Y4902200D02*
X11601646Y4906206D01*
X11051300Y4228860D02*
Y5351300D01*
X10967720Y4145280D02*
X11051300Y4228860D01*
X7000000Y4350000D02*
X7300000Y4650000D01*
Y5350000D01*
X7205980Y4322176D02*
Y4333000D01*
X8447639Y5166360D02*
X8855235D01*
X11640820Y3855720D02*
Y4488180D01*
X11648440Y3677920D02*
X11723822Y3753302D01*
Y3991823D01*
X10400000Y4100860D02*
Y4300000D01*
Y4100860D02*
X10523220Y3977640D01*
X11049000D01*
X10607040Y4061460D02*
X10690860Y4145280D01*
X10967720D01*
X6321520Y3300000D02*
X7667380D01*
X7933000Y3565620D01*
X8700000Y3700000D02*
X8770754Y3770754D01*
Y3911734D01*
X8897620Y4038600D01*
X5750560Y4249440D02*
Y6510020D01*
X5484678Y4315322D02*
Y6688638D01*
Y4315322D02*
X6200000Y3600000D01*
X5300000Y4321520D02*
X6321520Y3300000D01*
X6837726Y5795843D02*
X7211456Y6169574D01*
Y7618364D01*
X6949999Y6589105D02*
X7017202Y6521902D01*
X6949999Y6589105D02*
Y7800000D01*
X7017202Y6350417D02*
Y6521902D01*
X6700002Y4652000D02*
X7000000Y4951998D01*
X7650002Y5437998D02*
X7686426Y5438338D01*
X6050000Y7349916D02*
X6206348Y7506264D01*
X6050000Y4229380D02*
Y7349916D01*
X5750560Y6510020D02*
Y6783560D01*
X5867000Y6900000D01*
X5690540Y6450000D02*
X5750560Y6510020D01*
X5600000Y6450000D02*
X5690540D01*
X12519660Y9104340D02*
X12646000Y8978001D01*
X9349999Y4740001D02*
X9385000D01*
X8894999Y9334998D02*
Y9364299D01*
X8511540Y7970520D02*
X8634999D01*
X8392160D02*
X8511540D01*
X6574673Y5875020D02*
X6700002D01*
X11239500Y9113520D02*
X11254999D01*
X8330001Y7784998D02*
X8590280D01*
X6692900Y9469120D02*
X7066280Y9095740D01*
X6101080Y9469120D02*
X6692900D01*
X6152698Y8136438D02*
X6350000Y8333740D01*
X6574262D01*
X6700002Y8208000D01*
X8633841Y7484999D02*
X8765540Y7353300D01*
X8330001Y7484999D02*
X8633841D01*
X11723822Y3991823D02*
X12646000Y4914001D01*
X8834999Y6929999D02*
Y7020951D01*
X8797508Y7058442D02*
X8834999Y7020951D01*
X8533989Y7058442D02*
X8797508D01*
X8321548Y6846001D02*
X8533989Y7058442D01*
X7592761Y6846001D02*
X8321548D01*
X6206348Y7506264D02*
X6235700D01*
X9489999Y7235002D02*
X9599742D01*
X6817360Y6565900D02*
X6934200Y6449060D01*
X6319520Y8032750D02*
X6366510Y8079740D01*
X6796263D01*
X6824203Y8107680D01*
Y8454883D01*
X6865620Y8496300D01*
X8287822D01*
X8585002Y8199120D01*
Y8090002D02*
Y8199120D01*
X12385040Y8222960D02*
X12646000Y7962001D01*
X12385040Y8222960D02*
Y8917940D01*
X6700002Y5922000D02*
Y6000354D01*
X6575801Y6124555D02*
X6700002Y6000354D01*
X6575801Y6124555D02*
Y6227445D01*
X6649115Y6300760D01*
X6967545D01*
X7017202Y6350417D01*
X6949999Y7800000D02*
X7449998Y8299999D01*
X8325002D01*
X8534999Y8090002D01*
X12334240Y8019760D02*
X12646000Y7708001D01*
X12334240Y8019760D02*
Y8538408D01*
X6319520Y4779518D02*
X6446002Y4906000D01*
X8330001Y7435002D02*
X8568847D01*
X8694689Y7309160D01*
X8713500Y7226849D01*
X12771120Y5617476D02*
Y6002020D01*
X11254999Y9565640D02*
Y9600001D01*
X9209222Y7749540D02*
X9323761Y7635001D01*
X9489999D01*
X7650002Y6199998D02*
X8049026D01*
X8634999Y6785971D01*
Y6929999D01*
X12415520Y6207521D02*
X12646000Y6438001D01*
X12415520Y5780471D02*
Y6207521D01*
X6575801Y4318000D02*
Y4449450D01*
X6681053Y4554703D01*
X6700002Y4652000D01*
X8442960Y7735001D02*
X8506460Y7671501D01*
X8330001Y7735001D02*
X8442960D01*
X8483082Y7335002D02*
X8498840Y7350760D01*
X8330001Y7335002D02*
X8483082D01*
X7500000Y7514300D02*
X7799360D01*
X8078658Y7235002D01*
X8330001D01*
X8057261Y7384999D02*
X8330001D01*
X7742260Y7700000D02*
X8057261Y7384999D01*
X7463902Y7700000D02*
X7742260D01*
X7650002Y5945998D02*
X7945999D01*
X8685002Y6685001D01*
Y6929999D01*
X7650002Y6453998D02*
X8203997D01*
X8585002Y6835003D01*
Y6929999D01*
X8634999Y7970520D02*
Y8090002D01*
X6446002Y8970000D02*
X6571742Y9095740D01*
X6819900D01*
X6903720Y9011920D01*
X8330001Y7584999D02*
X8765362D01*
X8900602Y7449759D01*
Y7328362D02*
Y7449759D01*
Y7328362D02*
X8914582Y7314382D01*
Y7175500D02*
Y7314382D01*
X8840226Y7101144D02*
X8914582Y7175500D01*
X8470489Y7101144D02*
X8840226D01*
X8258048Y6888704D02*
X8470489Y7101144D01*
X7547183Y6888704D02*
X8258048D01*
X6319520Y4264660D02*
Y4779518D01*
X11254999Y7132579D02*
Y7600000D01*
X11254740Y7132320D02*
X11254999Y7132579D01*
X8793480Y7193280D02*
X8831580Y7231380D01*
X8793480Y7143847D02*
Y7193280D01*
X8579033Y7143847D02*
X8793480D01*
X8437880Y7284999D02*
X8579033Y7143847D01*
X8330001Y7284999D02*
X8437880D01*
X8054340Y7609840D02*
X8079501Y7635001D01*
X8330001D01*
X11485702Y5829300D02*
X11650000Y5665003D01*
X9185001Y6929999D02*
Y7043420D01*
X8336280Y5055001D02*
X8447639Y5166360D01*
X8050002Y5055001D02*
X8336280D01*
X8934999Y8090002D02*
Y8382000D01*
X9048501Y7937500D02*
X9527540D01*
X8985001Y8001000D02*
X9048501Y7937500D01*
X8985001Y8001000D02*
Y8090002D01*
X9489999Y7584999D02*
X9621520D01*
X9700819Y7505700D01*
X10149840D01*
X11254999Y9113520D02*
Y9200002D01*
X6339840Y5285740D02*
X6523990D01*
X6570980Y5238750D01*
Y5064760D02*
Y5238750D01*
Y5064760D02*
X6604000Y5031740D01*
X6776720D01*
X6824980Y5080000D01*
Y5289022D01*
X6700002Y5414000D02*
X6824980Y5289022D01*
X8145186Y7684999D02*
X8330001D01*
X8137342Y7692842D02*
X8145186Y7684999D01*
X7931856Y7692842D02*
X8137342D01*
X7886700Y7737998D02*
X7931856Y7692842D01*
X7886700Y7737998D02*
Y7810500D01*
X7747000Y7950200D02*
X7886700Y7810500D01*
X7632700Y7950200D02*
X7747000D01*
X7830002Y7185000D02*
X8330001D01*
X7830002D02*
Y7284298D01*
X8197941Y7535001D02*
X8330001D01*
X8173720Y7510780D02*
X8197941Y7535001D01*
X7995920Y7510780D02*
X8173720D01*
X7843520Y7663180D02*
X7995920Y7510780D01*
X7843520Y7663180D02*
Y7729220D01*
X7780020Y7792720D02*
X7843520Y7729220D01*
X8302554Y7135002D02*
X8330001D01*
X8223250Y7055698D02*
X8302554Y7135002D01*
X7830002Y7055698D02*
X8223250D01*
X8734999Y6620388D02*
Y6929999D01*
X7806609Y5691998D02*
X8734999Y6620388D01*
X7650002Y5691998D02*
X7806609D01*
X9271701Y7833360D02*
X9370060Y7735001D01*
X9489999D01*
Y7784998D02*
X9636862D01*
X9489999Y7684999D02*
X9665000D01*
X9795002Y7555001D01*
X6700002Y5875020D02*
Y5922000D01*
X6493393Y5793740D02*
X6574673Y5875020D01*
X6344920Y5793740D02*
X6493393D01*
X9034998Y8090002D02*
Y8395000D01*
X8830000Y8599998D02*
X9034998Y8395000D01*
X8830000Y8599998D02*
Y8827831D01*
X8702832Y8954999D02*
X8830000Y8827831D01*
X8299999Y8954999D02*
X8702832D01*
X8112760Y8249920D02*
X8392160Y7970520D01*
X7569200Y8249920D02*
X8112760D01*
X6700002Y6176000D02*
X6985000D01*
X6573845Y5795843D02*
X6837726D01*
X6446002Y5668000D02*
X6573845Y5795843D01*
X7650002Y6707998D02*
X8336448D01*
X8534999Y6906550D01*
Y6929999D01*
X8133182Y7784998D02*
X8330001D01*
X7999999Y7835702D02*
X8082478D01*
X7999999Y8046720D02*
X8211718Y7835001D01*
X7999999Y8046720D02*
Y8064302D01*
X10385699Y4984999D02*
Y5000000D01*
X9349999Y4245000D02*
Y4549999D01*
X9749998Y9135699D02*
X9765000D01*
X8299999Y9145001D02*
Y9435699D01*
X8315000D01*
X8385698Y9365000D01*
X8705002D01*
D29*
X10614299Y4709299D02*
Y5000000D01*
X10605000Y4700000D02*
X10614299Y4709299D01*
X10822500Y4410000D02*
Y4482500D01*
X10605000Y4700000D02*
X10822500Y4482500D01*
X10450000Y4700000D02*
X10605000D01*
D30*
X9715002Y4409999D02*
X10822500D01*
X10487352Y7883496D02*
X10550000Y7946144D01*
X10487352Y7758496D02*
Y7883496D01*
X10550000Y7946144D02*
Y7950000D01*
X10339997Y3340315D02*
X13584903Y3340315D01*
X13594588Y3350000D01*
X13600000D01*
X9180001Y3780001D02*
X9192714Y3792714D01*
X9180001Y3480998D02*
Y3780001D01*
X12045000Y7600000D02*
Y8399998D01*
X9300000Y9248006D02*
X9417826Y9365832D01*
X8298424Y9628380D02*
X8641616D01*
X7505635Y7285700D02*
X7828600D01*
X9390000Y3734588D02*
X9400000Y3744588D01*
X9360710Y3700000D02*
X9390000Y3729289D01*
X9400000Y3744588D02*
Y3750000D01*
X9390000Y3729289D02*
Y3734588D01*
X9192714Y3700000D02*
X9360710D01*
X9466293Y9414299D02*
X9749998D01*
X9418658Y9366665D02*
X9466293Y9414299D01*
X8641616Y9628380D02*
X8894999Y9374998D01*
X9385000Y4740001D02*
X9715002Y4409999D01*
X7450000Y6950000D02*
X7555698Y7055698D01*
X9664299Y6485003D02*
X9796173Y6353128D01*
Y6253827D02*
Y6353128D01*
Y6253827D02*
X9800000Y6250000D01*
X9664299Y6485003D02*
Y6500002D01*
X9189999Y8730000D02*
Y8745000D01*
X9235000Y8790000D01*
X9250000D01*
X9300000Y8840001D01*
Y9248006D01*
X8894999Y9364299D02*
X8896532Y9365832D01*
X9417826D01*
X9418658Y9366665D01*
X12047500Y7352500D02*
Y7597500D01*
Y7352500D02*
X12050000Y7350000D01*
X12045000Y7600000D02*
X12047500Y7597500D01*
X9849998Y7785699D02*
X10200000D01*
X10220350Y7765349D02*
X10479649D01*
X10200000Y7785699D02*
X10220350Y7765349D01*
X9200000Y4778317D02*
X9325000Y4903317D01*
X9575000D02*
X9839317Y4639000D01*
X9325000Y4903317D02*
X9575000D01*
X9200000Y4201040D02*
Y4778317D01*
X9419287Y6531414D02*
Y6630713D01*
X9450000Y6300000D02*
X9550000Y6200000D01*
X9450000Y6300000D02*
Y6440002D01*
X9435699Y6500002D02*
X9450000Y6440002D01*
X13173848Y8980156D02*
X13177673Y8983983D01*
X12900000Y8970001D02*
X12910155Y8980156D01*
X13173848D01*
X12900000Y8970001D02*
Y9224001D01*
X10024999Y8014299D02*
Y8969587D01*
X10100000Y9044588D01*
Y9205001D01*
X8685428Y7689850D02*
X8845550D01*
X9446173Y8303827D02*
Y8702427D01*
Y8303827D02*
X9450000Y8300000D01*
X9418599Y8730000D02*
X9446173Y8702427D01*
X7450000Y7100000D02*
Y7240700D01*
X7495000Y7285700D02*
X7500000D01*
X7450000Y7240700D02*
X7495000Y7285700D01*
X7555698Y7055698D02*
X7830002D01*
X11445001Y9200002D02*
X11854998D01*
X9418599Y8730000D02*
X9540260D01*
X9679940Y8869680D01*
X10024999Y8014299D02*
X10200000D01*
X9849998D02*
X10024999D01*
X9700000D02*
X9849998D01*
X7702501Y5247499D02*
X8047501D01*
X8050002Y5244998D01*
X9300000Y6750000D02*
X9419287Y6630713D01*
X9839317Y4639000D02*
X10180498D01*
X9200000Y4201040D02*
X9346042Y4054998D01*
X9685701Y3865000D02*
Y4149999D01*
X9509999Y4040702D02*
X9685701Y3865000D01*
Y3850000D02*
Y3865000D01*
X9364296Y4040702D02*
X9509999D01*
X9685701Y3550000D02*
Y3850000D01*
X9350000Y3950000D02*
Y4051040D01*
X9192714Y3792714D02*
X9350000Y3950000D01*
X12045000Y9200002D02*
Y9600001D01*
X8590280Y7784998D02*
X8685428Y7689850D01*
X8705002Y9145001D02*
X8894999Y9334998D01*
X8082478Y7835702D02*
X8133182Y7784998D01*
X12045000Y8399998D02*
Y8799998D01*
Y9200002D01*
X8050002Y5244998D02*
X8650000D01*
X11445001Y9600001D02*
X11854998D01*
X11445001Y8799998D02*
X11854998D01*
X11445001Y8399998D02*
X11854998D01*
X11445001Y7999999D02*
X11849999D01*
X11445001Y7600000D02*
X11854998D01*
D31*
X10149762Y3350240D02*
X10150000Y3350002D01*
X9842564Y3350240D02*
X10149762D01*
X9940500Y4176198D02*
X10193698D01*
X9914301Y4149999D02*
X9940500Y4176198D01*
X10193698D02*
X10197500Y4180000D01*
X9914301Y3850000D02*
Y4149999D01*
X10050000Y3850000D02*
X10339997Y3560003D01*
X9914301Y3850000D02*
X10050000D01*
X10339997Y3350002D02*
Y3560003D01*
X8920001Y3480998D02*
X8922501Y3478498D01*
Y3404071D02*
Y3478498D01*
Y3404071D02*
X8976333Y3350240D01*
X9842564D02*
X9916849Y3424525D01*
X8976333Y3350240D02*
X9842564D01*
X9916849Y3424525D02*
Y3566704D01*
D32*
X9134236Y6929237D02*
X9134998Y6929999D01*
X9133168Y6860352D02*
X9134236Y6861420D01*
Y6929237D01*
X9133168Y6582362D02*
X9363572Y6351959D01*
Y5113572D02*
Y6351959D01*
X9133168Y6582362D02*
Y6860352D01*
X9040668Y4790668D02*
X9363572Y5113572D01*
X9086831Y6563169D02*
X9218903Y6431097D01*
Y6431097D02*
Y6431097D01*
X9085763Y6861420D02*
X9086831Y6860352D01*
Y6563169D02*
Y6860352D01*
X9250000Y6400000D02*
X9317235Y6332766D01*
Y5132765D02*
Y6332766D01*
X9218903Y6431097D02*
X9250000Y6400000D01*
X8994331Y4809861D02*
X9317235Y5132765D01*
X9085001Y6929999D02*
X9085763Y6929237D01*
Y6861420D02*
Y6929237D01*
X8994331Y3490329D02*
Y4809861D01*
X9040668Y3490329D02*
Y4790668D01*
Y3490329D02*
X9049998Y3480998D01*
X8985000D02*
X8994331Y3490329D01*
D33*
X10180498Y4639000D02*
Y4779797D01*
X10385699Y4984999D01*
D34*
X12646000Y9224001D02*
D03*
X12900000D02*
D03*
X12646000Y8970001D02*
D03*
X12900000D02*
D03*
X12646000Y8716001D02*
D03*
X12900000D02*
D03*
X12646000Y8462001D02*
D03*
X12900000D02*
D03*
X12646000Y8208001D02*
D03*
X12900000D02*
D03*
X12646000Y7954001D02*
D03*
X12900000D02*
D03*
X12646000Y7700001D02*
D03*
X12900000D02*
D03*
X12646000Y7446001D02*
D03*
X12900000D02*
D03*
X12646000Y7192001D02*
D03*
X12900000D02*
D03*
X12646000Y6938001D02*
D03*
X12900000D02*
D03*
X12646000Y6684001D02*
D03*
X12900000D02*
D03*
X12646000Y6430001D02*
D03*
X12900000D02*
D03*
X12646000Y6176001D02*
D03*
X12900000D02*
D03*
X12646000Y5922001D02*
D03*
X12900000D02*
D03*
X12646000Y5668001D02*
D03*
X12900000D02*
D03*
X12646000Y5414001D02*
D03*
X12900000D02*
D03*
X12646000Y5160001D02*
D03*
X12900000D02*
D03*
X12646000Y4906001D02*
D03*
X12900000D02*
D03*
X12646000Y4652001D02*
D03*
X12900000D02*
D03*
X12646000Y4398001D02*
D03*
X12900000D02*
D03*
X6700002Y4398000D02*
D03*
X6446002D02*
D03*
X6700002Y4652000D02*
D03*
X6446002D02*
D03*
X6700002Y4906000D02*
D03*
X6446002D02*
D03*
X6700002Y5160000D02*
D03*
X6446002D02*
D03*
X6700002Y5414000D02*
D03*
X6446002D02*
D03*
X6700002Y5668000D02*
D03*
X6446002D02*
D03*
X6700002Y5922000D02*
D03*
X6446002D02*
D03*
X6700002Y6176000D02*
D03*
X6446002D02*
D03*
X6700002Y6430000D02*
D03*
X6446002D02*
D03*
X6700002Y6684000D02*
D03*
X6446002D02*
D03*
X6700002Y6938000D02*
D03*
X6446002D02*
D03*
X6700002Y7192000D02*
D03*
X6446002D02*
D03*
X6700002Y7446000D02*
D03*
X6446002D02*
D03*
X6700002Y7700000D02*
D03*
X6446002D02*
D03*
X6700002Y7954000D02*
D03*
X6446002D02*
D03*
X6700002Y8208000D02*
D03*
X6446002D02*
D03*
X6700002Y8462000D02*
D03*
X6446002D02*
D03*
X6700002Y8716000D02*
D03*
X6446002D02*
D03*
X6700002Y8970000D02*
D03*
X6446002D02*
D03*
X6700002Y9224000D02*
D03*
X6446002D02*
D03*
D35*
X7650002Y6707998D02*
D03*
Y6453998D02*
D03*
Y6199998D02*
D03*
Y5945998D02*
D03*
Y5691998D02*
D03*
Y5437998D02*
D03*
X11650000Y5665003D02*
D03*
Y5919003D02*
D03*
Y6173003D02*
D03*
Y6427003D02*
D03*
Y6681003D02*
D03*
Y6935003D02*
D03*
D36*
X7112000Y10007600D02*
D03*
X12192000D02*
D03*
Y3657600D02*
D03*
X7112000D02*
D03*
D37*
X12427620Y9212527D02*
D03*
X9701333Y8256911D02*
D03*
X10550000Y7950000D02*
D03*
X8889970Y5545085D02*
D03*
X8813980Y5336360D02*
D03*
X7750000Y4550000D02*
D03*
X8350000Y4350000D02*
D03*
X10250000Y7600000D02*
D03*
X7650000Y3900000D02*
D03*
X7450000Y4000000D02*
D03*
X7300000D02*
D03*
X8277803Y8687804D02*
D03*
X13200000Y4750000D02*
D03*
X5800000Y7250000D02*
D03*
X8688023Y6211977D02*
D03*
X7645509Y5054491D02*
D03*
X8850000Y6150000D02*
D03*
X9158815Y5950000D02*
D03*
X8895424Y5956300D02*
D03*
X7051040Y7597140D02*
D03*
Y6637020D02*
D03*
X13325700Y5300000D02*
D03*
X12150000Y4250000D02*
D03*
X11350000Y3567000D02*
D03*
X6784340Y4185920D02*
D03*
X8800000Y6450000D02*
D03*
X9400000Y3750000D02*
D03*
X9315160Y8293000D02*
D03*
X9715002Y4409999D02*
D03*
X7450000Y6950000D02*
D03*
X9800000Y6250000D02*
D03*
X10450000Y4700000D02*
D03*
X9418658Y9366665D02*
D03*
X12050000Y7350000D02*
D03*
X7800000Y8050000D02*
D03*
X9550000Y6200000D02*
D03*
X8749321Y7878260D02*
D03*
X8394530Y8087530D02*
D03*
X8746110Y8446110D02*
D03*
X8647640Y8309820D02*
D03*
X8849360Y8313420D02*
D03*
X13600000Y3350000D02*
D03*
X13177673Y8983983D02*
D03*
X9300000Y7174680D02*
D03*
X10100000Y9050000D02*
D03*
X8870500Y7920500D02*
D03*
X8845550Y7689850D02*
D03*
X11250000Y7800000D02*
D03*
X9450000Y8150000D02*
D03*
X9199880Y8412480D02*
D03*
X9550000Y8550000D02*
D03*
X7450000Y7100000D02*
D03*
X7600000Y3600000D02*
D03*
X11250000Y8600000D02*
D03*
X11100000Y8550000D02*
D03*
X9000000Y7700000D02*
D03*
X9126220Y7665720D02*
D03*
X11052368Y5913120D02*
D03*
X10850000Y8200000D02*
D03*
X7700000Y5250000D02*
D03*
X8550000Y5400000D02*
D03*
X7500000Y4450000D02*
D03*
X7100000Y9300000D02*
D03*
X7550000Y8900000D02*
D03*
X11600000Y5150000D02*
D03*
X12519660Y9565640D02*
D03*
X12301220Y9555480D02*
D03*
X12850000Y9450000D02*
D03*
X9679940Y8869680D02*
D03*
X13500000Y7600000D02*
D03*
X7122160Y8404860D02*
D03*
X13300000Y8450000D02*
D03*
X13150000Y4500000D02*
D03*
X10189240Y8771860D02*
D03*
X12250000Y8350000D02*
D03*
X9761220Y7299960D02*
D03*
X10547914Y6817000D02*
D03*
X9032362Y7399741D02*
D03*
X9297580Y7295700D02*
D03*
X11597640Y4902200D02*
D03*
X11150000Y5050000D02*
D03*
X11640820Y3855720D02*
D03*
X10400000Y4300000D02*
D03*
X8700000Y3700000D02*
D03*
X7205980Y4333000D02*
D03*
X6200000Y3600000D02*
D03*
X5867000Y6900000D02*
D03*
X5600000Y6450000D02*
D03*
X10398760Y9443720D02*
D03*
X7066280Y9095740D02*
D03*
X11628120Y3517900D02*
D03*
X8765540Y7353300D02*
D03*
X11648440Y3677920D02*
D03*
X6059145Y7700000D02*
D03*
X6235700Y7506264D02*
D03*
X6934200Y6449060D02*
D03*
X10590982Y8587740D02*
D03*
X13172440Y9428480D02*
D03*
X10607040Y4061460D02*
D03*
X8713500Y7226849D02*
D03*
X9209222Y7749540D02*
D03*
X8498840Y7350760D02*
D03*
X6849999Y6800002D02*
D03*
X7399995Y8399998D02*
D03*
X13505180Y10010140D02*
D03*
X8506460Y7671501D02*
D03*
X11254740Y7132320D02*
D03*
X8831580Y7231380D02*
D03*
X6235700Y4206240D02*
D03*
Y7367270D02*
D03*
X8054340Y7609840D02*
D03*
X6339840Y5285740D02*
D03*
X7780020Y7792720D02*
D03*
X6344920Y5793740D02*
D03*
%TF.MD5,623f1e899c8689c687004fca214bb392*%
M02*
