%TF.GenerationSoftware,Altium Limited,Altium Designer,23.3.1 (30)*%
G04 Layer_Color=8388736*
%FSLAX45Y45*%
%MOMM*%
%TF.SameCoordinates,5468FEB5-A0EC-45A8-B7CF-D9D5DC2F6AF5*%
%TF.FilePolarity,Negative*%
%TF.FileFunction,Soldermask,Top*%
%TF.Part,Single*%
G01*
G75*
%TA.AperFunction,SMDPad,CuDef*%
%ADD12R,1.05000X1.30000*%
%ADD15R,1.00000X1.45000*%
%TA.AperFunction,ConnectorPad*%
%ADD19R,1.65000X1.30000*%
%ADD20R,1.80000X1.90000*%
%ADD21R,1.00000X1.90000*%
%ADD22R,1.42500X1.55000*%
%ADD23R,0.45000X1.38000*%
%TA.AperFunction,SMDPad,CuDef*%
%ADD48C,2.20320*%
%ADD49R,1.90320X1.20320*%
G04:AMPARAMS|DCode=50|XSize=3.4032mm|YSize=1.9532mm|CornerRadius=0.1541mm|HoleSize=0mm|Usage=FLASHONLY|Rotation=90.000|XOffset=0mm|YOffset=0mm|HoleType=Round|Shape=RoundedRectangle|*
%AMROUNDEDRECTD50*
21,1,3.40320,1.64500,0,0,90.0*
21,1,3.09500,1.95320,0,0,90.0*
1,1,0.30820,0.82250,1.54750*
1,1,0.30820,0.82250,-1.54750*
1,1,0.30820,-0.82250,-1.54750*
1,1,0.30820,-0.82250,1.54750*
%
%ADD50ROUNDEDRECTD50*%
G04:AMPARAMS|DCode=51|XSize=1.1032mm|YSize=1.9532mm|CornerRadius=0.1511mm|HoleSize=0mm|Usage=FLASHONLY|Rotation=90.000|XOffset=0mm|YOffset=0mm|HoleType=Round|Shape=RoundedRectangle|*
%AMROUNDEDRECTD51*
21,1,1.10320,1.65100,0,0,90.0*
21,1,0.80100,1.95320,0,0,90.0*
1,1,0.30220,0.82550,0.40050*
1,1,0.30220,0.82550,-0.40050*
1,1,0.30220,-0.82550,-0.40050*
1,1,0.30220,-0.82550,0.40050*
%
%ADD51ROUNDEDRECTD51*%
%ADD52R,1.20320X1.00320*%
%ADD53R,1.00320X1.20320*%
%ADD54R,1.20320X1.90320*%
%ADD55O,1.80320X0.50320*%
%ADD56O,0.50320X1.80320*%
%ADD57R,1.60320X1.90320*%
%ADD58R,1.90320X1.60320*%
%TA.AperFunction,TestPad*%
%ADD59C,1.94000*%
%TA.AperFunction,ViaPad*%
%ADD60C,4.20320*%
%ADD61C,0.90320*%
D12*
X8712500Y9135000D02*
D03*
Y9365000D02*
D03*
X8887500D02*
D03*
Y9135000D02*
D03*
D15*
X8135000Y4192500D02*
D03*
X7965000D02*
D03*
X8135000Y4707500D02*
D03*
X7965000D02*
D03*
X8735000Y4192500D02*
D03*
X8565000D02*
D03*
X8735000Y4707500D02*
D03*
X8565000D02*
D03*
D19*
X8712498Y3214999D02*
D03*
X9387498D02*
D03*
D20*
X8935002D02*
D03*
D21*
X9204999D02*
D03*
D22*
X8801251Y3472500D02*
D03*
X9298751D02*
D03*
D23*
X8920001Y3480998D02*
D03*
X8985000D02*
D03*
X9049998D02*
D03*
X9115002D02*
D03*
X9180001D02*
D03*
D48*
X9869221Y8350227D02*
D03*
X10750222Y7799777D02*
D03*
D49*
X10100000Y9205001D02*
D03*
Y9394998D02*
D03*
X8650000Y5055001D02*
D03*
Y5244998D02*
D03*
X8050002Y5055001D02*
D03*
Y5244998D02*
D03*
X8299999Y8954999D02*
D03*
Y9145001D02*
D03*
X10487352Y7758496D02*
D03*
Y7568499D02*
D03*
X9349999Y4740001D02*
D03*
Y4549999D02*
D03*
Y4054998D02*
D03*
Y4245000D02*
D03*
D50*
X10822500Y4410000D02*
D03*
D51*
X10197500Y4180000D02*
D03*
Y4410000D02*
D03*
Y4640000D02*
D03*
D52*
X8300000Y9625000D02*
D03*
Y9475000D02*
D03*
D53*
X8755000Y8730000D02*
D03*
X8905000D02*
D03*
D54*
X11445001Y7600000D02*
D03*
X11254999D02*
D03*
X11445001Y7999999D02*
D03*
X11254999D02*
D03*
X11445001Y8399998D02*
D03*
X11254999D02*
D03*
X11445001Y8799998D02*
D03*
X11254999D02*
D03*
X11445001Y9200002D02*
D03*
X11254999D02*
D03*
X11445001Y9600001D02*
D03*
X11254999D02*
D03*
X10150000Y3350002D02*
D03*
X10339997D02*
D03*
X12045000Y9600001D02*
D03*
X11854998D02*
D03*
X12045000Y9200002D02*
D03*
X11854998D02*
D03*
X12045000Y8799998D02*
D03*
X11854998D02*
D03*
X12045000Y8399998D02*
D03*
X11854998D02*
D03*
X12045001Y7999999D02*
D03*
X11854999D02*
D03*
X12045000Y7600000D02*
D03*
X11854998D02*
D03*
D55*
X9489999Y7884998D02*
D03*
Y7835001D02*
D03*
Y7784998D02*
D03*
Y7735001D02*
D03*
Y7684999D02*
D03*
Y7635001D02*
D03*
Y7584999D02*
D03*
Y7535001D02*
D03*
Y7484999D02*
D03*
Y7435002D02*
D03*
Y7384999D02*
D03*
Y7335002D02*
D03*
Y7284999D02*
D03*
Y7235002D02*
D03*
Y7185000D02*
D03*
Y7135002D02*
D03*
X8330001D02*
D03*
Y7185000D02*
D03*
Y7235002D02*
D03*
Y7284999D02*
D03*
Y7335002D02*
D03*
Y7384999D02*
D03*
Y7435002D02*
D03*
Y7484999D02*
D03*
Y7535001D02*
D03*
Y7584999D02*
D03*
Y7635001D02*
D03*
Y7684999D02*
D03*
Y7735001D02*
D03*
Y7784998D02*
D03*
Y7835001D02*
D03*
Y7884998D02*
D03*
D56*
X9285000Y6929999D02*
D03*
X9234998D02*
D03*
X9185001D02*
D03*
X9134998D02*
D03*
X9085001D02*
D03*
X9034998D02*
D03*
X8985001D02*
D03*
X8934999D02*
D03*
X8885001D02*
D03*
X8834999D02*
D03*
X8785001D02*
D03*
X8734999D02*
D03*
X8685002D02*
D03*
X8634999D02*
D03*
X8585002D02*
D03*
X8534999D02*
D03*
Y8090002D02*
D03*
X8585002D02*
D03*
X8634999D02*
D03*
X8685002D02*
D03*
X8734999D02*
D03*
X8785001D02*
D03*
X8834999D02*
D03*
X8885001D02*
D03*
X8934999D02*
D03*
X8985001D02*
D03*
X9034998D02*
D03*
X9085001D02*
D03*
X9134998D02*
D03*
X9185001D02*
D03*
X9234998D02*
D03*
X9285000D02*
D03*
D57*
X9914300Y3550001D02*
D03*
X9685700D02*
D03*
X9418599Y8730000D02*
D03*
X9189999D02*
D03*
X9664299Y6500002D02*
D03*
X9435699D02*
D03*
X10614299Y5000000D02*
D03*
X10385699D02*
D03*
X9914301Y4149999D02*
D03*
X9685701D02*
D03*
X9914301Y3850000D02*
D03*
X9685701D02*
D03*
D58*
X7999999Y7835702D02*
D03*
Y8064302D02*
D03*
X9749998Y9185699D02*
D03*
Y9414299D02*
D03*
X7500000Y7514300D02*
D03*
Y7285700D02*
D03*
X10200000Y8014299D02*
D03*
Y7785699D02*
D03*
X9849998Y8014299D02*
D03*
Y7785699D02*
D03*
X7830002Y7055698D02*
D03*
Y7284298D02*
D03*
D59*
X7650002Y6707998D02*
D03*
Y6453998D02*
D03*
Y6199998D02*
D03*
Y5945998D02*
D03*
Y5691998D02*
D03*
Y5437998D02*
D03*
X11650000Y5665003D02*
D03*
Y5919003D02*
D03*
Y6173003D02*
D03*
Y6427003D02*
D03*
Y6681003D02*
D03*
Y6935003D02*
D03*
D60*
X7112000Y10007600D02*
D03*
X12192000D02*
D03*
Y3657600D02*
D03*
X7112000D02*
D03*
D61*
X12427620Y9212527D02*
D03*
X9701333Y8256911D02*
D03*
X10550000Y7950000D02*
D03*
X8889970Y5545085D02*
D03*
X8813980Y5336360D02*
D03*
X7750000Y4550000D02*
D03*
X8350000Y4350000D02*
D03*
X10250000Y7600000D02*
D03*
X7650000Y3900000D02*
D03*
X7450000Y4000000D02*
D03*
X7300000D02*
D03*
X8277803Y8687804D02*
D03*
X13200000Y4750000D02*
D03*
X5800000Y7250000D02*
D03*
X8688023Y6211977D02*
D03*
X7645509Y5054491D02*
D03*
X8850000Y6150000D02*
D03*
X9158815Y5950000D02*
D03*
X8895424Y5956300D02*
D03*
X7051040Y7597140D02*
D03*
Y6637020D02*
D03*
X13325700Y5300000D02*
D03*
X12150000Y4250000D02*
D03*
X11350000Y3567000D02*
D03*
X6784340Y4185920D02*
D03*
X8800000Y6450000D02*
D03*
X9400000Y3750000D02*
D03*
X9315160Y8293000D02*
D03*
X9715002Y4409999D02*
D03*
X7450000Y6950000D02*
D03*
X9800000Y6250000D02*
D03*
X10450000Y4700000D02*
D03*
X9418658Y9366665D02*
D03*
X12050000Y7350000D02*
D03*
X7800000Y8050000D02*
D03*
X9550000Y6200000D02*
D03*
X8749321Y7878260D02*
D03*
X8394530Y8087530D02*
D03*
X8746110Y8446110D02*
D03*
X8647640Y8309820D02*
D03*
X8849360Y8313420D02*
D03*
X13600000Y3350000D02*
D03*
X13177673Y8983983D02*
D03*
X9300000Y7174680D02*
D03*
X10100000Y9050000D02*
D03*
X8870500Y7920500D02*
D03*
X8845550Y7689850D02*
D03*
X11250000Y7800000D02*
D03*
X9450000Y8150000D02*
D03*
X9199880Y8412480D02*
D03*
X9550000Y8550000D02*
D03*
X7450000Y7100000D02*
D03*
X7600000Y3600000D02*
D03*
X11250000Y8600000D02*
D03*
X11100000Y8550000D02*
D03*
X9000000Y7700000D02*
D03*
X9126220Y7665720D02*
D03*
X11052368Y5913120D02*
D03*
X10850000Y8200000D02*
D03*
X7700000Y5250000D02*
D03*
X8550000Y5400000D02*
D03*
X7500000Y4450000D02*
D03*
X7100000Y9300000D02*
D03*
X7550000Y8900000D02*
D03*
X11600000Y5150000D02*
D03*
X12519660Y9565640D02*
D03*
X12301220Y9555480D02*
D03*
X12850000Y9450000D02*
D03*
X9679940Y8869680D02*
D03*
X13500000Y7600000D02*
D03*
X7122160Y8404860D02*
D03*
X13300000Y8450000D02*
D03*
X13150000Y4500000D02*
D03*
X10189240Y8771860D02*
D03*
X12250000Y8350000D02*
D03*
X9761220Y7299960D02*
D03*
X10547914Y6817000D02*
D03*
X9032362Y7399741D02*
D03*
X9297580Y7295700D02*
D03*
X11597640Y4902200D02*
D03*
X11150000Y5050000D02*
D03*
X11640820Y3855720D02*
D03*
X10400000Y4300000D02*
D03*
X8700000Y3700000D02*
D03*
X7205980Y4333000D02*
D03*
X6200000Y3600000D02*
D03*
X5867000Y6900000D02*
D03*
X5600000Y6450000D02*
D03*
X10398760Y9443720D02*
D03*
X7066280Y9095740D02*
D03*
X11628120Y3517900D02*
D03*
X8765540Y7353300D02*
D03*
X11648440Y3677920D02*
D03*
X6059145Y7700000D02*
D03*
X6235700Y7506264D02*
D03*
X6934200Y6449060D02*
D03*
X10590982Y8587740D02*
D03*
X13172440Y9428480D02*
D03*
X10607040Y4061460D02*
D03*
X8713500Y7226849D02*
D03*
X9209222Y7749540D02*
D03*
X8498840Y7350760D02*
D03*
X6849999Y6800002D02*
D03*
X7399995Y8399998D02*
D03*
X13505180Y10010140D02*
D03*
X8506460Y7671501D02*
D03*
X11254740Y7132320D02*
D03*
X8831580Y7231380D02*
D03*
X6235700Y4206240D02*
D03*
Y7367270D02*
D03*
X8054340Y7609840D02*
D03*
X6339840Y5285740D02*
D03*
X7780020Y7792720D02*
D03*
X6344920Y5793740D02*
D03*
%TF.MD5,a30e9d9285cc7738eee3045569cf5d32*%
M02*
