%TF.GenerationSoftware,Altium Limited,Altium Designer,23.3.1 (30)*%
G04 Layer_Physical_Order=4*
G04 Layer_Color=16711680*
%FSLAX45Y45*%
%MOMM*%
%TF.SameCoordinates,CA382BF2-D798-45FE-BEC5-AB2A3CF063FF*%
%TF.FilePolarity,Positive*%
%TF.FileFunction,Copper,L4,Bot,Signal*%
%TF.Part,Single*%
G01*
G75*
%TA.AperFunction,SMDPad,CuDef*%
%ADD10R,0.80000X1.00000*%
%ADD12R,1.00000X0.80000*%
%ADD13R,1.40000X1.70000*%
%TA.AperFunction,Conductor*%
%ADD19C,0.30000*%
%ADD20C,0.50000*%
%ADD21C,0.70000*%
%ADD22C,1.00000*%
%TA.AperFunction,ComponentPad*%
%ADD23C,1.70000*%
%ADD24C,1.52400*%
%TA.AperFunction,ViaPad*%
%ADD26C,4.00000*%
%ADD27C,0.70000*%
%ADD28C,0.80000*%
%TA.AperFunction,SMDPad,CuDef*%
%ADD29C,1.50000*%
%ADD30R,1.45000X1.00000*%
%ADD31R,4.50100X7.90000*%
%ADD32R,4.50000X8.05180*%
%ADD33R,10.49020X7.01040*%
%ADD34R,0.53340X1.49860*%
%ADD35O,0.53340X1.49860*%
G04:AMPARAMS|DCode=36|XSize=1.5565mm|YSize=0.35mm|CornerRadius=0.175mm|HoleSize=0mm|Usage=FLASHONLY|Rotation=0.000|XOffset=0mm|YOffset=0mm|HoleType=Round|Shape=RoundedRectangle|*
%AMROUNDEDRECTD36*
21,1,1.55650,0.00000,0,0,0.0*
21,1,1.20651,0.35000,0,0,0.0*
1,1,0.35000,0.60326,0.00000*
1,1,0.35000,-0.60326,0.00000*
1,1,0.35000,-0.60326,0.00000*
1,1,0.35000,0.60326,0.00000*
%
%ADD36ROUNDEDRECTD36*%
%ADD37R,1.55650X0.35000*%
%ADD38R,1.20000X1.20000*%
%ADD39R,1.50000X1.60000*%
%TA.AperFunction,Conductor*%
%ADD40C,2.00000*%
%ADD41C,1.50000*%
%ADD42C,0.20000*%
%TA.AperFunction,ComponentPad*%
%ADD43C,1.60020*%
D10*
X8574325Y5564874D02*
D03*
X8424325D02*
D03*
D12*
X7200000Y5875000D02*
D03*
Y6025000D02*
D03*
X8950000Y5625000D02*
D03*
Y5775000D02*
D03*
X7400000Y5875000D02*
D03*
Y6025000D02*
D03*
D13*
X7935700Y5550000D02*
D03*
X8164300D02*
D03*
X8085700Y6800000D02*
D03*
X8314300D02*
D03*
D19*
X8264300Y5564300D02*
Y5885700D01*
X9282000Y4457930D02*
Y6391355D01*
X9203354Y6470000D02*
X9282000Y6391355D01*
X9203354Y6470000D02*
Y7420000D01*
X10400000Y6550000D02*
X10521374Y6428626D01*
X12644626D01*
X12188041Y4388041D02*
X12550000Y4750000D01*
X10588041Y4388041D02*
X12188041D01*
X10450000Y4250000D02*
X10588041Y4388041D01*
X8450000Y5695826D02*
X8500819Y5645008D01*
Y4744011D02*
Y5645008D01*
Y4744011D02*
X8544830Y4700000D01*
X7816765Y6000000D02*
X7866765Y5950000D01*
X7650000Y6000000D02*
X7816765D01*
X7866765Y5950000D02*
X7989914D01*
X11607298Y9000000D02*
X12050000Y9442702D01*
X8950000Y9000000D02*
X11607298D01*
X12050000Y9442702D02*
Y9550000D01*
X9520000Y3120000D02*
X9924231Y3524231D01*
Y4723515D01*
X10007231Y4100000D02*
X10010824D01*
X8885771Y5900000D02*
X8939067Y5846704D01*
X8599908Y5950092D02*
X8650000Y5900000D01*
X8885771D01*
X8410178Y5950092D02*
X8599908D01*
X8939067Y5785933D02*
Y5846704D01*
Y5785933D02*
X8950000Y5775000D01*
X8574325Y5650000D02*
X8965440D01*
X8960000Y5625000D02*
X9000000Y5585000D01*
X8950000Y5625000D02*
X8960000D01*
X9000000Y5400000D02*
Y5585000D01*
X8750000Y6300000D02*
X8900000Y6450000D01*
X7935700Y5565000D02*
X7990700Y5620000D01*
X7935700Y5550012D02*
Y5565000D01*
X7990700Y5620000D02*
X8020688D01*
X8150000Y5749312D02*
Y5850000D01*
X8020688Y5620000D02*
X8150000Y5749312D01*
X8105500Y7023800D02*
X8314300Y6815000D01*
X8105500Y7023800D02*
Y7229490D01*
X8507500Y6585000D02*
X8515000D01*
X8550000Y6620000D01*
Y7117730D01*
X8613500Y7181230D01*
Y7229490D01*
X8594830Y4400000D02*
Y4505170D01*
X9100000Y7650000D02*
X9200000D01*
X8867500Y7417500D02*
X9100000Y7650000D01*
X9200000D02*
X9399064Y7450936D01*
Y5900936D02*
X9600000Y5700000D01*
X9399064Y5900936D02*
Y7450936D01*
X9600000Y5700000D02*
X10496000D01*
X11096000Y5100000D01*
X10200000Y4564000D02*
X10286000Y4650000D01*
X12136000D01*
X12646000Y5160000D01*
X10200000Y4450000D02*
Y4564000D01*
X8867500Y7229490D02*
Y7417500D01*
X8745250Y6304750D02*
Y7224740D01*
Y6304750D02*
X8750000Y6300000D01*
X8740500Y7229490D02*
X8745250Y7224740D01*
X7425000Y6000000D02*
X7650000D01*
X8314300Y6800000D02*
Y6815000D01*
X8574325Y5564874D02*
Y5650000D01*
Y5810009D01*
X7515000Y6545000D02*
X7575000Y6485000D01*
X7815000Y6250000D02*
X8050000D01*
X7515000Y6545000D02*
Y6550000D01*
X7575000Y6485000D02*
X7580000D01*
X7815000Y6250000D01*
X8050000D02*
X8300000Y6000000D01*
X8410086D01*
X8150000D02*
X8264300Y5885700D01*
X7989914Y6050000D02*
X8100000D01*
X8150000Y6000000D01*
X7989914D02*
X8150000D01*
X7400000Y6025000D02*
X7425000Y6000000D01*
X7050000Y6510000D02*
X7190000Y6650000D01*
X7050000Y6175000D02*
Y6510000D01*
Y6175000D02*
X7165000Y6060000D01*
X7190000Y6025000D02*
X7200000D01*
X7165000Y6050000D02*
X7190000Y6025000D01*
X7165000Y6050000D02*
Y6060000D01*
X7424043Y5899043D02*
X7988958D01*
X7505170Y4400000D02*
Y5505170D01*
X8553354Y3120000D02*
X9520000D01*
X10010824Y4100000D02*
X10060824Y4050000D01*
X12479033D01*
X8100000Y5900000D02*
X8150000Y5850000D01*
X7989914Y5900000D02*
X8100000D01*
X8410086Y5850000D02*
X8447690D01*
X8450000Y5847690D01*
Y5695826D02*
Y5847690D01*
X8485290Y5899043D02*
X8574325Y5810009D01*
X8411043Y5899043D02*
X8485290D01*
X8410086Y5900000D02*
X8411043Y5899043D01*
X7850000Y5850000D02*
X7989914D01*
X7505170Y5505170D02*
X7850000Y5850000D01*
X10100000Y7777000D02*
X10152793Y7829793D01*
X12529793D01*
X9785519Y6516770D02*
X9793172Y6524424D01*
X12479033Y4050000D02*
X12739517Y4310483D01*
X10029383Y8222704D02*
X10084101Y8277422D01*
X10927422D01*
X11112000Y8462000D01*
X10018027Y8222704D02*
X10029383D01*
X11112000Y8462000D02*
X12646000D01*
X10250000Y8050000D02*
X12550000D01*
X10450000Y6900000D02*
X12430000D01*
X9926248Y7400000D02*
X9972248Y7446000D01*
X9900000Y7400000D02*
X9926248D01*
X9972248Y7446000D02*
X12646000D01*
X12430000Y6900000D02*
X12646000Y6684000D01*
X9103354Y7520000D02*
X9203354Y7420000D01*
D20*
X8298610Y5294986D02*
Y5529990D01*
X8264300Y5564300D02*
X8298610Y5529990D01*
X8269012Y5564874D02*
X8269012D01*
X8264874Y5564874D02*
X8424325D01*
X8264300Y5564300D02*
X8264874Y5564874D01*
X8651658Y9673157D02*
X8651849Y9673348D01*
X8651658Y8161612D02*
Y9673157D01*
Y8161612D02*
X8994500Y7818770D01*
X8178600Y5564300D02*
X8264300D01*
X7093620Y5876556D02*
X7198444D01*
X6900000Y6070176D02*
X7093620Y5876556D01*
X6900000Y6070176D02*
Y6650000D01*
X8313226Y6571239D02*
Y6798926D01*
X8314300Y6800000D01*
X8312151Y6570164D02*
X8313226Y6571239D01*
X7190000Y6450000D02*
X7340000Y6300000D01*
X7500000D01*
X7904582Y7404582D02*
X8000000Y7500000D01*
X7904582Y6996118D02*
X8085700Y6815000D01*
X7904582Y6996118D02*
Y7404582D01*
X8994500Y7770510D02*
Y7818770D01*
X9653354Y9120000D02*
Y9196646D01*
X8950000Y9900000D02*
X9653354Y9196646D01*
X8994500Y7722250D02*
Y7770510D01*
X8772250Y7500000D02*
X8994500Y7722250D01*
X8000000Y7500000D02*
X8772250D01*
X8085700Y6800000D02*
Y6815000D01*
Y6785000D02*
Y6800000D01*
X8150000Y6550000D02*
Y6720700D01*
X8085700Y6785000D02*
X8150000Y6720700D01*
X8015000Y6415000D02*
X8150000Y6550000D01*
X7992500Y6415000D02*
X8015000D01*
X7050000Y6800000D02*
X8085700D01*
X6900000Y6650000D02*
X7050000Y6800000D01*
X7200000Y5875000D02*
X7400000D01*
X8164300Y5550000D02*
X8178600Y5564300D01*
X12800000Y9070000D02*
Y9100000D01*
X12900000Y8970000D02*
Y8970000D01*
X12800000Y9070000D02*
X12900000Y8970000D01*
X12800000Y9100000D02*
X12900000Y9200000D01*
Y9224000D01*
D21*
X10199354Y10495000D02*
X10954754Y9739600D01*
X12260400D01*
X12628776Y9371224D01*
X12150000Y9100000D02*
X12450000D01*
X12628776Y9241224D02*
Y9371224D01*
Y9241224D02*
X12646000Y9224000D01*
D22*
X10556354Y10663000D02*
X10849354Y10370000D01*
X10113354Y10663000D02*
X10556354D01*
X9945354Y10495000D02*
X10113354Y10663000D01*
X12192000Y10007600D02*
X12216600Y9983000D01*
D23*
X10453354Y10495000D02*
D03*
X10199354D02*
D03*
X9945354D02*
D03*
D24*
X11096000Y5100000D02*
D03*
X11350000D02*
D03*
X11604000D02*
D03*
D26*
X7112000Y3657600D02*
D03*
Y10007600D02*
D03*
X12192000Y3657600D02*
D03*
Y10007600D02*
D03*
D27*
X8298610Y5294986D02*
D03*
X12300000Y8200000D02*
D03*
X11600000D02*
D03*
X7323594Y8653463D02*
D03*
X7559727Y7641662D02*
D03*
X9400000Y7700000D02*
D03*
Y8600000D02*
D03*
X7400000Y5700000D02*
D03*
X9282000Y4457930D02*
D03*
X9390785Y5134300D02*
D03*
X8651849Y9673348D02*
D03*
X8950000Y9000000D02*
D03*
X8312151Y6570164D02*
D03*
X8750000Y6300000D02*
D03*
X9567607Y6270891D02*
D03*
X12050000Y9550000D02*
D03*
X10849354Y10370000D02*
D03*
X10217654Y8870000D02*
D03*
X7500000Y6300000D02*
D03*
X9682494Y7605852D02*
D03*
X10007231Y4100000D02*
D03*
X9680893Y3886305D02*
D03*
X8950000Y9900000D02*
D03*
X7650000Y6000000D02*
D03*
X9924716Y4724000D02*
D03*
X9793172Y6524424D02*
D03*
X10200000Y4450000D02*
D03*
X12150000Y9100000D02*
D03*
X10018027Y8222704D02*
D03*
X10250000Y8050000D02*
D03*
X10100000Y7777000D02*
D03*
X10450000Y6900000D02*
D03*
Y4250000D02*
D03*
X9900000Y7400000D02*
D03*
X10400000Y6550000D02*
D03*
X9203354Y6470000D02*
D03*
X9103354Y7520000D02*
D03*
X8553354Y3120000D02*
D03*
X9653354Y9120000D02*
D03*
D28*
X13250000Y10500000D02*
D03*
X13000000Y10000000D02*
D03*
X13250000Y9500000D02*
D03*
Y8500000D02*
D03*
Y7500000D02*
D03*
Y6500000D02*
D03*
X13000000Y4000000D02*
D03*
X13250000Y3500000D02*
D03*
X13000000Y3000000D02*
D03*
X12750000Y10500000D02*
D03*
X12500000Y10000000D02*
D03*
X12750000Y9500000D02*
D03*
X12250000Y10500000D02*
D03*
Y9500000D02*
D03*
X12000000Y7000000D02*
D03*
X12250000Y5500000D02*
D03*
X12000000Y5000000D02*
D03*
X11500000Y7000000D02*
D03*
X11750000Y5500000D02*
D03*
Y4500000D02*
D03*
X11250000Y10500000D02*
D03*
X11000000Y10000000D02*
D03*
X11250000Y9500000D02*
D03*
X11000000Y7000000D02*
D03*
Y6000000D02*
D03*
X11250000Y5500000D02*
D03*
Y4500000D02*
D03*
X10750000Y8500000D02*
D03*
X10500000Y6000000D02*
D03*
X10750000Y4500000D02*
D03*
Y3500000D02*
D03*
X10250000Y6500000D02*
D03*
Y3500000D02*
D03*
X9750000Y10500000D02*
D03*
X9500000Y10000000D02*
D03*
X9750000Y9500000D02*
D03*
Y7500000D02*
D03*
Y5500000D02*
D03*
X9500000Y5000000D02*
D03*
X9750000Y3500000D02*
D03*
X8750000Y9500000D02*
D03*
Y3500000D02*
D03*
X8250000Y10500000D02*
D03*
X8000000Y10000000D02*
D03*
X8250000Y3500000D02*
D03*
X7750000Y10500000D02*
D03*
X7500000Y10000000D02*
D03*
X7750000Y3500000D02*
D03*
X7250000Y10500000D02*
D03*
X7000000Y3000000D02*
D03*
X6750000Y10500000D02*
D03*
X6500000Y10000000D02*
D03*
X6750000Y9500000D02*
D03*
Y3500000D02*
D03*
X6500000Y3000000D02*
D03*
X6000000Y10000000D02*
D03*
Y9000000D02*
D03*
Y8000000D02*
D03*
Y7000000D02*
D03*
X6250000Y6500000D02*
D03*
X6000000Y6000000D02*
D03*
X6250000Y5500000D02*
D03*
X6000000Y5000000D02*
D03*
X6250000Y4500000D02*
D03*
X6000000Y4000000D02*
D03*
X6250000Y3500000D02*
D03*
D29*
X9000000Y5400000D02*
D03*
X8900000Y6450000D02*
D03*
D30*
X8507500Y6415000D02*
D03*
Y6585000D02*
D03*
X7992500Y6415000D02*
D03*
Y6585000D02*
D03*
D31*
X8544830Y4700000D02*
D03*
D32*
X7455170D02*
D03*
D33*
X11350000Y3469320D02*
D03*
D34*
X8994500Y7770510D02*
D03*
X8867500D02*
D03*
X8740500D02*
D03*
X8613500D02*
D03*
X8486500D02*
D03*
X8359500D02*
D03*
X8105500D02*
D03*
Y7229490D02*
D03*
X8232500D02*
D03*
X8359500D02*
D03*
X8486500D02*
D03*
X8613500D02*
D03*
X8740500D02*
D03*
X8867500D02*
D03*
X8994500D02*
D03*
D35*
X8232500Y7770510D02*
D03*
D36*
X8410086Y5850000D02*
D03*
Y5900000D02*
D03*
Y5950000D02*
D03*
Y6000000D02*
D03*
Y6050000D02*
D03*
X7989914D02*
D03*
Y6000000D02*
D03*
Y5950000D02*
D03*
Y5900000D02*
D03*
D37*
Y5850000D02*
D03*
D38*
X7190000Y6450000D02*
D03*
Y6650000D02*
D03*
D39*
X7515000Y6550000D02*
D03*
D40*
X8594830Y4505170D02*
X8669880Y4430120D01*
X9450000Y4367157D02*
Y4700000D01*
X8787038Y4250000D02*
X9332842D01*
X8669880Y4367157D02*
Y4430120D01*
X9332842Y4250000D02*
X9450000Y4367157D01*
X8669880D02*
X8787038Y4250000D01*
X13254988Y5721194D02*
Y5804843D01*
X13137830Y5922000D02*
X13196410Y5863422D01*
X12900000Y5922000D02*
X13137830D01*
X13240230Y3890230D02*
X13254988Y5721194D01*
X13196410Y5863421D02*
X13254988Y5804843D01*
X12300773Y2950773D02*
X13240230Y3890230D01*
X7454090Y3445910D02*
X7949226Y2950773D01*
X7405170Y4400000D02*
X7454090Y4351080D01*
Y3445910D02*
Y4351080D01*
X7949226Y2950773D02*
X12300773D01*
X9750000Y5000000D02*
X10730827D01*
X10909347Y4821480D01*
X11082653D01*
X9450000Y4700000D02*
X9750000Y5000000D01*
D41*
X11082653Y4821480D02*
X11355587Y5094413D01*
X11604652Y5100003D02*
X11605849Y5101200D01*
X11605852D02*
X12426652Y5922000D01*
X12646000D01*
X11604652Y5100000D02*
Y5100003D01*
X11605849Y5101200D02*
X11605852D01*
D42*
X12529793Y7829793D02*
X12530990Y7830990D01*
X12450000Y9100000D02*
X12800000D01*
X12835320Y8181209D02*
X12873209D01*
X12825322Y8171211D02*
X12835320Y8181209D01*
X12584990Y8084990D02*
X12734990D01*
X12821211Y8171211D02*
X12825322D01*
X12734990Y8084990D02*
X12821211Y8171211D01*
X12827322Y7919211D02*
X12835320Y7927209D01*
X12730990Y7830990D02*
X12819211Y7919211D01*
X12530990Y7830990D02*
X12730990D01*
X12835320Y7927209D02*
X12873209D01*
X12819211Y7919211D02*
X12827322D01*
X12550000Y8050000D02*
X12584990Y8084990D01*
X12873209Y8181209D02*
X12900000Y8208000D01*
X12873209Y7927209D02*
X12900000Y7954000D01*
X12696952Y4782990D02*
X12793171Y4879209D01*
X12873209D02*
X12900000Y4906000D01*
X12793171Y4879209D02*
X12873209D01*
X12582990Y4782990D02*
X12696952D01*
X12550000Y4750000D02*
X12582990Y4782990D01*
X12776990Y4528990D02*
X12900000Y4652000D01*
X12776990Y4347957D02*
Y4528990D01*
X12739517Y4310483D02*
X12776990Y4347957D01*
D43*
X6700000Y4398000D02*
D03*
X6446000D02*
D03*
X6700000Y4652000D02*
D03*
X6446000D02*
D03*
X6700000Y4906000D02*
D03*
X6446000D02*
D03*
X6700000Y5160000D02*
D03*
X6446000D02*
D03*
X6700000Y5414000D02*
D03*
X6446000D02*
D03*
X6700000Y5668000D02*
D03*
X6446000D02*
D03*
X6700000Y5922000D02*
D03*
X6446000D02*
D03*
X6700000Y6176000D02*
D03*
X6446000D02*
D03*
X6700000Y6430000D02*
D03*
X6446000D02*
D03*
X6700000Y6684000D02*
D03*
X6446000D02*
D03*
X6700000Y6938000D02*
D03*
X6446000D02*
D03*
X6700000Y7192000D02*
D03*
X6446000D02*
D03*
X6700000Y7446000D02*
D03*
X6446000D02*
D03*
X6700000Y7700000D02*
D03*
X6446000D02*
D03*
X6700000Y7954000D02*
D03*
X6446000D02*
D03*
X6700000Y8208000D02*
D03*
X6446000D02*
D03*
X6700000Y8462000D02*
D03*
X6446000D02*
D03*
X6700000Y8716000D02*
D03*
X6446000D02*
D03*
X6700000Y8970000D02*
D03*
X6446000D02*
D03*
X6700000Y9224000D02*
D03*
X6446000D02*
D03*
X12900000Y4398000D02*
D03*
X12646000D02*
D03*
X12900000Y4652000D02*
D03*
X12646000D02*
D03*
X12900000Y4906000D02*
D03*
X12646000D02*
D03*
X12900000Y5160000D02*
D03*
X12646000D02*
D03*
X12900000Y5414000D02*
D03*
X12646000D02*
D03*
X12900000Y5668000D02*
D03*
X12646000D02*
D03*
X12900000Y5922000D02*
D03*
X12646000D02*
D03*
X12900000Y6176000D02*
D03*
X12646000D02*
D03*
X12900000Y6430000D02*
D03*
X12646000D02*
D03*
X12900000Y6684000D02*
D03*
X12646000D02*
D03*
X12900000Y6938000D02*
D03*
X12646000D02*
D03*
X12900000Y7192000D02*
D03*
X12646000D02*
D03*
X12900000Y7446000D02*
D03*
X12646000D02*
D03*
X12900000Y7700000D02*
D03*
X12646000D02*
D03*
X12900000Y7954000D02*
D03*
X12646000D02*
D03*
X12900000Y8208000D02*
D03*
X12646000D02*
D03*
X12900000Y8462000D02*
D03*
X12646000D02*
D03*
X12900000Y8716000D02*
D03*
X12646000D02*
D03*
X12900000Y8970000D02*
D03*
X12646000D02*
D03*
X12900000Y9224000D02*
D03*
X12646000D02*
D03*
%TF.MD5,2aea3c0b5d394f29e25d666ca1bc893a*%
M02*
