%TF.GenerationSoftware,Altium Limited,Altium Designer,23.3.1 (30)*%
G04 Layer_Color=128*
%FSLAX45Y45*%
%MOMM*%
%TF.SameCoordinates,CA382BF2-D798-45FE-BEC5-AB2A3CF063FF*%
%TF.FilePolarity,Positive*%
%TF.FileFunction,Paste,Bot*%
%TF.Part,Single*%
G01*
G75*
%TA.AperFunction,SMDPad,CuDef*%
%ADD10R,0.80000X1.00000*%
%ADD12R,1.00000X0.80000*%
%ADD13R,1.40000X1.70000*%
%ADD29C,1.50000*%
%ADD30R,1.45000X1.00000*%
%ADD31R,4.50100X7.90000*%
%ADD32R,4.50000X8.05180*%
%ADD33R,10.49020X7.01040*%
%ADD34R,0.53340X1.49860*%
%ADD35O,0.53340X1.49860*%
G04:AMPARAMS|DCode=36|XSize=1.5565mm|YSize=0.35mm|CornerRadius=0.175mm|HoleSize=0mm|Usage=FLASHONLY|Rotation=0.000|XOffset=0mm|YOffset=0mm|HoleType=Round|Shape=RoundedRectangle|*
%AMROUNDEDRECTD36*
21,1,1.55650,0.00000,0,0,0.0*
21,1,1.20651,0.35000,0,0,0.0*
1,1,0.35000,0.60326,0.00000*
1,1,0.35000,-0.60326,0.00000*
1,1,0.35000,-0.60326,0.00000*
1,1,0.35000,0.60326,0.00000*
%
%ADD36ROUNDEDRECTD36*%
%ADD37R,1.55650X0.35000*%
%ADD38R,1.20000X1.20000*%
%ADD39R,1.50000X1.60000*%
D10*
X8574325Y5564874D02*
D03*
X8424325D02*
D03*
D12*
X7200000Y5875000D02*
D03*
Y6025000D02*
D03*
X8950000Y5625000D02*
D03*
Y5775000D02*
D03*
X7400000Y5875000D02*
D03*
Y6025000D02*
D03*
D13*
X7935700Y5550000D02*
D03*
X8164300D02*
D03*
X8085700Y6800000D02*
D03*
X8314300D02*
D03*
D29*
X9000000Y5400000D02*
D03*
X8900000Y6450000D02*
D03*
D30*
X8507500Y6415000D02*
D03*
Y6585000D02*
D03*
X7992500Y6415000D02*
D03*
Y6585000D02*
D03*
D31*
X8544830Y4700000D02*
D03*
D32*
X7455170D02*
D03*
D33*
X11350000Y3469320D02*
D03*
D34*
X8994500Y7770510D02*
D03*
X8867500D02*
D03*
X8740500D02*
D03*
X8613500D02*
D03*
X8486500D02*
D03*
X8359500D02*
D03*
X8105500D02*
D03*
Y7229490D02*
D03*
X8232500D02*
D03*
X8359500D02*
D03*
X8486500D02*
D03*
X8613500D02*
D03*
X8740500D02*
D03*
X8867500D02*
D03*
X8994500D02*
D03*
D35*
X8232500Y7770510D02*
D03*
D36*
X8410086Y5850000D02*
D03*
Y5900000D02*
D03*
Y5950000D02*
D03*
Y6000000D02*
D03*
Y6050000D02*
D03*
X7989914D02*
D03*
Y6000000D02*
D03*
Y5950000D02*
D03*
Y5900000D02*
D03*
D37*
Y5850000D02*
D03*
D38*
X7190000Y6450000D02*
D03*
Y6650000D02*
D03*
D39*
X7515000Y6550000D02*
D03*
%TF.MD5,3d3377415b69c6e9a37c39f6c2d83230*%
M02*
