%TF.GenerationSoftware,Altium Limited,Altium Designer,23.3.1 (30)*%
G04 Layer_Physical_Order=2*
G04 Layer_Color=36540*
%FSLAX45Y45*%
%MOMM*%
%TF.SameCoordinates,CA382BF2-D798-45FE-BEC5-AB2A3CF063FF*%
%TF.FilePolarity,Positive*%
%TF.FileFunction,Copper,L2,Inr,Signal*%
%TF.Part,Single*%
G01*
G75*
%TA.AperFunction,ComponentPad*%
%ADD23C,1.70000*%
%ADD24C,1.52400*%
%TA.AperFunction,ViaPad*%
%ADD26C,4.00000*%
%ADD27C,0.70000*%
%ADD28C,0.80000*%
G36*
X13375214Y11164721D02*
X13421501Y11145606D01*
X13463164Y11117820D01*
X13498601Y11082434D01*
X13526445Y11040810D01*
X13545625Y10994550D01*
X13555405Y10945435D01*
X13555405Y10920395D01*
X13555405D01*
X13555405Y10920394D01*
X13555405Y3078395D01*
X13555405Y3053378D01*
X13545644Y3004306D01*
X13526495Y2958081D01*
X13498698Y2916479D01*
X13463319Y2881100D01*
X13421719Y2853303D01*
X13375493Y2834156D01*
X13326421Y2824395D01*
X13301404Y2824395D01*
X6179605D01*
X6154588Y2824395D01*
X6105516Y2834156D01*
X6059291Y2853303D01*
X6017690Y2881100D01*
X5982310Y2916479D01*
X5954513Y2958081D01*
X5935366Y3004306D01*
X5925605Y3053378D01*
X5925605Y3078395D01*
Y10920395D01*
X5925605Y10945412D01*
X5935366Y10994484D01*
X5954513Y11040709D01*
X5982310Y11082310D01*
X6017690Y11117689D01*
X6059291Y11145486D01*
X6105516Y11164633D01*
X6154588Y11174394D01*
X6179605D01*
X6179605Y11174395D01*
X13301045Y11174394D01*
X13326085Y11174430D01*
X13375214Y11164721D01*
D02*
G37*
%LPC*%
G36*
X10467889Y10605400D02*
X10438820D01*
X10410741Y10597876D01*
X10385567Y10583342D01*
X10365012Y10562787D01*
X10350478Y10537613D01*
X10342954Y10509534D01*
Y10480466D01*
X10350478Y10452387D01*
X10365012Y10427213D01*
X10385567Y10406658D01*
X10410741Y10392124D01*
X10438820Y10384600D01*
X10467889D01*
X10495967Y10392124D01*
X10521142Y10406658D01*
X10541696Y10427213D01*
X10556231Y10452387D01*
X10563754Y10480466D01*
Y10509534D01*
X10556231Y10537613D01*
X10541696Y10562787D01*
X10521142Y10583342D01*
X10495967Y10597876D01*
X10467889Y10605400D01*
D02*
G37*
G36*
X10213889D02*
X10184820D01*
X10156741Y10597876D01*
X10131567Y10583342D01*
X10111012Y10562787D01*
X10096478Y10537613D01*
X10088954Y10509534D01*
Y10480466D01*
X10096478Y10452387D01*
X10111012Y10427213D01*
X10131567Y10406658D01*
X10156741Y10392124D01*
X10184820Y10384600D01*
X10213889D01*
X10241967Y10392124D01*
X10267142Y10406658D01*
X10287696Y10427213D01*
X10302231Y10452387D01*
X10309754Y10480466D01*
Y10509534D01*
X10302231Y10537613D01*
X10287696Y10562787D01*
X10267142Y10583342D01*
X10241967Y10597876D01*
X10213889Y10605400D01*
D02*
G37*
G36*
X9959889D02*
X9930820D01*
X9902741Y10597876D01*
X9877567Y10583342D01*
X9857012Y10562787D01*
X9842478Y10537613D01*
X9834954Y10509534D01*
Y10480466D01*
X9842478Y10452387D01*
X9857012Y10427213D01*
X9877567Y10406658D01*
X9902741Y10392124D01*
X9930820Y10384600D01*
X9959889D01*
X9987967Y10392124D01*
X10013142Y10406658D01*
X10033696Y10427213D01*
X10048231Y10452387D01*
X10055754Y10480466D01*
Y10509534D01*
X10048231Y10537613D01*
X10033696Y10562787D01*
X10013142Y10583342D01*
X9987967Y10597876D01*
X9959889Y10605400D01*
D02*
G37*
G36*
X10861368Y10430400D02*
X10837340D01*
X10815140Y10421205D01*
X10798150Y10404214D01*
X10788954Y10382014D01*
Y10357986D01*
X10798150Y10335786D01*
X10815140Y10318795D01*
X10837340Y10309600D01*
X10861368D01*
X10883568Y10318795D01*
X10900559Y10335786D01*
X10909754Y10357986D01*
Y10382014D01*
X10900559Y10404214D01*
X10883568Y10421205D01*
X10861368Y10430400D01*
D02*
G37*
G36*
X8962014Y9960400D02*
X8937986D01*
X8915786Y9951205D01*
X8898795Y9934214D01*
X8889600Y9912014D01*
Y9887986D01*
X8898795Y9865786D01*
X8915786Y9848795D01*
X8937986Y9839600D01*
X8962014D01*
X8984214Y9848795D01*
X9001205Y9865786D01*
X9010400Y9887986D01*
Y9912014D01*
X9001205Y9934214D01*
X8984214Y9951205D01*
X8962014Y9960400D01*
D02*
G37*
G36*
X8663863Y9733748D02*
X8639834D01*
X8617635Y9724553D01*
X8600644Y9707562D01*
X8591449Y9685362D01*
Y9661334D01*
X8600644Y9639134D01*
X8617635Y9622144D01*
X8639834Y9612948D01*
X8663863D01*
X8686062Y9622144D01*
X8703053Y9639134D01*
X8712249Y9661334D01*
Y9685362D01*
X8703053Y9707562D01*
X8686062Y9724553D01*
X8663863Y9733748D01*
D02*
G37*
G36*
X12062014Y9610400D02*
X12037986D01*
X12015786Y9601205D01*
X11998795Y9584214D01*
X11989600Y9562014D01*
Y9537986D01*
X11998795Y9515786D01*
X12015786Y9498795D01*
X12037986Y9489600D01*
X12062014D01*
X12084214Y9498795D01*
X12101205Y9515786D01*
X12110400Y9537986D01*
Y9562014D01*
X12101205Y9584214D01*
X12084214Y9601205D01*
X12062014Y9610400D01*
D02*
G37*
G36*
X12913376Y9325600D02*
X12886624D01*
X12860783Y9318676D01*
X12837616Y9305300D01*
X12818700Y9286384D01*
X12805324Y9263216D01*
X12798400Y9237376D01*
Y9210624D01*
X12805324Y9184784D01*
X12818700Y9161616D01*
X12837616Y9142700D01*
X12860783Y9129324D01*
X12886624Y9122400D01*
X12913376D01*
X12939217Y9129324D01*
X12962384Y9142700D01*
X12981300Y9161616D01*
X12994676Y9184784D01*
X13001601Y9210624D01*
Y9237376D01*
X12994676Y9263216D01*
X12981300Y9286384D01*
X12962384Y9305300D01*
X12939217Y9318676D01*
X12913376Y9325600D01*
D02*
G37*
G36*
X12659376D02*
X12632624D01*
X12606784Y9318676D01*
X12583616Y9305300D01*
X12564700Y9286384D01*
X12551324Y9263216D01*
X12544400Y9237376D01*
Y9210624D01*
X12551324Y9184784D01*
X12564700Y9161616D01*
X12583616Y9142700D01*
X12606784Y9129324D01*
X12632624Y9122400D01*
X12659376D01*
X12685216Y9129324D01*
X12708384Y9142700D01*
X12727300Y9161616D01*
X12740676Y9184784D01*
X12747600Y9210624D01*
Y9237376D01*
X12740676Y9263216D01*
X12727300Y9286384D01*
X12708384Y9305300D01*
X12685216Y9318676D01*
X12659376Y9325600D01*
D02*
G37*
G36*
X6713376D02*
X6686624D01*
X6660784Y9318676D01*
X6637616Y9305300D01*
X6618700Y9286384D01*
X6605324Y9263216D01*
X6598400Y9237376D01*
Y9210624D01*
X6605324Y9184784D01*
X6618700Y9161616D01*
X6637616Y9142700D01*
X6660784Y9129324D01*
X6686624Y9122400D01*
X6713376D01*
X6739216Y9129324D01*
X6762384Y9142700D01*
X6781300Y9161616D01*
X6794676Y9184784D01*
X6801600Y9210624D01*
Y9237376D01*
X6794676Y9263216D01*
X6781300Y9286384D01*
X6762384Y9305300D01*
X6739216Y9318676D01*
X6713376Y9325600D01*
D02*
G37*
G36*
X6459376D02*
X6432624D01*
X6406784Y9318676D01*
X6383616Y9305300D01*
X6364700Y9286384D01*
X6351324Y9263216D01*
X6344400Y9237376D01*
Y9210624D01*
X6351324Y9184784D01*
X6364700Y9161616D01*
X6383616Y9142700D01*
X6406784Y9129324D01*
X6432624Y9122400D01*
X6459376D01*
X6485216Y9129324D01*
X6508384Y9142700D01*
X6527300Y9161616D01*
X6540676Y9184784D01*
X6547600Y9210624D01*
Y9237376D01*
X6540676Y9263216D01*
X6527300Y9286384D01*
X6508384Y9305300D01*
X6485216Y9318676D01*
X6459376Y9325600D01*
D02*
G37*
G36*
X9665369Y9180400D02*
X9641340D01*
X9619141Y9171205D01*
X9602150Y9154214D01*
X9592954Y9132014D01*
Y9107986D01*
X9602150Y9085786D01*
X9619141Y9068795D01*
X9641340Y9059600D01*
X9665369D01*
X9687568Y9068795D01*
X9704559Y9085786D01*
X9713754Y9107986D01*
Y9132014D01*
X9704559Y9154214D01*
X9687568Y9171205D01*
X9665369Y9180400D01*
D02*
G37*
G36*
X12162014Y9160400D02*
X12137986D01*
X12115786Y9151205D01*
X12098795Y9134214D01*
X12089600Y9112014D01*
Y9087986D01*
X12098795Y9065786D01*
X12115786Y9048795D01*
X12137986Y9039600D01*
X12162014D01*
X12184214Y9048795D01*
X12201205Y9065786D01*
X12210400Y9087986D01*
Y9112014D01*
X12201205Y9134214D01*
X12184214Y9151205D01*
X12162014Y9160400D01*
D02*
G37*
G36*
X8962014Y9060400D02*
X8937986D01*
X8915786Y9051205D01*
X8898795Y9034214D01*
X8889600Y9012014D01*
Y8987986D01*
X8898795Y8965786D01*
X8915786Y8948795D01*
X8937986Y8939600D01*
X8962014D01*
X8984214Y8948795D01*
X9001205Y8965786D01*
X9010400Y8987986D01*
Y9012014D01*
X9001205Y9034214D01*
X8984214Y9051205D01*
X8962014Y9060400D01*
D02*
G37*
G36*
X12913376Y9071600D02*
X12886624D01*
X12860783Y9064676D01*
X12837616Y9051300D01*
X12818700Y9032384D01*
X12805324Y9009216D01*
X12798400Y8983376D01*
Y8956624D01*
X12805324Y8930784D01*
X12818700Y8907616D01*
X12837616Y8888700D01*
X12860783Y8875324D01*
X12886624Y8868400D01*
X12913376D01*
X12939217Y8875324D01*
X12962384Y8888700D01*
X12981300Y8907616D01*
X12994676Y8930784D01*
X13001601Y8956624D01*
Y8983376D01*
X12994676Y9009216D01*
X12981300Y9032384D01*
X12962384Y9051300D01*
X12939217Y9064676D01*
X12913376Y9071600D01*
D02*
G37*
G36*
X12659376D02*
X12632624D01*
X12606784Y9064676D01*
X12583616Y9051300D01*
X12564700Y9032384D01*
X12551324Y9009216D01*
X12544400Y8983376D01*
Y8956624D01*
X12551324Y8930784D01*
X12564700Y8907616D01*
X12583616Y8888700D01*
X12606784Y8875324D01*
X12632624Y8868400D01*
X12659376D01*
X12685216Y8875324D01*
X12708384Y8888700D01*
X12727300Y8907616D01*
X12740676Y8930784D01*
X12747600Y8956624D01*
Y8983376D01*
X12740676Y9009216D01*
X12727300Y9032384D01*
X12708384Y9051300D01*
X12685216Y9064676D01*
X12659376Y9071600D01*
D02*
G37*
G36*
X6713376D02*
X6686624D01*
X6660784Y9064676D01*
X6637616Y9051300D01*
X6618700Y9032384D01*
X6605324Y9009216D01*
X6598400Y8983376D01*
Y8956624D01*
X6605324Y8930784D01*
X6618700Y8907616D01*
X6637616Y8888700D01*
X6660784Y8875324D01*
X6686624Y8868400D01*
X6713376D01*
X6739216Y8875324D01*
X6762384Y8888700D01*
X6781300Y8907616D01*
X6794676Y8930784D01*
X6801600Y8956624D01*
Y8983376D01*
X6794676Y9009216D01*
X6781300Y9032384D01*
X6762384Y9051300D01*
X6739216Y9064676D01*
X6713376Y9071600D01*
D02*
G37*
G36*
X6459376D02*
X6432624D01*
X6406784Y9064676D01*
X6383616Y9051300D01*
X6364700Y9032384D01*
X6351324Y9009216D01*
X6344400Y8983376D01*
Y8956624D01*
X6351324Y8930784D01*
X6364700Y8907616D01*
X6383616Y8888700D01*
X6406784Y8875324D01*
X6432624Y8868400D01*
X6459376D01*
X6485216Y8875324D01*
X6508384Y8888700D01*
X6527300Y8907616D01*
X6540676Y8930784D01*
X6547600Y8956624D01*
Y8983376D01*
X6540676Y9009216D01*
X6527300Y9032384D01*
X6508384Y9051300D01*
X6485216Y9064676D01*
X6459376Y9071600D01*
D02*
G37*
G36*
X12659376Y8817600D02*
X12632624D01*
X12606784Y8810676D01*
X12583616Y8797300D01*
X12564700Y8778384D01*
X12551324Y8755216D01*
X12544400Y8729376D01*
Y8702624D01*
X12551324Y8676784D01*
X12564700Y8653616D01*
X12583616Y8634700D01*
X12606784Y8621324D01*
X12632624Y8614400D01*
X12659376D01*
X12685216Y8621324D01*
X12708384Y8634700D01*
X12727300Y8653616D01*
X12740676Y8676784D01*
X12747600Y8702624D01*
Y8729376D01*
X12740676Y8755216D01*
X12727300Y8778384D01*
X12708384Y8797300D01*
X12685216Y8810676D01*
X12659376Y8817600D01*
D02*
G37*
G36*
X6713376D02*
X6686624D01*
X6660784Y8810676D01*
X6637616Y8797300D01*
X6618700Y8778384D01*
X6605324Y8755216D01*
X6598400Y8729376D01*
Y8702624D01*
X6605324Y8676784D01*
X6618700Y8653616D01*
X6637616Y8634700D01*
X6660784Y8621324D01*
X6686624Y8614400D01*
X6713376D01*
X6739216Y8621324D01*
X6762384Y8634700D01*
X6781300Y8653616D01*
X6794676Y8676784D01*
X6801600Y8702624D01*
Y8729376D01*
X6794676Y8755216D01*
X6781300Y8778384D01*
X6762384Y8797300D01*
X6739216Y8810676D01*
X6713376Y8817600D01*
D02*
G37*
G36*
X6459376D02*
X6432624D01*
X6406784Y8810676D01*
X6383616Y8797300D01*
X6364700Y8778384D01*
X6351324Y8755216D01*
X6344400Y8729376D01*
Y8702624D01*
X6351324Y8676784D01*
X6364700Y8653616D01*
X6383616Y8634700D01*
X6406784Y8621324D01*
X6432624Y8614400D01*
X6459376D01*
X6485216Y8621324D01*
X6508384Y8634700D01*
X6527300Y8653616D01*
X6540676Y8676784D01*
X6547600Y8702624D01*
Y8729376D01*
X6540676Y8755216D01*
X6527300Y8778384D01*
X6508384Y8797300D01*
X6485216Y8810676D01*
X6459376Y8817600D01*
D02*
G37*
G36*
X12913376Y8563600D02*
X12886624D01*
X12860783Y8556676D01*
X12837616Y8543300D01*
X12818700Y8524384D01*
X12805324Y8501216D01*
X12798400Y8475376D01*
Y8448624D01*
X12805324Y8422784D01*
X12818700Y8399616D01*
X12837616Y8380700D01*
X12860783Y8367324D01*
X12886624Y8360400D01*
X12913376D01*
X12939217Y8367324D01*
X12962384Y8380700D01*
X12981300Y8399616D01*
X12994676Y8422784D01*
X13001601Y8448624D01*
Y8475376D01*
X12994676Y8501216D01*
X12981300Y8524384D01*
X12962384Y8543300D01*
X12939217Y8556676D01*
X12913376Y8563600D01*
D02*
G37*
G36*
X12659376D02*
X12632624D01*
X12606784Y8556676D01*
X12583616Y8543300D01*
X12564700Y8524384D01*
X12551324Y8501216D01*
X12544400Y8475376D01*
Y8448624D01*
X12551324Y8422784D01*
X12564700Y8399616D01*
X12583616Y8380700D01*
X12606784Y8367324D01*
X12632624Y8360400D01*
X12659376D01*
X12685216Y8367324D01*
X12708384Y8380700D01*
X12727300Y8399616D01*
X12740676Y8422784D01*
X12747600Y8448624D01*
Y8475376D01*
X12740676Y8501216D01*
X12727300Y8524384D01*
X12708384Y8543300D01*
X12685216Y8556676D01*
X12659376Y8563600D01*
D02*
G37*
G36*
X6713376D02*
X6686624D01*
X6660784Y8556676D01*
X6637616Y8543300D01*
X6618700Y8524384D01*
X6605324Y8501216D01*
X6598400Y8475376D01*
Y8448624D01*
X6605324Y8422784D01*
X6618700Y8399616D01*
X6637616Y8380700D01*
X6660784Y8367324D01*
X6686624Y8360400D01*
X6713376D01*
X6739216Y8367324D01*
X6762384Y8380700D01*
X6781300Y8399616D01*
X6794676Y8422784D01*
X6801600Y8448624D01*
Y8475376D01*
X6794676Y8501216D01*
X6781300Y8524384D01*
X6762384Y8543300D01*
X6739216Y8556676D01*
X6713376Y8563600D01*
D02*
G37*
G36*
X6459376D02*
X6432624D01*
X6406784Y8556676D01*
X6383616Y8543300D01*
X6364700Y8524384D01*
X6351324Y8501216D01*
X6344400Y8475376D01*
Y8448624D01*
X6351324Y8422784D01*
X6364700Y8399616D01*
X6383616Y8380700D01*
X6406784Y8367324D01*
X6432624Y8360400D01*
X6459376D01*
X6485216Y8367324D01*
X6508384Y8380700D01*
X6527300Y8399616D01*
X6540676Y8422784D01*
X6547600Y8448624D01*
Y8475376D01*
X6540676Y8501216D01*
X6527300Y8524384D01*
X6508384Y8543300D01*
X6485216Y8556676D01*
X6459376Y8563600D01*
D02*
G37*
G36*
X10030041Y8283104D02*
X10006013D01*
X9983813Y8273909D01*
X9966823Y8256918D01*
X9957627Y8234718D01*
Y8210690D01*
X9966823Y8188490D01*
X9983813Y8171499D01*
X10006013Y8162304D01*
X10030041D01*
X10052241Y8171499D01*
X10069232Y8188490D01*
X10078427Y8210690D01*
Y8234718D01*
X10069232Y8256918D01*
X10052241Y8273909D01*
X10030041Y8283104D01*
D02*
G37*
G36*
X12913376Y8309600D02*
X12886624D01*
X12860783Y8302676D01*
X12837616Y8289300D01*
X12818700Y8270384D01*
X12805324Y8247216D01*
X12798400Y8221376D01*
Y8194624D01*
X12805324Y8168784D01*
X12818700Y8145616D01*
X12837616Y8126700D01*
X12860783Y8113324D01*
X12886624Y8106400D01*
X12913376D01*
X12939217Y8113324D01*
X12962384Y8126700D01*
X12981300Y8145616D01*
X12994676Y8168784D01*
X13001601Y8194624D01*
Y8221376D01*
X12994676Y8247216D01*
X12981300Y8270384D01*
X12962384Y8289300D01*
X12939217Y8302676D01*
X12913376Y8309600D01*
D02*
G37*
G36*
X6713376D02*
X6686624D01*
X6660784Y8302676D01*
X6637616Y8289300D01*
X6618700Y8270384D01*
X6605324Y8247216D01*
X6598400Y8221376D01*
Y8194624D01*
X6605324Y8168784D01*
X6618700Y8145616D01*
X6637616Y8126700D01*
X6660784Y8113324D01*
X6686624Y8106400D01*
X6713376D01*
X6739216Y8113324D01*
X6762384Y8126700D01*
X6781300Y8145616D01*
X6794676Y8168784D01*
X6801600Y8194624D01*
Y8221376D01*
X6794676Y8247216D01*
X6781300Y8270384D01*
X6762384Y8289300D01*
X6739216Y8302676D01*
X6713376Y8309600D01*
D02*
G37*
G36*
X6459376D02*
X6432624D01*
X6406784Y8302676D01*
X6383616Y8289300D01*
X6364700Y8270384D01*
X6351324Y8247216D01*
X6344400Y8221376D01*
Y8194624D01*
X6351324Y8168784D01*
X6364700Y8145616D01*
X6383616Y8126700D01*
X6406784Y8113324D01*
X6432624Y8106400D01*
X6459376D01*
X6485216Y8113324D01*
X6508384Y8126700D01*
X6527300Y8145616D01*
X6540676Y8168784D01*
X6547600Y8194624D01*
Y8221376D01*
X6540676Y8247216D01*
X6527300Y8270384D01*
X6508384Y8289300D01*
X6485216Y8302676D01*
X6459376Y8309600D01*
D02*
G37*
G36*
X10262014Y8110400D02*
X10237986D01*
X10215786Y8101205D01*
X10198795Y8084214D01*
X10189600Y8062014D01*
Y8037986D01*
X10198795Y8015786D01*
X10215786Y7998795D01*
X10237986Y7989600D01*
X10262014D01*
X10284214Y7998795D01*
X10301205Y8015786D01*
X10310400Y8037986D01*
Y8062014D01*
X10301205Y8084214D01*
X10284214Y8101205D01*
X10262014Y8110400D01*
D02*
G37*
G36*
X12913376Y8055600D02*
X12886624D01*
X12860783Y8048676D01*
X12837616Y8035300D01*
X12818700Y8016384D01*
X12805324Y7993216D01*
X12798400Y7967376D01*
Y7940624D01*
X12805324Y7914784D01*
X12818700Y7891616D01*
X12837616Y7872700D01*
X12860783Y7859324D01*
X12886624Y7852400D01*
X12913376D01*
X12939217Y7859324D01*
X12962384Y7872700D01*
X12981300Y7891616D01*
X12994676Y7914784D01*
X13001601Y7940624D01*
Y7967376D01*
X12994676Y7993216D01*
X12981300Y8016384D01*
X12962384Y8035300D01*
X12939217Y8048676D01*
X12913376Y8055600D01*
D02*
G37*
G36*
X12659376D02*
X12632624D01*
X12606784Y8048676D01*
X12583616Y8035300D01*
X12564700Y8016384D01*
X12551324Y7993216D01*
X12544400Y7967376D01*
Y7940624D01*
X12551324Y7914784D01*
X12564700Y7891616D01*
X12583616Y7872700D01*
X12606784Y7859324D01*
X12632624Y7852400D01*
X12659376D01*
X12685216Y7859324D01*
X12708384Y7872700D01*
X12727300Y7891616D01*
X12740676Y7914784D01*
X12747600Y7940624D01*
Y7967376D01*
X12740676Y7993216D01*
X12727300Y8016384D01*
X12708384Y8035300D01*
X12685216Y8048676D01*
X12659376Y8055600D01*
D02*
G37*
G36*
X6713376D02*
X6686624D01*
X6660784Y8048676D01*
X6637616Y8035300D01*
X6618700Y8016384D01*
X6605324Y7993216D01*
X6598400Y7967376D01*
Y7940624D01*
X6605324Y7914784D01*
X6618700Y7891616D01*
X6637616Y7872700D01*
X6660784Y7859324D01*
X6686624Y7852400D01*
X6713376D01*
X6739216Y7859324D01*
X6762384Y7872700D01*
X6781300Y7891616D01*
X6794676Y7914784D01*
X6801600Y7940624D01*
Y7967376D01*
X6794676Y7993216D01*
X6781300Y8016384D01*
X6762384Y8035300D01*
X6739216Y8048676D01*
X6713376Y8055600D01*
D02*
G37*
G36*
X6459376D02*
X6432624D01*
X6406784Y8048676D01*
X6383616Y8035300D01*
X6364700Y8016384D01*
X6351324Y7993216D01*
X6344400Y7967376D01*
Y7940624D01*
X6351324Y7914784D01*
X6364700Y7891616D01*
X6383616Y7872700D01*
X6406784Y7859324D01*
X6432624Y7852400D01*
X6459376D01*
X6485216Y7859324D01*
X6508384Y7872700D01*
X6527300Y7891616D01*
X6540676Y7914784D01*
X6547600Y7940624D01*
Y7967376D01*
X6540676Y7993216D01*
X6527300Y8016384D01*
X6508384Y8035300D01*
X6485216Y8048676D01*
X6459376Y8055600D01*
D02*
G37*
G36*
X10112014Y7837400D02*
X10087986D01*
X10065786Y7828205D01*
X10048795Y7811214D01*
X10039600Y7789014D01*
Y7764986D01*
X10048795Y7742786D01*
X10065786Y7725796D01*
X10087986Y7716600D01*
X10112014D01*
X10134214Y7725796D01*
X10151205Y7742786D01*
X10160400Y7764986D01*
Y7789014D01*
X10151205Y7811214D01*
X10134214Y7828205D01*
X10112014Y7837400D01*
D02*
G37*
G36*
X12659376Y7801600D02*
X12632624D01*
X12606784Y7794676D01*
X12583616Y7781300D01*
X12564700Y7762384D01*
X12551324Y7739216D01*
X12544400Y7713376D01*
Y7686624D01*
X12551324Y7660784D01*
X12564700Y7637616D01*
X12583616Y7618700D01*
X12606784Y7605324D01*
X12632624Y7598400D01*
X12659376D01*
X12685216Y7605324D01*
X12708384Y7618700D01*
X12727300Y7637616D01*
X12740676Y7660784D01*
X12747600Y7686624D01*
Y7713376D01*
X12740676Y7739216D01*
X12727300Y7762384D01*
X12708384Y7781300D01*
X12685216Y7794676D01*
X12659376Y7801600D01*
D02*
G37*
G36*
X6713376D02*
X6686624D01*
X6660784Y7794676D01*
X6637616Y7781300D01*
X6618700Y7762384D01*
X6605324Y7739216D01*
X6598400Y7713376D01*
Y7686624D01*
X6605324Y7660784D01*
X6618700Y7637616D01*
X6637616Y7618700D01*
X6660784Y7605324D01*
X6686624Y7598400D01*
X6713376D01*
X6739216Y7605324D01*
X6762384Y7618700D01*
X6781300Y7637616D01*
X6794676Y7660784D01*
X6801600Y7686624D01*
Y7713376D01*
X6794676Y7739216D01*
X6781300Y7762384D01*
X6762384Y7781300D01*
X6739216Y7794676D01*
X6713376Y7801600D01*
D02*
G37*
G36*
X6459376D02*
X6432624D01*
X6406784Y7794676D01*
X6383616Y7781300D01*
X6364700Y7762384D01*
X6351324Y7739216D01*
X6344400Y7713376D01*
Y7686624D01*
X6351324Y7660784D01*
X6364700Y7637616D01*
X6383616Y7618700D01*
X6406784Y7605324D01*
X6432624Y7598400D01*
X6459376D01*
X6485216Y7605324D01*
X6508384Y7618700D01*
X6527300Y7637616D01*
X6540676Y7660784D01*
X6547600Y7686624D01*
Y7713376D01*
X6540676Y7739216D01*
X6527300Y7762384D01*
X6508384Y7781300D01*
X6485216Y7794676D01*
X6459376Y7801600D01*
D02*
G37*
G36*
X9115368Y7580400D02*
X9091340D01*
X9069140Y7571205D01*
X9052150Y7554214D01*
X9042954Y7532014D01*
Y7507986D01*
X9052150Y7485786D01*
X9069140Y7468795D01*
X9091340Y7459600D01*
X9115368D01*
X9137568Y7468795D01*
X9154559Y7485786D01*
X9163754Y7507986D01*
Y7532014D01*
X9154559Y7554214D01*
X9137568Y7571205D01*
X9115368Y7580400D01*
D02*
G37*
G36*
X12913376Y7547600D02*
X12886624D01*
X12860783Y7540676D01*
X12837616Y7527300D01*
X12818700Y7508384D01*
X12805324Y7485216D01*
X12798400Y7459376D01*
Y7432624D01*
X12805324Y7406784D01*
X12818700Y7383616D01*
X12837616Y7364700D01*
X12860783Y7351324D01*
X12886624Y7344400D01*
X12913376D01*
X12939217Y7351324D01*
X12962384Y7364700D01*
X12981300Y7383616D01*
X12994676Y7406784D01*
X13001601Y7432624D01*
Y7459376D01*
X12994676Y7485216D01*
X12981300Y7508384D01*
X12962384Y7527300D01*
X12939217Y7540676D01*
X12913376Y7547600D01*
D02*
G37*
G36*
X12659376D02*
X12632624D01*
X12606784Y7540676D01*
X12583616Y7527300D01*
X12564700Y7508384D01*
X12551324Y7485216D01*
X12544400Y7459376D01*
Y7432624D01*
X12551324Y7406784D01*
X12564700Y7383616D01*
X12583616Y7364700D01*
X12606784Y7351324D01*
X12632624Y7344400D01*
X12659376D01*
X12685216Y7351324D01*
X12708384Y7364700D01*
X12727300Y7383616D01*
X12740676Y7406784D01*
X12747600Y7432624D01*
Y7459376D01*
X12740676Y7485216D01*
X12727300Y7508384D01*
X12708384Y7527300D01*
X12685216Y7540676D01*
X12659376Y7547600D01*
D02*
G37*
G36*
X6713376D02*
X6686624D01*
X6660784Y7540676D01*
X6637616Y7527300D01*
X6618700Y7508384D01*
X6605324Y7485216D01*
X6598400Y7459376D01*
Y7432624D01*
X6605324Y7406784D01*
X6618700Y7383616D01*
X6637616Y7364700D01*
X6660784Y7351324D01*
X6686624Y7344400D01*
X6713376D01*
X6739216Y7351324D01*
X6762384Y7364700D01*
X6781300Y7383616D01*
X6794676Y7406784D01*
X6801600Y7432624D01*
Y7459376D01*
X6794676Y7485216D01*
X6781300Y7508384D01*
X6762384Y7527300D01*
X6739216Y7540676D01*
X6713376Y7547600D01*
D02*
G37*
G36*
X6459376D02*
X6432624D01*
X6406784Y7540676D01*
X6383616Y7527300D01*
X6364700Y7508384D01*
X6351324Y7485216D01*
X6344400Y7459376D01*
Y7432624D01*
X6351324Y7406784D01*
X6364700Y7383616D01*
X6383616Y7364700D01*
X6406784Y7351324D01*
X6432624Y7344400D01*
X6459376D01*
X6485216Y7351324D01*
X6508384Y7364700D01*
X6527300Y7383616D01*
X6540676Y7406784D01*
X6547600Y7432624D01*
Y7459376D01*
X6540676Y7485216D01*
X6527300Y7508384D01*
X6508384Y7527300D01*
X6485216Y7540676D01*
X6459376Y7547600D01*
D02*
G37*
G36*
X9912014Y7460400D02*
X9887986D01*
X9865786Y7451205D01*
X9848795Y7434214D01*
X9839600Y7412014D01*
Y7387986D01*
X9848795Y7365786D01*
X9865786Y7348795D01*
X9887986Y7339600D01*
X9912014D01*
X9934214Y7348795D01*
X9951205Y7365786D01*
X9960400Y7387986D01*
Y7412014D01*
X9951205Y7434214D01*
X9934214Y7451205D01*
X9912014Y7460400D01*
D02*
G37*
G36*
X12913376Y7293600D02*
X12886624D01*
X12860783Y7286676D01*
X12837616Y7273300D01*
X12818700Y7254384D01*
X12805324Y7231216D01*
X12798400Y7205376D01*
Y7178624D01*
X12805324Y7152784D01*
X12818700Y7129616D01*
X12837616Y7110700D01*
X12860783Y7097324D01*
X12886624Y7090400D01*
X12913376D01*
X12939217Y7097324D01*
X12962384Y7110700D01*
X12981300Y7129616D01*
X12994676Y7152784D01*
X13001601Y7178624D01*
Y7205376D01*
X12994676Y7231216D01*
X12981300Y7254384D01*
X12962384Y7273300D01*
X12939217Y7286676D01*
X12913376Y7293600D01*
D02*
G37*
G36*
X12659376D02*
X12632624D01*
X12606784Y7286676D01*
X12583616Y7273300D01*
X12564700Y7254384D01*
X12551324Y7231216D01*
X12544400Y7205376D01*
Y7178624D01*
X12551324Y7152784D01*
X12564700Y7129616D01*
X12583616Y7110700D01*
X12606784Y7097324D01*
X12632624Y7090400D01*
X12659376D01*
X12685216Y7097324D01*
X12708384Y7110700D01*
X12727300Y7129616D01*
X12740676Y7152784D01*
X12747600Y7178624D01*
Y7205376D01*
X12740676Y7231216D01*
X12727300Y7254384D01*
X12708384Y7273300D01*
X12685216Y7286676D01*
X12659376Y7293600D01*
D02*
G37*
G36*
X6713376D02*
X6686624D01*
X6660784Y7286676D01*
X6637616Y7273300D01*
X6618700Y7254384D01*
X6605324Y7231216D01*
X6598400Y7205376D01*
Y7178624D01*
X6605324Y7152784D01*
X6618700Y7129616D01*
X6637616Y7110700D01*
X6660784Y7097324D01*
X6686624Y7090400D01*
X6713376D01*
X6739216Y7097324D01*
X6762384Y7110700D01*
X6781300Y7129616D01*
X6794676Y7152784D01*
X6801600Y7178624D01*
Y7205376D01*
X6794676Y7231216D01*
X6781300Y7254384D01*
X6762384Y7273300D01*
X6739216Y7286676D01*
X6713376Y7293600D01*
D02*
G37*
G36*
X6459376D02*
X6432624D01*
X6406784Y7286676D01*
X6383616Y7273300D01*
X6364700Y7254384D01*
X6351324Y7231216D01*
X6344400Y7205376D01*
Y7178624D01*
X6351324Y7152784D01*
X6364700Y7129616D01*
X6383616Y7110700D01*
X6406784Y7097324D01*
X6432624Y7090400D01*
X6459376D01*
X6485216Y7097324D01*
X6508384Y7110700D01*
X6527300Y7129616D01*
X6540676Y7152784D01*
X6547600Y7178624D01*
Y7205376D01*
X6540676Y7231216D01*
X6527300Y7254384D01*
X6508384Y7273300D01*
X6485216Y7286676D01*
X6459376Y7293600D01*
D02*
G37*
G36*
X10462014Y6960400D02*
X10437986D01*
X10415786Y6951205D01*
X10398795Y6934214D01*
X10389600Y6912014D01*
Y6887986D01*
X10398795Y6865786D01*
X10415786Y6848795D01*
X10437986Y6839600D01*
X10462014D01*
X10484214Y6848795D01*
X10501205Y6865786D01*
X10510400Y6887986D01*
Y6912014D01*
X10501205Y6934214D01*
X10484214Y6951205D01*
X10462014Y6960400D01*
D02*
G37*
G36*
X12659376Y7039600D02*
X12632624D01*
X12606784Y7032676D01*
X12583616Y7019300D01*
X12564700Y7000384D01*
X12551324Y6977216D01*
X12544400Y6951376D01*
Y6924624D01*
X12551324Y6898784D01*
X12564700Y6875616D01*
X12583616Y6856700D01*
X12606784Y6843324D01*
X12632624Y6836400D01*
X12659376D01*
X12685216Y6843324D01*
X12708384Y6856700D01*
X12727300Y6875616D01*
X12740676Y6898784D01*
X12747600Y6924624D01*
Y6951376D01*
X12740676Y6977216D01*
X12727300Y7000384D01*
X12708384Y7019300D01*
X12685216Y7032676D01*
X12659376Y7039600D01*
D02*
G37*
G36*
X6713376D02*
X6686624D01*
X6660784Y7032676D01*
X6637616Y7019300D01*
X6618700Y7000384D01*
X6605324Y6977216D01*
X6598400Y6951376D01*
Y6924624D01*
X6605324Y6898784D01*
X6618700Y6875616D01*
X6637616Y6856700D01*
X6660784Y6843324D01*
X6686624Y6836400D01*
X6713376D01*
X6739216Y6843324D01*
X6762384Y6856700D01*
X6781300Y6875616D01*
X6794676Y6898784D01*
X6801600Y6924624D01*
Y6951376D01*
X6794676Y6977216D01*
X6781300Y7000384D01*
X6762384Y7019300D01*
X6739216Y7032676D01*
X6713376Y7039600D01*
D02*
G37*
G36*
X6459376D02*
X6432624D01*
X6406784Y7032676D01*
X6383616Y7019300D01*
X6364700Y7000384D01*
X6351324Y6977216D01*
X6344400Y6951376D01*
Y6924624D01*
X6351324Y6898784D01*
X6364700Y6875616D01*
X6383616Y6856700D01*
X6406784Y6843324D01*
X6432624Y6836400D01*
X6459376D01*
X6485216Y6843324D01*
X6508384Y6856700D01*
X6527300Y6875616D01*
X6540676Y6898784D01*
X6547600Y6924624D01*
Y6951376D01*
X6540676Y6977216D01*
X6527300Y7000384D01*
X6508384Y7019300D01*
X6485216Y7032676D01*
X6459376Y7039600D01*
D02*
G37*
G36*
X12913376Y6785600D02*
X12886624D01*
X12860783Y6778676D01*
X12837616Y6765300D01*
X12818700Y6746384D01*
X12805324Y6723216D01*
X12798400Y6697376D01*
Y6670624D01*
X12805324Y6644784D01*
X12818700Y6621616D01*
X12837616Y6602700D01*
X12860783Y6589324D01*
X12886624Y6582400D01*
X12913376D01*
X12939217Y6589324D01*
X12962384Y6602700D01*
X12981300Y6621616D01*
X12994676Y6644784D01*
X13001601Y6670624D01*
Y6697376D01*
X12994676Y6723216D01*
X12981300Y6746384D01*
X12962384Y6765300D01*
X12939217Y6778676D01*
X12913376Y6785600D01*
D02*
G37*
G36*
X12659376D02*
X12632624D01*
X12606784Y6778676D01*
X12583616Y6765300D01*
X12564700Y6746384D01*
X12551324Y6723216D01*
X12544400Y6697376D01*
Y6670624D01*
X12551324Y6644784D01*
X12564700Y6621616D01*
X12583616Y6602700D01*
X12606784Y6589324D01*
X12632624Y6582400D01*
X12659376D01*
X12685216Y6589324D01*
X12708384Y6602700D01*
X12727300Y6621616D01*
X12740676Y6644784D01*
X12747600Y6670624D01*
Y6697376D01*
X12740676Y6723216D01*
X12727300Y6746384D01*
X12708384Y6765300D01*
X12685216Y6778676D01*
X12659376Y6785600D01*
D02*
G37*
G36*
X6713376D02*
X6686624D01*
X6660784Y6778676D01*
X6637616Y6765300D01*
X6618700Y6746384D01*
X6605324Y6723216D01*
X6598400Y6697376D01*
Y6670624D01*
X6605324Y6644784D01*
X6618700Y6621616D01*
X6637616Y6602700D01*
X6660784Y6589324D01*
X6686624Y6582400D01*
X6713376D01*
X6739216Y6589324D01*
X6762384Y6602700D01*
X6781300Y6621616D01*
X6794676Y6644784D01*
X6801600Y6670624D01*
Y6697376D01*
X6794676Y6723216D01*
X6781300Y6746384D01*
X6762384Y6765300D01*
X6739216Y6778676D01*
X6713376Y6785600D01*
D02*
G37*
G36*
X6459376D02*
X6432624D01*
X6406784Y6778676D01*
X6383616Y6765300D01*
X6364700Y6746384D01*
X6351324Y6723216D01*
X6344400Y6697376D01*
Y6670624D01*
X6351324Y6644784D01*
X6364700Y6621616D01*
X6383616Y6602700D01*
X6406784Y6589324D01*
X6432624Y6582400D01*
X6459376D01*
X6485216Y6589324D01*
X6508384Y6602700D01*
X6527300Y6621616D01*
X6540676Y6644784D01*
X6547600Y6670624D01*
Y6697376D01*
X6540676Y6723216D01*
X6527300Y6746384D01*
X6508384Y6765300D01*
X6485216Y6778676D01*
X6459376Y6785600D01*
D02*
G37*
G36*
X10412014Y6610400D02*
X10387986D01*
X10365786Y6601205D01*
X10348795Y6584214D01*
X10339600Y6562014D01*
Y6537986D01*
X10348795Y6515786D01*
X10365786Y6498795D01*
X10387986Y6489600D01*
X10412014D01*
X10434214Y6498795D01*
X10451205Y6515786D01*
X10460400Y6537986D01*
Y6562014D01*
X10451205Y6584214D01*
X10434214Y6601205D01*
X10412014Y6610400D01*
D02*
G37*
G36*
X9215368Y6530400D02*
X9191340D01*
X9169140Y6521205D01*
X9152150Y6504214D01*
X9142954Y6482014D01*
Y6457986D01*
X9152150Y6435786D01*
X9169140Y6418795D01*
X9191340Y6409600D01*
X9215368D01*
X9237568Y6418795D01*
X9254559Y6435786D01*
X9263754Y6457986D01*
Y6482014D01*
X9254559Y6504214D01*
X9237568Y6521205D01*
X9215368Y6530400D01*
D02*
G37*
G36*
X12913376Y6531600D02*
X12886624D01*
X12860783Y6524676D01*
X12837616Y6511300D01*
X12818700Y6492384D01*
X12805324Y6469216D01*
X12798400Y6443376D01*
Y6416624D01*
X12805324Y6390784D01*
X12818700Y6367616D01*
X12837616Y6348700D01*
X12860783Y6335324D01*
X12886624Y6328400D01*
X12913376D01*
X12939217Y6335324D01*
X12962384Y6348700D01*
X12981300Y6367616D01*
X12994676Y6390784D01*
X13001601Y6416624D01*
Y6443376D01*
X12994676Y6469216D01*
X12981300Y6492384D01*
X12962384Y6511300D01*
X12939217Y6524676D01*
X12913376Y6531600D01*
D02*
G37*
G36*
X12659376D02*
X12632624D01*
X12606784Y6524676D01*
X12583616Y6511300D01*
X12564700Y6492384D01*
X12551324Y6469216D01*
X12544400Y6443376D01*
Y6416624D01*
X12551324Y6390784D01*
X12564700Y6367616D01*
X12583616Y6348700D01*
X12606784Y6335324D01*
X12632624Y6328400D01*
X12659376D01*
X12685216Y6335324D01*
X12708384Y6348700D01*
X12727300Y6367616D01*
X12740676Y6390784D01*
X12747600Y6416624D01*
Y6443376D01*
X12740676Y6469216D01*
X12727300Y6492384D01*
X12708384Y6511300D01*
X12685216Y6524676D01*
X12659376Y6531600D01*
D02*
G37*
G36*
X6713376D02*
X6686624D01*
X6660784Y6524676D01*
X6637616Y6511300D01*
X6618700Y6492384D01*
X6605324Y6469216D01*
X6598400Y6443376D01*
Y6416624D01*
X6605324Y6390784D01*
X6618700Y6367616D01*
X6637616Y6348700D01*
X6660784Y6335324D01*
X6686624Y6328400D01*
X6713376D01*
X6739216Y6335324D01*
X6762384Y6348700D01*
X6781300Y6367616D01*
X6794676Y6390784D01*
X6801600Y6416624D01*
Y6443376D01*
X6794676Y6469216D01*
X6781300Y6492384D01*
X6762384Y6511300D01*
X6739216Y6524676D01*
X6713376Y6531600D01*
D02*
G37*
G36*
X6459376D02*
X6432624D01*
X6406784Y6524676D01*
X6383616Y6511300D01*
X6364700Y6492384D01*
X6351324Y6469216D01*
X6344400Y6443376D01*
Y6416624D01*
X6351324Y6390784D01*
X6364700Y6367616D01*
X6383616Y6348700D01*
X6406784Y6335324D01*
X6432624Y6328400D01*
X6459376D01*
X6485216Y6335324D01*
X6508384Y6348700D01*
X6527300Y6367616D01*
X6540676Y6390784D01*
X6547600Y6416624D01*
Y6443376D01*
X6540676Y6469216D01*
X6527300Y6492384D01*
X6508384Y6511300D01*
X6485216Y6524676D01*
X6459376Y6531600D01*
D02*
G37*
G36*
X8762014Y6360400D02*
X8737986D01*
X8715786Y6351205D01*
X8698795Y6334214D01*
X8689600Y6312014D01*
Y6287986D01*
X8698795Y6265786D01*
X8715786Y6248795D01*
X8737986Y6239600D01*
X8762014D01*
X8784214Y6248795D01*
X8801205Y6265786D01*
X8810400Y6287986D01*
Y6312014D01*
X8801205Y6334214D01*
X8784214Y6351205D01*
X8762014Y6360400D01*
D02*
G37*
G36*
X12913376Y6277600D02*
X12886624D01*
X12860783Y6270676D01*
X12837616Y6257300D01*
X12818700Y6238384D01*
X12805324Y6215216D01*
X12798400Y6189376D01*
Y6162624D01*
X12805324Y6136784D01*
X12818700Y6113616D01*
X12837616Y6094700D01*
X12860783Y6081324D01*
X12886624Y6074400D01*
X12913376D01*
X12939217Y6081324D01*
X12962384Y6094700D01*
X12981300Y6113616D01*
X12994676Y6136784D01*
X13001601Y6162624D01*
Y6189376D01*
X12994676Y6215216D01*
X12981300Y6238384D01*
X12962384Y6257300D01*
X12939217Y6270676D01*
X12913376Y6277600D01*
D02*
G37*
G36*
X6713376D02*
X6686624D01*
X6660784Y6270676D01*
X6637616Y6257300D01*
X6618700Y6238384D01*
X6605324Y6215216D01*
X6598400Y6189376D01*
Y6162624D01*
X6605324Y6136784D01*
X6618700Y6113616D01*
X6637616Y6094700D01*
X6660784Y6081324D01*
X6686624Y6074400D01*
X6713376D01*
X6739216Y6081324D01*
X6762384Y6094700D01*
X6781300Y6113616D01*
X6794676Y6136784D01*
X6801600Y6162624D01*
Y6189376D01*
X6794676Y6215216D01*
X6781300Y6238384D01*
X6762384Y6257300D01*
X6739216Y6270676D01*
X6713376Y6277600D01*
D02*
G37*
G36*
X6459376D02*
X6432624D01*
X6406784Y6270676D01*
X6383616Y6257300D01*
X6364700Y6238384D01*
X6351324Y6215216D01*
X6344400Y6189376D01*
Y6162624D01*
X6351324Y6136784D01*
X6364700Y6113616D01*
X6383616Y6094700D01*
X6406784Y6081324D01*
X6432624Y6074400D01*
X6459376D01*
X6485216Y6081324D01*
X6508384Y6094700D01*
X6527300Y6113616D01*
X6540676Y6136784D01*
X6547600Y6162624D01*
Y6189376D01*
X6540676Y6215216D01*
X6527300Y6238384D01*
X6508384Y6257300D01*
X6485216Y6270676D01*
X6459376Y6277600D01*
D02*
G37*
G36*
X7662014Y6060400D02*
X7637986D01*
X7615786Y6051205D01*
X7598795Y6034214D01*
X7589600Y6012014D01*
Y5987986D01*
X7598795Y5965786D01*
X7615786Y5948795D01*
X7637986Y5939600D01*
X7662014D01*
X7684214Y5948795D01*
X7701205Y5965786D01*
X7710400Y5987986D01*
Y6012014D01*
X7701205Y6034214D01*
X7684214Y6051205D01*
X7662014Y6060400D01*
D02*
G37*
G36*
X12913376Y6023600D02*
X12886624D01*
X12860783Y6016676D01*
X12837616Y6003300D01*
X12818700Y5984384D01*
X12805324Y5961216D01*
X12798400Y5935376D01*
Y5908624D01*
X12805324Y5882784D01*
X12818700Y5859616D01*
X12837616Y5840700D01*
X12860783Y5827324D01*
X12886624Y5820400D01*
X12913376D01*
X12939217Y5827324D01*
X12962384Y5840700D01*
X12981300Y5859616D01*
X12994676Y5882784D01*
X13001601Y5908624D01*
Y5935376D01*
X12994676Y5961216D01*
X12981300Y5984384D01*
X12962384Y6003300D01*
X12939217Y6016676D01*
X12913376Y6023600D01*
D02*
G37*
G36*
X12659376D02*
X12632624D01*
X12606784Y6016676D01*
X12583616Y6003300D01*
X12564700Y5984384D01*
X12551324Y5961216D01*
X12544400Y5935376D01*
Y5908624D01*
X12551324Y5882784D01*
X12564700Y5859616D01*
X12583616Y5840700D01*
X12606784Y5827324D01*
X12632624Y5820400D01*
X12659376D01*
X12685216Y5827324D01*
X12708384Y5840700D01*
X12727300Y5859616D01*
X12740676Y5882784D01*
X12747600Y5908624D01*
Y5935376D01*
X12740676Y5961216D01*
X12727300Y5984384D01*
X12708384Y6003300D01*
X12685216Y6016676D01*
X12659376Y6023600D01*
D02*
G37*
G36*
X6713376D02*
X6686624D01*
X6660784Y6016676D01*
X6637616Y6003300D01*
X6618700Y5984384D01*
X6605324Y5961216D01*
X6598400Y5935376D01*
Y5908624D01*
X6605324Y5882784D01*
X6618700Y5859616D01*
X6637616Y5840700D01*
X6660784Y5827324D01*
X6686624Y5820400D01*
X6713376D01*
X6739216Y5827324D01*
X6762384Y5840700D01*
X6781300Y5859616D01*
X6794676Y5882784D01*
X6801600Y5908624D01*
Y5935376D01*
X6794676Y5961216D01*
X6781300Y5984384D01*
X6762384Y6003300D01*
X6739216Y6016676D01*
X6713376Y6023600D01*
D02*
G37*
G36*
X6459376D02*
X6432624D01*
X6406784Y6016676D01*
X6383616Y6003300D01*
X6364700Y5984384D01*
X6351324Y5961216D01*
X6344400Y5935376D01*
Y5908624D01*
X6351324Y5882784D01*
X6364700Y5859616D01*
X6383616Y5840700D01*
X6406784Y5827324D01*
X6432624Y5820400D01*
X6459376D01*
X6485216Y5827324D01*
X6508384Y5840700D01*
X6527300Y5859616D01*
X6540676Y5882784D01*
X6547600Y5908624D01*
Y5935376D01*
X6540676Y5961216D01*
X6527300Y5984384D01*
X6508384Y6003300D01*
X6485216Y6016676D01*
X6459376Y6023600D01*
D02*
G37*
G36*
X12659376Y5769600D02*
X12632624D01*
X12606784Y5762676D01*
X12583616Y5749300D01*
X12564700Y5730384D01*
X12551324Y5707216D01*
X12544400Y5681376D01*
Y5654624D01*
X12551324Y5628784D01*
X12564700Y5605616D01*
X12583616Y5586700D01*
X12606784Y5573324D01*
X12632624Y5566400D01*
X12659376D01*
X12685216Y5573324D01*
X12708384Y5586700D01*
X12727300Y5605616D01*
X12740676Y5628784D01*
X12747600Y5654624D01*
Y5681376D01*
X12740676Y5707216D01*
X12727300Y5730384D01*
X12708384Y5749300D01*
X12685216Y5762676D01*
X12659376Y5769600D01*
D02*
G37*
G36*
X6713376D02*
X6686624D01*
X6660784Y5762676D01*
X6637616Y5749300D01*
X6618700Y5730384D01*
X6605324Y5707216D01*
X6598400Y5681376D01*
Y5654624D01*
X6605324Y5628784D01*
X6618700Y5605616D01*
X6637616Y5586700D01*
X6660784Y5573324D01*
X6686624Y5566400D01*
X6713376D01*
X6739216Y5573324D01*
X6762384Y5586700D01*
X6781300Y5605616D01*
X6794676Y5628784D01*
X6801600Y5654624D01*
Y5681376D01*
X6794676Y5707216D01*
X6781300Y5730384D01*
X6762384Y5749300D01*
X6739216Y5762676D01*
X6713376Y5769600D01*
D02*
G37*
G36*
X6459376D02*
X6432624D01*
X6406784Y5762676D01*
X6383616Y5749300D01*
X6364700Y5730384D01*
X6351324Y5707216D01*
X6344400Y5681376D01*
Y5654624D01*
X6351324Y5628784D01*
X6364700Y5605616D01*
X6383616Y5586700D01*
X6406784Y5573324D01*
X6432624Y5566400D01*
X6459376D01*
X6485216Y5573324D01*
X6508384Y5586700D01*
X6527300Y5605616D01*
X6540676Y5628784D01*
X6547600Y5654624D01*
Y5681376D01*
X6540676Y5707216D01*
X6527300Y5730384D01*
X6508384Y5749300D01*
X6485216Y5762676D01*
X6459376Y5769600D01*
D02*
G37*
G36*
X12913376Y5515600D02*
X12886624D01*
X12860783Y5508676D01*
X12837616Y5495300D01*
X12818700Y5476384D01*
X12805324Y5453216D01*
X12798400Y5427376D01*
Y5400624D01*
X12805324Y5374784D01*
X12818700Y5351616D01*
X12837616Y5332700D01*
X12860783Y5319324D01*
X12886624Y5312400D01*
X12913376D01*
X12939217Y5319324D01*
X12962384Y5332700D01*
X12981300Y5351616D01*
X12994676Y5374784D01*
X13001601Y5400624D01*
Y5427376D01*
X12994676Y5453216D01*
X12981300Y5476384D01*
X12962384Y5495300D01*
X12939217Y5508676D01*
X12913376Y5515600D01*
D02*
G37*
G36*
X12659376D02*
X12632624D01*
X12606784Y5508676D01*
X12583616Y5495300D01*
X12564700Y5476384D01*
X12551324Y5453216D01*
X12544400Y5427376D01*
Y5400624D01*
X12551324Y5374784D01*
X12564700Y5351616D01*
X12583616Y5332700D01*
X12606784Y5319324D01*
X12632624Y5312400D01*
X12659376D01*
X12685216Y5319324D01*
X12708384Y5332700D01*
X12727300Y5351616D01*
X12740676Y5374784D01*
X12747600Y5400624D01*
Y5427376D01*
X12740676Y5453216D01*
X12727300Y5476384D01*
X12708384Y5495300D01*
X12685216Y5508676D01*
X12659376Y5515600D01*
D02*
G37*
G36*
X6713376D02*
X6686624D01*
X6660784Y5508676D01*
X6637616Y5495300D01*
X6618700Y5476384D01*
X6605324Y5453216D01*
X6598400Y5427376D01*
Y5400624D01*
X6605324Y5374784D01*
X6618700Y5351616D01*
X6637616Y5332700D01*
X6660784Y5319324D01*
X6686624Y5312400D01*
X6713376D01*
X6739216Y5319324D01*
X6762384Y5332700D01*
X6781300Y5351616D01*
X6794676Y5374784D01*
X6801600Y5400624D01*
Y5427376D01*
X6794676Y5453216D01*
X6781300Y5476384D01*
X6762384Y5495300D01*
X6739216Y5508676D01*
X6713376Y5515600D01*
D02*
G37*
G36*
X6459376D02*
X6432624D01*
X6406784Y5508676D01*
X6383616Y5495300D01*
X6364700Y5476384D01*
X6351324Y5453216D01*
X6344400Y5427376D01*
Y5400624D01*
X6351324Y5374784D01*
X6364700Y5351616D01*
X6383616Y5332700D01*
X6406784Y5319324D01*
X6432624Y5312400D01*
X6459376D01*
X6485216Y5319324D01*
X6508384Y5332700D01*
X6527300Y5351616D01*
X6540676Y5374784D01*
X6547600Y5400624D01*
Y5427376D01*
X6540676Y5453216D01*
X6527300Y5476384D01*
X6508384Y5495300D01*
X6485216Y5508676D01*
X6459376Y5515600D01*
D02*
G37*
G36*
X12659376Y5261600D02*
X12632624D01*
X12606784Y5254676D01*
X12583616Y5241300D01*
X12564700Y5222384D01*
X12551324Y5199216D01*
X12544400Y5173376D01*
Y5146624D01*
X12551324Y5120784D01*
X12564700Y5097616D01*
X12583616Y5078700D01*
X12606784Y5065324D01*
X12632624Y5058400D01*
X12659376D01*
X12685216Y5065324D01*
X12708384Y5078700D01*
X12727300Y5097616D01*
X12740676Y5120784D01*
X12747600Y5146624D01*
Y5173376D01*
X12740676Y5199216D01*
X12727300Y5222384D01*
X12708384Y5241300D01*
X12685216Y5254676D01*
X12659376Y5261600D01*
D02*
G37*
G36*
X6713376D02*
X6686624D01*
X6660784Y5254676D01*
X6637616Y5241300D01*
X6618700Y5222384D01*
X6605324Y5199216D01*
X6598400Y5173376D01*
Y5146624D01*
X6605324Y5120784D01*
X6618700Y5097616D01*
X6637616Y5078700D01*
X6660784Y5065324D01*
X6686624Y5058400D01*
X6713376D01*
X6739216Y5065324D01*
X6762384Y5078700D01*
X6781300Y5097616D01*
X6794676Y5120784D01*
X6801600Y5146624D01*
Y5173376D01*
X6794676Y5199216D01*
X6781300Y5222384D01*
X6762384Y5241300D01*
X6739216Y5254676D01*
X6713376Y5261600D01*
D02*
G37*
G36*
X6459376D02*
X6432624D01*
X6406784Y5254676D01*
X6383616Y5241300D01*
X6364700Y5222384D01*
X6351324Y5199216D01*
X6344400Y5173376D01*
Y5146624D01*
X6351324Y5120784D01*
X6364700Y5097616D01*
X6383616Y5078700D01*
X6406784Y5065324D01*
X6432624Y5058400D01*
X6459376D01*
X6485216Y5065324D01*
X6508384Y5078700D01*
X6527300Y5097616D01*
X6540676Y5120784D01*
X6547600Y5146624D01*
Y5173376D01*
X6540676Y5199216D01*
X6527300Y5222384D01*
X6508384Y5241300D01*
X6485216Y5254676D01*
X6459376Y5261600D01*
D02*
G37*
G36*
X11617376Y5201600D02*
X11590624D01*
X11564784Y5194676D01*
X11541616Y5181300D01*
X11522700Y5162384D01*
X11509324Y5139216D01*
X11502400Y5113376D01*
Y5086624D01*
X11509324Y5060784D01*
X11522700Y5037616D01*
X11541616Y5018700D01*
X11564784Y5005324D01*
X11590624Y4998400D01*
X11617376D01*
X11643216Y5005324D01*
X11666384Y5018700D01*
X11685300Y5037616D01*
X11698676Y5060784D01*
X11705600Y5086624D01*
Y5113376D01*
X11698676Y5139216D01*
X11685300Y5162384D01*
X11666384Y5181300D01*
X11643216Y5194676D01*
X11617376Y5201600D01*
D02*
G37*
G36*
X11363376D02*
X11336624D01*
X11310784Y5194676D01*
X11287616Y5181300D01*
X11268700Y5162384D01*
X11255324Y5139216D01*
X11248400Y5113376D01*
Y5086624D01*
X11255324Y5060784D01*
X11268700Y5037616D01*
X11287616Y5018700D01*
X11310784Y5005324D01*
X11336624Y4998400D01*
X11363376D01*
X11389216Y5005324D01*
X11412384Y5018700D01*
X11431300Y5037616D01*
X11444676Y5060784D01*
X11451600Y5086624D01*
Y5113376D01*
X11444676Y5139216D01*
X11431300Y5162384D01*
X11412384Y5181300D01*
X11389216Y5194676D01*
X11363376Y5201600D01*
D02*
G37*
G36*
X11109376D02*
X11082624D01*
X11056784Y5194676D01*
X11033616Y5181300D01*
X11014700Y5162384D01*
X11001324Y5139216D01*
X10994400Y5113376D01*
Y5086624D01*
X11001324Y5060784D01*
X11014700Y5037616D01*
X11033616Y5018700D01*
X11056784Y5005324D01*
X11082624Y4998400D01*
X11109376D01*
X11135216Y5005324D01*
X11158384Y5018700D01*
X11177300Y5037616D01*
X11190676Y5060784D01*
X11197600Y5086624D01*
Y5113376D01*
X11190676Y5139216D01*
X11177300Y5162384D01*
X11158384Y5181300D01*
X11135216Y5194676D01*
X11109376Y5201600D01*
D02*
G37*
G36*
X12913376Y5007600D02*
X12886624D01*
X12860783Y5000676D01*
X12837616Y4987300D01*
X12818700Y4968384D01*
X12805324Y4945216D01*
X12798400Y4919376D01*
Y4892624D01*
X12805324Y4866784D01*
X12818700Y4843616D01*
X12837616Y4824700D01*
X12860783Y4811324D01*
X12886624Y4804400D01*
X12913376D01*
X12939217Y4811324D01*
X12962384Y4824700D01*
X12981300Y4843616D01*
X12994676Y4866784D01*
X13001601Y4892624D01*
Y4919376D01*
X12994676Y4945216D01*
X12981300Y4968384D01*
X12962384Y4987300D01*
X12939217Y5000676D01*
X12913376Y5007600D01*
D02*
G37*
G36*
X12659376D02*
X12632624D01*
X12606784Y5000676D01*
X12583616Y4987300D01*
X12564700Y4968384D01*
X12551324Y4945216D01*
X12544400Y4919376D01*
Y4892624D01*
X12551324Y4866784D01*
X12564700Y4843616D01*
X12583616Y4824700D01*
X12606784Y4811324D01*
X12632624Y4804400D01*
X12659376D01*
X12685216Y4811324D01*
X12708384Y4824700D01*
X12727300Y4843616D01*
X12740676Y4866784D01*
X12747600Y4892624D01*
Y4919376D01*
X12740676Y4945216D01*
X12727300Y4968384D01*
X12708384Y4987300D01*
X12685216Y5000676D01*
X12659376Y5007600D01*
D02*
G37*
G36*
X6713376D02*
X6686624D01*
X6660784Y5000676D01*
X6637616Y4987300D01*
X6618700Y4968384D01*
X6605324Y4945216D01*
X6598400Y4919376D01*
Y4892624D01*
X6605324Y4866784D01*
X6618700Y4843616D01*
X6637616Y4824700D01*
X6660784Y4811324D01*
X6686624Y4804400D01*
X6713376D01*
X6739216Y4811324D01*
X6762384Y4824700D01*
X6781300Y4843616D01*
X6794676Y4866784D01*
X6801600Y4892624D01*
Y4919376D01*
X6794676Y4945216D01*
X6781300Y4968384D01*
X6762384Y4987300D01*
X6739216Y5000676D01*
X6713376Y5007600D01*
D02*
G37*
G36*
X6459376D02*
X6432624D01*
X6406784Y5000676D01*
X6383616Y4987300D01*
X6364700Y4968384D01*
X6351324Y4945216D01*
X6344400Y4919376D01*
Y4892624D01*
X6351324Y4866784D01*
X6364700Y4843616D01*
X6383616Y4824700D01*
X6406784Y4811324D01*
X6432624Y4804400D01*
X6459376D01*
X6485216Y4811324D01*
X6508384Y4824700D01*
X6527300Y4843616D01*
X6540676Y4866784D01*
X6547600Y4892624D01*
Y4919376D01*
X6540676Y4945216D01*
X6527300Y4968384D01*
X6508384Y4987300D01*
X6485216Y5000676D01*
X6459376Y5007600D01*
D02*
G37*
G36*
X9936730Y4784400D02*
X9912702D01*
X9890502Y4775205D01*
X9873511Y4758214D01*
X9864316Y4736014D01*
Y4711986D01*
X9873511Y4689786D01*
X9890502Y4672795D01*
X9912702Y4663600D01*
X9936730D01*
X9958930Y4672795D01*
X9975920Y4689786D01*
X9985116Y4711986D01*
Y4736014D01*
X9975920Y4758214D01*
X9958930Y4775205D01*
X9936730Y4784400D01*
D02*
G37*
G36*
X12913376Y4753600D02*
X12886624D01*
X12860783Y4746676D01*
X12837616Y4733300D01*
X12818700Y4714384D01*
X12805324Y4691216D01*
X12798400Y4665376D01*
Y4638624D01*
X12805324Y4612784D01*
X12818700Y4589616D01*
X12837616Y4570700D01*
X12860783Y4557324D01*
X12886624Y4550400D01*
X12913376D01*
X12939217Y4557324D01*
X12962384Y4570700D01*
X12981300Y4589616D01*
X12994676Y4612784D01*
X13001601Y4638624D01*
Y4665376D01*
X12994676Y4691216D01*
X12981300Y4714384D01*
X12962384Y4733300D01*
X12939217Y4746676D01*
X12913376Y4753600D01*
D02*
G37*
G36*
X12659376D02*
X12632624D01*
X12606784Y4746676D01*
X12583616Y4733300D01*
X12564700Y4714384D01*
X12551324Y4691216D01*
X12544400Y4665376D01*
Y4638624D01*
X12551324Y4612784D01*
X12564700Y4589616D01*
X12583616Y4570700D01*
X12606784Y4557324D01*
X12632624Y4550400D01*
X12659376D01*
X12685216Y4557324D01*
X12708384Y4570700D01*
X12727300Y4589616D01*
X12740676Y4612784D01*
X12747600Y4638624D01*
Y4665376D01*
X12740676Y4691216D01*
X12727300Y4714384D01*
X12708384Y4733300D01*
X12685216Y4746676D01*
X12659376Y4753600D01*
D02*
G37*
G36*
X6713376D02*
X6686624D01*
X6660784Y4746676D01*
X6637616Y4733300D01*
X6618700Y4714384D01*
X6605324Y4691216D01*
X6598400Y4665376D01*
Y4638624D01*
X6605324Y4612784D01*
X6618700Y4589616D01*
X6637616Y4570700D01*
X6660784Y4557324D01*
X6686624Y4550400D01*
X6713376D01*
X6739216Y4557324D01*
X6762384Y4570700D01*
X6781300Y4589616D01*
X6794676Y4612784D01*
X6801600Y4638624D01*
Y4665376D01*
X6794676Y4691216D01*
X6781300Y4714384D01*
X6762384Y4733300D01*
X6739216Y4746676D01*
X6713376Y4753600D01*
D02*
G37*
G36*
X6459376D02*
X6432624D01*
X6406784Y4746676D01*
X6383616Y4733300D01*
X6364700Y4714384D01*
X6351324Y4691216D01*
X6344400Y4665376D01*
Y4638624D01*
X6351324Y4612784D01*
X6364700Y4589616D01*
X6383616Y4570700D01*
X6406784Y4557324D01*
X6432624Y4550400D01*
X6459376D01*
X6485216Y4557324D01*
X6508384Y4570700D01*
X6527300Y4589616D01*
X6540676Y4612784D01*
X6547600Y4638624D01*
Y4665376D01*
X6540676Y4691216D01*
X6527300Y4714384D01*
X6508384Y4733300D01*
X6485216Y4746676D01*
X6459376Y4753600D01*
D02*
G37*
G36*
X9294014Y4518330D02*
X9269986D01*
X9247786Y4509134D01*
X9230795Y4492143D01*
X9221600Y4469944D01*
Y4445915D01*
X9230795Y4423716D01*
X9247786Y4406725D01*
X9269986Y4397530D01*
X9294014D01*
X9316214Y4406725D01*
X9333204Y4423716D01*
X9342400Y4445915D01*
Y4469944D01*
X9333204Y4492143D01*
X9316214Y4509134D01*
X9294014Y4518330D01*
D02*
G37*
G36*
X10212014Y4510400D02*
X10187986D01*
X10165786Y4501205D01*
X10148795Y4484214D01*
X10139600Y4462014D01*
Y4437986D01*
X10148795Y4415786D01*
X10165786Y4398795D01*
X10187986Y4389600D01*
X10212014D01*
X10234214Y4398795D01*
X10251205Y4415786D01*
X10260400Y4437986D01*
Y4462014D01*
X10251205Y4484214D01*
X10234214Y4501205D01*
X10212014Y4510400D01*
D02*
G37*
G36*
X12913376Y4499600D02*
X12886624D01*
X12860783Y4492676D01*
X12837616Y4479300D01*
X12818700Y4460384D01*
X12805324Y4437216D01*
X12798400Y4411376D01*
Y4384624D01*
X12805324Y4358784D01*
X12818700Y4335616D01*
X12837616Y4316700D01*
X12860783Y4303324D01*
X12886624Y4296400D01*
X12913376D01*
X12939217Y4303324D01*
X12962384Y4316700D01*
X12981300Y4335616D01*
X12994676Y4358784D01*
X13001601Y4384624D01*
Y4411376D01*
X12994676Y4437216D01*
X12981300Y4460384D01*
X12962384Y4479300D01*
X12939217Y4492676D01*
X12913376Y4499600D01*
D02*
G37*
G36*
X6713376D02*
X6686624D01*
X6660784Y4492676D01*
X6637616Y4479300D01*
X6618700Y4460384D01*
X6605324Y4437216D01*
X6598400Y4411376D01*
Y4384624D01*
X6605324Y4358784D01*
X6618700Y4335616D01*
X6637616Y4316700D01*
X6660784Y4303324D01*
X6686624Y4296400D01*
X6713376D01*
X6739216Y4303324D01*
X6762384Y4316700D01*
X6781300Y4335616D01*
X6794676Y4358784D01*
X6801600Y4384624D01*
Y4411376D01*
X6794676Y4437216D01*
X6781300Y4460384D01*
X6762384Y4479300D01*
X6739216Y4492676D01*
X6713376Y4499600D01*
D02*
G37*
G36*
X6459376D02*
X6432624D01*
X6406784Y4492676D01*
X6383616Y4479300D01*
X6364700Y4460384D01*
X6351324Y4437216D01*
X6344400Y4411376D01*
Y4384624D01*
X6351324Y4358784D01*
X6364700Y4335616D01*
X6383616Y4316700D01*
X6406784Y4303324D01*
X6432624Y4296400D01*
X6459376D01*
X6485216Y4303324D01*
X6508384Y4316700D01*
X6527300Y4335616D01*
X6540676Y4358784D01*
X6547600Y4384624D01*
Y4411376D01*
X6540676Y4437216D01*
X6527300Y4460384D01*
X6508384Y4479300D01*
X6485216Y4492676D01*
X6459376Y4499600D01*
D02*
G37*
G36*
X10462014Y4310400D02*
X10437986D01*
X10415786Y4301205D01*
X10398795Y4284214D01*
X10389600Y4262014D01*
Y4237986D01*
X10398795Y4215786D01*
X10415786Y4198795D01*
X10437986Y4189600D01*
X10462014D01*
X10484214Y4198795D01*
X10501205Y4215786D01*
X10510400Y4237986D01*
Y4262014D01*
X10501205Y4284214D01*
X10484214Y4301205D01*
X10462014Y4310400D01*
D02*
G37*
G36*
X10019245Y4160400D02*
X9995217D01*
X9973017Y4151205D01*
X9956027Y4134214D01*
X9946831Y4112014D01*
Y4087986D01*
X9956027Y4065786D01*
X9973017Y4048795D01*
X9995217Y4039600D01*
X10019245D01*
X10041445Y4048795D01*
X10058436Y4065786D01*
X10067631Y4087986D01*
Y4112014D01*
X10058436Y4134214D01*
X10041445Y4151205D01*
X10019245Y4160400D01*
D02*
G37*
G36*
X8565368Y3180400D02*
X8541340D01*
X8519140Y3171205D01*
X8502150Y3154214D01*
X8492954Y3132014D01*
Y3107986D01*
X8502150Y3085786D01*
X8519140Y3068795D01*
X8541340Y3059600D01*
X8565368D01*
X8587568Y3068795D01*
X8604559Y3085786D01*
X8613754Y3107986D01*
Y3132014D01*
X8604559Y3154214D01*
X8587568Y3171205D01*
X8565368Y3180400D01*
D02*
G37*
%LPD*%
D23*
X10453354Y10495000D02*
D03*
X10199354D02*
D03*
X9945354D02*
D03*
D24*
X6700000Y4398000D02*
D03*
X6446000D02*
D03*
X6700000Y4652000D02*
D03*
X6446000D02*
D03*
X6700000Y4906000D02*
D03*
X6446000D02*
D03*
X6700000Y5160000D02*
D03*
X6446000D02*
D03*
X6700000Y5414000D02*
D03*
X6446000D02*
D03*
X6700000Y5668000D02*
D03*
X6446000D02*
D03*
X6700000Y5922000D02*
D03*
X6446000D02*
D03*
X6700000Y6176000D02*
D03*
X6446000D02*
D03*
X6700000Y6430000D02*
D03*
X6446000D02*
D03*
X6700000Y6684000D02*
D03*
X6446000D02*
D03*
X6700000Y6938000D02*
D03*
X6446000D02*
D03*
X6700000Y7192000D02*
D03*
X6446000D02*
D03*
X6700000Y7446000D02*
D03*
X6446000D02*
D03*
X6700000Y7700000D02*
D03*
X6446000D02*
D03*
X6700000Y7954000D02*
D03*
X6446000D02*
D03*
X6700000Y8208000D02*
D03*
X6446000D02*
D03*
X6700000Y8462000D02*
D03*
X6446000D02*
D03*
X6700000Y8716000D02*
D03*
X6446000D02*
D03*
X6700000Y8970000D02*
D03*
X6446000D02*
D03*
X6700000Y9224000D02*
D03*
X6446000D02*
D03*
X11096000Y5100000D02*
D03*
X11350000D02*
D03*
X11604000D02*
D03*
X12900000Y4398000D02*
D03*
X12646000D02*
D03*
X12900000Y4652000D02*
D03*
X12646000D02*
D03*
X12900000Y4906000D02*
D03*
X12646000D02*
D03*
X12900000Y5160000D02*
D03*
X12646000D02*
D03*
X12900000Y5414000D02*
D03*
X12646000D02*
D03*
X12900000Y5668000D02*
D03*
X12646000D02*
D03*
X12900000Y5922000D02*
D03*
X12646000D02*
D03*
X12900000Y6176000D02*
D03*
X12646000D02*
D03*
X12900000Y6430000D02*
D03*
X12646000D02*
D03*
X12900000Y6684000D02*
D03*
X12646000D02*
D03*
X12900000Y6938000D02*
D03*
X12646000D02*
D03*
X12900000Y7192000D02*
D03*
X12646000D02*
D03*
X12900000Y7446000D02*
D03*
X12646000D02*
D03*
X12900000Y7700000D02*
D03*
X12646000D02*
D03*
X12900000Y7954000D02*
D03*
X12646000D02*
D03*
X12900000Y8208000D02*
D03*
X12646000D02*
D03*
X12900000Y8462000D02*
D03*
X12646000D02*
D03*
X12900000Y8716000D02*
D03*
X12646000D02*
D03*
X12900000Y8970000D02*
D03*
X12646000D02*
D03*
X12900000Y9224000D02*
D03*
X12646000D02*
D03*
D26*
X7112000Y3657600D02*
D03*
Y10007600D02*
D03*
X12192000Y3657600D02*
D03*
Y10007600D02*
D03*
D27*
X8298610Y5294986D02*
D03*
X12300000Y8200000D02*
D03*
X11600000D02*
D03*
X7323594Y8653463D02*
D03*
X7559727Y7641662D02*
D03*
X9400000Y7700000D02*
D03*
Y8600000D02*
D03*
X7400000Y5700000D02*
D03*
X9282000Y4457930D02*
D03*
X9390785Y5134300D02*
D03*
X8651849Y9673348D02*
D03*
X8950000Y9000000D02*
D03*
X8312151Y6570164D02*
D03*
X8750000Y6300000D02*
D03*
X9567607Y6270891D02*
D03*
X12050000Y9550000D02*
D03*
X10849354Y10370000D02*
D03*
X10217654Y8870000D02*
D03*
X7500000Y6300000D02*
D03*
X9682494Y7605852D02*
D03*
X10007231Y4100000D02*
D03*
X9680893Y3886305D02*
D03*
X8950000Y9900000D02*
D03*
X7650000Y6000000D02*
D03*
X9924716Y4724000D02*
D03*
X9793172Y6524424D02*
D03*
X10200000Y4450000D02*
D03*
X12150000Y9100000D02*
D03*
X10018027Y8222704D02*
D03*
X10250000Y8050000D02*
D03*
X10100000Y7777000D02*
D03*
X10450000Y6900000D02*
D03*
Y4250000D02*
D03*
X9900000Y7400000D02*
D03*
X10400000Y6550000D02*
D03*
X9203354Y6470000D02*
D03*
X9103354Y7520000D02*
D03*
X8553354Y3120000D02*
D03*
X9653354Y9120000D02*
D03*
D28*
X13250000Y10500000D02*
D03*
X13000000Y10000000D02*
D03*
X13250000Y9500000D02*
D03*
Y8500000D02*
D03*
Y7500000D02*
D03*
Y6500000D02*
D03*
X13000000Y4000000D02*
D03*
X13250000Y3500000D02*
D03*
X13000000Y3000000D02*
D03*
X12750000Y10500000D02*
D03*
X12500000Y10000000D02*
D03*
X12750000Y9500000D02*
D03*
X12250000Y10500000D02*
D03*
Y9500000D02*
D03*
X12000000Y7000000D02*
D03*
X12250000Y5500000D02*
D03*
X12000000Y5000000D02*
D03*
X11500000Y7000000D02*
D03*
X11750000Y5500000D02*
D03*
Y4500000D02*
D03*
X11250000Y10500000D02*
D03*
X11000000Y10000000D02*
D03*
X11250000Y9500000D02*
D03*
X11000000Y7000000D02*
D03*
Y6000000D02*
D03*
X11250000Y5500000D02*
D03*
Y4500000D02*
D03*
X10750000Y8500000D02*
D03*
X10500000Y6000000D02*
D03*
X10750000Y4500000D02*
D03*
Y3500000D02*
D03*
X10250000Y6500000D02*
D03*
Y3500000D02*
D03*
X9750000Y10500000D02*
D03*
X9500000Y10000000D02*
D03*
X9750000Y9500000D02*
D03*
Y7500000D02*
D03*
Y5500000D02*
D03*
X9500000Y5000000D02*
D03*
X9750000Y3500000D02*
D03*
X8750000Y9500000D02*
D03*
Y3500000D02*
D03*
X8250000Y10500000D02*
D03*
X8000000Y10000000D02*
D03*
X8250000Y3500000D02*
D03*
X7750000Y10500000D02*
D03*
X7500000Y10000000D02*
D03*
X7750000Y3500000D02*
D03*
X7250000Y10500000D02*
D03*
X7000000Y3000000D02*
D03*
X6750000Y10500000D02*
D03*
X6500000Y10000000D02*
D03*
X6750000Y9500000D02*
D03*
Y3500000D02*
D03*
X6500000Y3000000D02*
D03*
X6000000Y10000000D02*
D03*
Y9000000D02*
D03*
Y8000000D02*
D03*
Y7000000D02*
D03*
X6250000Y6500000D02*
D03*
X6000000Y6000000D02*
D03*
X6250000Y5500000D02*
D03*
X6000000Y5000000D02*
D03*
X6250000Y4500000D02*
D03*
X6000000Y4000000D02*
D03*
X6250000Y3500000D02*
D03*
%TF.MD5,ecd2cc7fa6a429915a939f74ca04895b*%
M02*
