%TF.GenerationSoftware,Altium Limited,Altium Designer,23.3.1 (30)*%
G04 Layer_Color=0*
%FSLAX45Y45*%
%MOMM*%
%TF.SameCoordinates,CA382BF2-D798-45FE-BEC5-AB2A3CF063FF*%
%TF.FilePolarity,Positive*%
%TF.FileFunction,Plated,1,4,PTH,Drill*%
%TF.Part,Single*%
G01*
G75*
%TA.AperFunction,ComponentDrill*%
%ADD64C,1.02000*%
%ADD65C,1.09220*%
%ADD66C,1.06680*%
%TA.AperFunction,OtherDrill,Pad Free-8 (71.12mm,36.576mm)*%
%ADD67C,2.50000*%
%TA.AperFunction,OtherDrill,Pad Free-5 (71.12mm,100.076mm)*%
%ADD68C,2.50000*%
%TA.AperFunction,OtherDrill,Pad Free-7 (121.92mm,36.576mm)*%
%ADD69C,2.50000*%
%TA.AperFunction,OtherDrill,Pad Free-6 (121.92mm,100.076mm)*%
%ADD70C,2.50000*%
%TA.AperFunction,ViaDrill,NotFilled*%
%ADD71C,0.40000*%
D64*
X10453354Y10495000D02*
D03*
X10199354D02*
D03*
X9945354D02*
D03*
D65*
X6700000Y4398000D02*
D03*
X6446000D02*
D03*
X6700000Y4652000D02*
D03*
X6446000D02*
D03*
X6700000Y4906000D02*
D03*
X6446000D02*
D03*
X6700000Y5160000D02*
D03*
X6446000D02*
D03*
X6700000Y5414000D02*
D03*
X6446000D02*
D03*
X6700000Y5668000D02*
D03*
X6446000D02*
D03*
X6700000Y5922000D02*
D03*
X6446000D02*
D03*
X6700000Y6176000D02*
D03*
X6446000D02*
D03*
X6700000Y6430000D02*
D03*
X6446000D02*
D03*
X6700000Y6684000D02*
D03*
X6446000D02*
D03*
X6700000Y6938000D02*
D03*
X6446000D02*
D03*
X6700000Y7192000D02*
D03*
X6446000D02*
D03*
X6700000Y7446000D02*
D03*
X6446000D02*
D03*
X6700000Y7700000D02*
D03*
X6446000D02*
D03*
X6700000Y7954000D02*
D03*
X6446000D02*
D03*
X6700000Y8208000D02*
D03*
X6446000D02*
D03*
X6700000Y8462000D02*
D03*
X6446000D02*
D03*
X6700000Y8716000D02*
D03*
X6446000D02*
D03*
X6700000Y8970000D02*
D03*
X6446000D02*
D03*
X6700000Y9224000D02*
D03*
X6446000D02*
D03*
X12900000Y4398000D02*
D03*
X12646000D02*
D03*
X12900000Y4652000D02*
D03*
X12646000D02*
D03*
X12900000Y4906000D02*
D03*
X12646000D02*
D03*
X12900000Y5160000D02*
D03*
X12646000D02*
D03*
X12900000Y5414000D02*
D03*
X12646000D02*
D03*
X12900000Y5668000D02*
D03*
X12646000D02*
D03*
X12900000Y5922000D02*
D03*
X12646000D02*
D03*
X12900000Y6176000D02*
D03*
X12646000D02*
D03*
X12900000Y6430000D02*
D03*
X12646000D02*
D03*
X12900000Y6684000D02*
D03*
X12646000D02*
D03*
X12900000Y6938000D02*
D03*
X12646000D02*
D03*
X12900000Y7192000D02*
D03*
X12646000D02*
D03*
X12900000Y7446000D02*
D03*
X12646000D02*
D03*
X12900000Y7700000D02*
D03*
X12646000D02*
D03*
X12900000Y7954000D02*
D03*
X12646000D02*
D03*
X12900000Y8208000D02*
D03*
X12646000D02*
D03*
X12900000Y8462000D02*
D03*
X12646000D02*
D03*
X12900000Y8716000D02*
D03*
X12646000D02*
D03*
X12900000Y8970000D02*
D03*
X12646000D02*
D03*
X12900000Y9224000D02*
D03*
X12646000D02*
D03*
D66*
X11096000Y5100000D02*
D03*
X11350000D02*
D03*
X11604000D02*
D03*
D67*
X7112000Y3657600D02*
D03*
D68*
Y10007600D02*
D03*
D69*
X12192000Y3657600D02*
D03*
D70*
Y10007600D02*
D03*
D71*
X8298610Y5294986D02*
D03*
X12300000Y8200000D02*
D03*
X11600000D02*
D03*
X7323594Y8653463D02*
D03*
X7559727Y7641662D02*
D03*
X9400000Y7700000D02*
D03*
Y8600000D02*
D03*
X7400000Y5700000D02*
D03*
X13250000Y10500000D02*
D03*
X13000000Y10000000D02*
D03*
X13250000Y9500000D02*
D03*
Y8500000D02*
D03*
Y7500000D02*
D03*
Y6500000D02*
D03*
X13000000Y4000000D02*
D03*
X13250000Y3500000D02*
D03*
X13000000Y3000000D02*
D03*
X12750000Y10500000D02*
D03*
X12500000Y10000000D02*
D03*
X12750000Y9500000D02*
D03*
X12250000Y10500000D02*
D03*
Y9500000D02*
D03*
X12000000Y7000000D02*
D03*
X12250000Y5500000D02*
D03*
X12000000Y5000000D02*
D03*
X11500000Y7000000D02*
D03*
X11750000Y5500000D02*
D03*
Y4500000D02*
D03*
X11250000Y10500000D02*
D03*
X11000000Y10000000D02*
D03*
X11250000Y9500000D02*
D03*
X11000000Y7000000D02*
D03*
Y6000000D02*
D03*
X11250000Y5500000D02*
D03*
Y4500000D02*
D03*
X10750000Y8500000D02*
D03*
X10500000Y6000000D02*
D03*
X10750000Y4500000D02*
D03*
Y3500000D02*
D03*
X10250000Y6500000D02*
D03*
Y3500000D02*
D03*
X9750000Y10500000D02*
D03*
X9500000Y10000000D02*
D03*
X9750000Y9500000D02*
D03*
Y7500000D02*
D03*
Y5500000D02*
D03*
X9500000Y5000000D02*
D03*
X9750000Y3500000D02*
D03*
X8750000Y9500000D02*
D03*
Y3500000D02*
D03*
X8250000Y10500000D02*
D03*
X8000000Y10000000D02*
D03*
X8250000Y3500000D02*
D03*
X7750000Y10500000D02*
D03*
X7500000Y10000000D02*
D03*
X7750000Y3500000D02*
D03*
X7250000Y10500000D02*
D03*
X7000000Y3000000D02*
D03*
X6750000Y10500000D02*
D03*
X6500000Y10000000D02*
D03*
X6750000Y9500000D02*
D03*
Y3500000D02*
D03*
X6500000Y3000000D02*
D03*
X6000000Y10000000D02*
D03*
Y9000000D02*
D03*
Y8000000D02*
D03*
Y7000000D02*
D03*
X6250000Y6500000D02*
D03*
X6000000Y6000000D02*
D03*
X6250000Y5500000D02*
D03*
X6000000Y5000000D02*
D03*
X6250000Y4500000D02*
D03*
X6000000Y4000000D02*
D03*
X6250000Y3500000D02*
D03*
X9282000Y4457930D02*
D03*
X9390785Y5134300D02*
D03*
X8651849Y9673348D02*
D03*
X8950000Y9000000D02*
D03*
X8312151Y6570164D02*
D03*
X8750000Y6300000D02*
D03*
X9567607Y6270891D02*
D03*
X12050000Y9550000D02*
D03*
X10849354Y10370000D02*
D03*
X10217654Y8870000D02*
D03*
X7500000Y6300000D02*
D03*
X9682494Y7605852D02*
D03*
X10007231Y4100000D02*
D03*
X9680893Y3886305D02*
D03*
X8950000Y9900000D02*
D03*
X7650000Y6000000D02*
D03*
X9924716Y4724000D02*
D03*
X9793172Y6524424D02*
D03*
X10200000Y4450000D02*
D03*
X12150000Y9100000D02*
D03*
X10018027Y8222704D02*
D03*
X10250000Y8050000D02*
D03*
X10100000Y7777000D02*
D03*
X10450000Y6900000D02*
D03*
Y4250000D02*
D03*
X9900000Y7400000D02*
D03*
X10400000Y6550000D02*
D03*
X9203354Y6470000D02*
D03*
X9103354Y7520000D02*
D03*
X8553354Y3120000D02*
D03*
X9653354Y9120000D02*
D03*
%TF.MD5,4e92a0b5b5d5adeba2475741ce3236d4*%
M02*
