%TF.GenerationSoftware,Altium Limited,Altium Designer,23.3.1 (30)*%
G04 Layer_Color=65535*
%FSLAX45Y45*%
%MOMM*%
%TF.SameCoordinates,CA382BF2-D798-45FE-BEC5-AB2A3CF063FF*%
%TF.FilePolarity,Positive*%
%TF.FileFunction,Legend,Top*%
%TF.Part,Single*%
G01*
G75*
%TA.AperFunction,NonConductor*%
%ADD44C,0.25400*%
%ADD45C,0.25000*%
%ADD46C,0.50800*%
%ADD47C,0.50000*%
%ADD48C,0.20000*%
%ADD49C,0.15240*%
%ADD50C,0.29400*%
%ADD51C,0.45400*%
G36*
X10141874Y10100351D02*
X9758126D01*
Y10299649D01*
X10141874D01*
Y10100351D01*
D02*
G37*
G36*
X10363443Y10700975D02*
X10036557D01*
Y10899025D01*
X10363443D01*
Y10700975D01*
D02*
G37*
G36*
X10578703Y10101183D02*
X10321297D01*
Y10298817D01*
X10578703D01*
Y10101183D01*
D02*
G37*
G36*
X13448927Y6534454D02*
X13449483Y6534269D01*
X13450130Y6533900D01*
X13450870Y6533252D01*
X13451701Y6532328D01*
X13452071Y6531773D01*
X13452441Y6531033D01*
X13452811Y6530294D01*
X13453088Y6529369D01*
Y6529277D01*
X13453181Y6529184D01*
X13453273Y6528907D01*
X13453366Y6528537D01*
X13453458Y6528167D01*
X13453551Y6527613D01*
X13453828Y6526226D01*
X13454105Y6524562D01*
X13454382Y6522620D01*
X13454475Y6520216D01*
X13454567Y6517627D01*
Y6514761D01*
X13454475Y6513004D01*
X13454382Y6510970D01*
X13454198Y6508936D01*
X13453920Y6506995D01*
X13453828Y6506163D01*
X13453642Y6505331D01*
Y6505238D01*
X13453551Y6505146D01*
Y6504868D01*
X13453458Y6504499D01*
X13453088Y6503666D01*
X13452626Y6502649D01*
X13452071Y6501725D01*
X13451239Y6500893D01*
X13450777Y6500523D01*
X13450314Y6500246D01*
X13449760Y6500153D01*
X13449113Y6500061D01*
X13449020D01*
X13448927D01*
X13448373Y6500153D01*
X13447633Y6500338D01*
X13446986Y6500800D01*
X13446893Y6500985D01*
X13446709Y6501170D01*
X13446524Y6501448D01*
X13446246Y6501910D01*
X13445969Y6502557D01*
X13445599Y6503297D01*
X13445137Y6504221D01*
Y6504314D01*
X13445044Y6504499D01*
X13444582Y6505053D01*
X13444305Y6505423D01*
X13443843Y6505700D01*
X13443381Y6506070D01*
X13442732Y6506255D01*
X13442641D01*
X13442363Y6506348D01*
X13441901D01*
X13441161Y6506440D01*
X13440051Y6506533D01*
X13438757D01*
X13437093Y6506625D01*
X13436169D01*
X13435059D01*
X13415552D01*
X13415459D01*
X13415274D01*
X13414903D01*
X13414534D01*
X13413332Y6506533D01*
X13412038Y6506440D01*
X13410558Y6506348D01*
X13409172Y6506163D01*
X13407970Y6505885D01*
X13407507Y6505700D01*
X13407045Y6505516D01*
X13406953Y6505423D01*
X13406676Y6505238D01*
X13406305Y6504868D01*
X13405936Y6504221D01*
X13405566Y6503482D01*
X13405196Y6502465D01*
X13404919Y6501170D01*
X13404826Y6499598D01*
Y6498766D01*
X13404919Y6497934D01*
X13405103Y6496825D01*
X13405380Y6495623D01*
X13405751Y6494328D01*
X13406213Y6493126D01*
X13406953Y6492017D01*
X13407045Y6491925D01*
X13407323Y6491555D01*
X13407877Y6491092D01*
X13408617Y6490445D01*
X13409541Y6489798D01*
X13410651Y6489151D01*
X13412038Y6488504D01*
X13413609Y6488041D01*
X13413702D01*
X13414072Y6487856D01*
X13414534Y6487672D01*
X13414996Y6487394D01*
X13415552Y6487024D01*
X13415921Y6486562D01*
X13416290Y6485915D01*
X13416383Y6485175D01*
Y6484805D01*
X13416290Y6484343D01*
X13416106Y6483881D01*
X13415921Y6483234D01*
X13415552Y6482679D01*
X13414996Y6482032D01*
X13414349Y6481477D01*
X13414256Y6481385D01*
X13413979Y6481200D01*
X13413518Y6481015D01*
X13412962Y6480737D01*
X13412131Y6480460D01*
X13411298Y6480183D01*
X13410281Y6480090D01*
X13409079Y6479998D01*
X13408987D01*
X13408801D01*
X13408524D01*
X13408154Y6480090D01*
X13407692D01*
X13407138Y6480183D01*
X13405658Y6480460D01*
X13403995Y6480922D01*
X13402145Y6481662D01*
X13400018Y6482679D01*
X13398909Y6483234D01*
X13397800Y6483973D01*
X13397707Y6484066D01*
X13397522Y6484158D01*
X13397153Y6484436D01*
X13396782Y6484713D01*
X13395857Y6485360D01*
X13395488Y6485730D01*
X13395210Y6486100D01*
X13395119Y6486285D01*
X13394933Y6486747D01*
X13394656Y6487487D01*
X13394563Y6488411D01*
X13395673Y6497842D01*
Y6528537D01*
X13395766Y6529184D01*
X13395950Y6530479D01*
X13396135Y6531126D01*
X13396320Y6531681D01*
X13396413Y6531773D01*
X13396506Y6531958D01*
X13396690Y6532235D01*
X13397060Y6532513D01*
X13397430Y6532883D01*
X13397984Y6533160D01*
X13398540Y6533345D01*
X13399278Y6533437D01*
X13399371D01*
X13399464D01*
X13399927Y6533345D01*
X13400481Y6533160D01*
X13400943Y6532883D01*
X13401035Y6532698D01*
X13401221Y6532513D01*
X13401405Y6532235D01*
X13401683Y6531866D01*
X13401961Y6531403D01*
X13402237Y6530756D01*
X13402608Y6530016D01*
X13402699Y6529924D01*
X13402792Y6529647D01*
X13403069Y6529184D01*
X13403439Y6528722D01*
X13403902Y6528167D01*
X13404456Y6527705D01*
X13405103Y6527243D01*
X13405843Y6526965D01*
X13405936D01*
X13406213Y6526873D01*
X13406860Y6526780D01*
X13407230D01*
X13407785Y6526688D01*
X13408339Y6526596D01*
X13409079D01*
X13409911Y6526503D01*
X13410835D01*
X13411945D01*
X13413147Y6526411D01*
X13414534D01*
X13416013D01*
X13416106D01*
X13416199D01*
X13416753D01*
X13417677D01*
X13418880D01*
X13420544D01*
X13422485Y6526503D01*
X13424704D01*
X13427293Y6526596D01*
X13427385D01*
X13427570D01*
X13427940D01*
X13428494D01*
X13429050D01*
X13429697Y6526688D01*
X13431268D01*
X13433025Y6526780D01*
X13434782D01*
X13436446Y6526873D01*
X13437926D01*
X13438110D01*
X13438480D01*
X13439035D01*
X13439774Y6526965D01*
X13441347Y6527058D01*
X13441994Y6527243D01*
X13442548Y6527428D01*
X13442641D01*
X13442732Y6527520D01*
X13443288Y6527890D01*
X13443565Y6528167D01*
X13443843Y6528537D01*
X13444119Y6528999D01*
X13444397Y6529647D01*
X13444490Y6529739D01*
X13444582Y6530109D01*
X13444768Y6530571D01*
X13444952Y6531126D01*
X13445506Y6532328D01*
X13445784Y6532790D01*
X13445969Y6533160D01*
X13446062Y6533252D01*
X13446153Y6533345D01*
X13446709Y6533807D01*
X13447449Y6534362D01*
X13447911Y6534454D01*
X13448373Y6534547D01*
X13448558D01*
X13448927Y6534454D01*
D02*
G37*
G36*
X13406953Y6479351D02*
X13407785Y6479258D01*
X13408894Y6478981D01*
X13410097Y6478518D01*
X13411391Y6477964D01*
X13412778Y6477039D01*
X13414072Y6475837D01*
X13414165Y6475745D01*
X13414349Y6475560D01*
X13414534Y6475282D01*
X13414903Y6474820D01*
X13415366Y6474173D01*
X13415736Y6473526D01*
X13416290Y6472694D01*
X13416753Y6471677D01*
X13417308Y6470567D01*
X13417770Y6469365D01*
X13418233Y6467978D01*
X13418602Y6466499D01*
X13418971Y6464835D01*
X13419249Y6463078D01*
X13419434Y6461229D01*
X13419527Y6459195D01*
Y6458363D01*
X13419620Y6457901D01*
X13419711Y6456884D01*
X13419804Y6456421D01*
X13419989Y6456144D01*
X13420081Y6456052D01*
X13420451Y6455774D01*
X13420729Y6455682D01*
X13421098Y6455589D01*
X13421654Y6455497D01*
X13422208D01*
X13422301D01*
X13422392D01*
X13422948D01*
X13423779D01*
X13424704Y6455589D01*
X13425813Y6455682D01*
X13426923Y6455867D01*
X13427940Y6456144D01*
X13428772Y6456421D01*
X13428865D01*
X13429050Y6456606D01*
X13429419Y6456791D01*
X13429790Y6457161D01*
X13430159Y6457531D01*
X13430528Y6458086D01*
X13430714Y6458733D01*
X13430806Y6459472D01*
Y6459657D01*
X13430714Y6460212D01*
X13430437Y6460952D01*
X13429974Y6461784D01*
X13429790Y6461969D01*
X13429604Y6462154D01*
X13429327Y6462431D01*
X13428957Y6462801D01*
X13428494Y6463171D01*
X13427940Y6463633D01*
X13427200Y6464188D01*
X13427107D01*
X13427016Y6464373D01*
X13426738Y6464558D01*
X13426369Y6464835D01*
X13425536Y6465575D01*
X13424519Y6466592D01*
X13423502Y6467794D01*
X13422670Y6469180D01*
X13422301Y6469828D01*
X13422115Y6470567D01*
X13421930Y6471399D01*
X13421838Y6472139D01*
Y6472509D01*
X13421930Y6472879D01*
X13422023Y6473341D01*
X13422392Y6474450D01*
X13422670Y6475005D01*
X13423039Y6475560D01*
X13423132Y6475652D01*
X13423317Y6475745D01*
X13423595Y6475930D01*
X13423965Y6476207D01*
X13424982Y6476669D01*
X13425536Y6476762D01*
X13426276Y6476854D01*
X13426369D01*
X13426646D01*
X13427016Y6476762D01*
X13427570Y6476669D01*
X13428125Y6476484D01*
X13428865Y6476207D01*
X13429604Y6475837D01*
X13430344Y6475282D01*
X13430437Y6475190D01*
X13430714Y6475005D01*
X13431084Y6474635D01*
X13431546Y6474081D01*
X13432101Y6473433D01*
X13432748Y6472694D01*
X13433302Y6471769D01*
X13433949Y6470752D01*
X13434042Y6470660D01*
X13434135Y6470382D01*
X13434320Y6470012D01*
X13434596Y6469458D01*
X13434874Y6468718D01*
X13435245Y6467886D01*
X13435614Y6466961D01*
X13435983Y6465852D01*
X13436354Y6464742D01*
X13436723Y6463448D01*
X13437370Y6460767D01*
X13437833Y6457808D01*
X13438017Y6456237D01*
Y6453925D01*
X13437926Y6453463D01*
Y6452816D01*
X13437833Y6452076D01*
X13437556Y6450319D01*
X13437093Y6448378D01*
X13436446Y6446251D01*
X13435522Y6444217D01*
X13434320Y6442183D01*
X13434227Y6442091D01*
X13433949Y6441721D01*
X13433580Y6441259D01*
X13433025Y6440704D01*
X13432286Y6440057D01*
X13431546Y6439410D01*
X13430621Y6438855D01*
X13429697Y6438393D01*
X13429604Y6438300D01*
X13429234Y6438208D01*
X13428680Y6438023D01*
X13427847Y6437838D01*
X13426831Y6437653D01*
X13425629Y6437468D01*
X13424242Y6437283D01*
X13422670D01*
X13416290Y6437375D01*
X13416199D01*
X13416013D01*
X13415643D01*
X13415274D01*
X13414072Y6437283D01*
X13412778D01*
X13411298Y6437191D01*
X13409911Y6437006D01*
X13408710Y6436728D01*
X13408247Y6436636D01*
X13407785Y6436451D01*
X13407600Y6436358D01*
X13407230Y6436174D01*
X13406767Y6435896D01*
X13406490Y6435526D01*
Y6435434D01*
X13406398Y6435157D01*
X13406305Y6434602D01*
X13406120Y6433770D01*
Y6433677D01*
X13406029Y6433585D01*
X13405751Y6433030D01*
X13405566Y6432845D01*
X13405196Y6432568D01*
X13404826Y6432475D01*
X13404271Y6432383D01*
X13404179D01*
X13403902D01*
X13403532Y6432475D01*
X13402977Y6432568D01*
X13402330Y6432753D01*
X13401590Y6433123D01*
X13400851Y6433492D01*
X13400018Y6434047D01*
X13399927Y6434140D01*
X13399649Y6434324D01*
X13399278Y6434694D01*
X13398724Y6435157D01*
X13398169Y6435711D01*
X13397522Y6436451D01*
X13396875Y6437283D01*
X13396320Y6438208D01*
X13396228Y6438393D01*
X13396043Y6438762D01*
X13395766Y6439410D01*
X13395488Y6440242D01*
X13395119Y6441259D01*
X13394841Y6442461D01*
X13394656Y6443663D01*
X13394563Y6444957D01*
Y6445142D01*
X13394656Y6445697D01*
X13394748Y6446529D01*
X13394933Y6447453D01*
X13395303Y6448655D01*
X13395857Y6449765D01*
X13396506Y6450967D01*
X13397522Y6451984D01*
X13397615D01*
X13397707Y6452168D01*
X13398077Y6452538D01*
X13398447Y6453093D01*
X13398631Y6453370D01*
Y6453833D01*
X13398540Y6454202D01*
X13398169Y6454942D01*
X13397984Y6455404D01*
X13397615Y6455867D01*
X13397522Y6456052D01*
X13397153Y6456606D01*
X13396690Y6457531D01*
X13396135Y6458640D01*
X13395488Y6460120D01*
X13395026Y6461784D01*
X13394656Y6463633D01*
X13394563Y6465575D01*
Y6466499D01*
X13394656Y6467516D01*
X13394841Y6468811D01*
X13395119Y6470197D01*
X13395581Y6471677D01*
X13396135Y6473156D01*
X13396875Y6474543D01*
X13396967Y6474635D01*
X13397153Y6474913D01*
X13397522Y6475375D01*
X13397984Y6475837D01*
X13398540Y6476392D01*
X13399278Y6477039D01*
X13400018Y6477594D01*
X13400943Y6478149D01*
X13401035Y6478241D01*
X13401405Y6478333D01*
X13401868Y6478518D01*
X13402608Y6478796D01*
X13403346Y6479073D01*
X13404271Y6479258D01*
X13405196Y6479351D01*
X13406213Y6479443D01*
X13406305D01*
X13406398D01*
X13406953Y6479351D01*
D02*
G37*
G36*
X13434412Y6431551D02*
X13435059Y6431273D01*
X13435614Y6430811D01*
X13447818Y6411395D01*
X13447911Y6411303D01*
X13448003Y6410841D01*
X13448096Y6410286D01*
X13448187Y6409546D01*
Y6405940D01*
X13448096Y6405571D01*
X13448003Y6405108D01*
X13447726Y6404739D01*
X13447633Y6404646D01*
X13447356Y6404554D01*
X13446709Y6404461D01*
X13446339Y6404369D01*
X13445784D01*
X13440051D01*
X13439960D01*
X13439867D01*
X13439404Y6404276D01*
X13438850Y6404184D01*
X13438388Y6403999D01*
X13438295Y6403906D01*
X13438203Y6403629D01*
X13438110Y6403074D01*
X13438017Y6402242D01*
Y6394106D01*
X13437926Y6393551D01*
X13437833Y6392904D01*
X13437648Y6392534D01*
X13437463Y6392349D01*
X13437370Y6392257D01*
X13436908Y6392072D01*
X13436630D01*
X13436169Y6391980D01*
X13435614Y6391887D01*
X13434967D01*
X13432471D01*
X13432378D01*
X13432101D01*
X13431824D01*
X13431361Y6391980D01*
X13430437Y6392072D01*
X13429974Y6392257D01*
X13429604Y6392442D01*
X13429512Y6392534D01*
X13429234Y6392904D01*
X13428957Y6393551D01*
X13428865Y6394014D01*
Y6402520D01*
X13428772Y6402982D01*
X13428680Y6403537D01*
X13428403Y6403999D01*
X13428310Y6404091D01*
X13428033Y6404184D01*
X13427570Y6404276D01*
X13426831Y6404369D01*
X13412500D01*
X13412408D01*
X13412038D01*
X13411575Y6404276D01*
X13411021Y6404184D01*
X13409634Y6403814D01*
X13408894Y6403537D01*
X13408247Y6403167D01*
X13408154Y6403074D01*
X13407970Y6402889D01*
X13407785Y6402612D01*
X13407507Y6402242D01*
X13406953Y6401225D01*
X13406767Y6400670D01*
X13406676Y6399931D01*
Y6399653D01*
X13406767Y6399284D01*
X13406860Y6398729D01*
X13407045Y6398082D01*
X13407323Y6397342D01*
X13407692Y6396510D01*
X13408247Y6395493D01*
X13408339Y6395400D01*
X13408432Y6395123D01*
X13408524Y6394661D01*
X13408617Y6394199D01*
Y6394014D01*
X13408432Y6393551D01*
X13408063Y6392997D01*
X13407785Y6392627D01*
X13407323Y6392349D01*
X13407230D01*
X13407138Y6392257D01*
X13406583Y6391887D01*
X13405658Y6391610D01*
X13404642Y6391517D01*
X13404549D01*
X13404179D01*
X13403717Y6391702D01*
X13403069Y6391887D01*
X13402330Y6392257D01*
X13401405Y6392719D01*
X13400574Y6393459D01*
X13399649Y6394383D01*
X13399556Y6394476D01*
X13399464Y6394661D01*
X13399187Y6395031D01*
X13398816Y6395493D01*
X13398447Y6396048D01*
X13398077Y6396695D01*
X13397615Y6397527D01*
X13397153Y6398452D01*
X13396597Y6399469D01*
X13396135Y6400578D01*
X13395396Y6403074D01*
X13394748Y6405848D01*
X13394656Y6407420D01*
X13394563Y6408992D01*
Y6409639D01*
X13394656Y6410101D01*
Y6410748D01*
X13394748Y6411395D01*
X13395026Y6412967D01*
X13395488Y6414724D01*
X13396135Y6416480D01*
X13397060Y6418330D01*
X13398354Y6419994D01*
X13398447D01*
X13398540Y6420179D01*
X13399094Y6420641D01*
X13399927Y6421288D01*
X13401035Y6422028D01*
X13402515Y6422767D01*
X13404179Y6423415D01*
X13406213Y6423877D01*
X13407323Y6423969D01*
X13408432Y6424062D01*
X13428125D01*
X13428310D01*
X13428587D01*
X13429050Y6424154D01*
X13429327Y6424339D01*
X13429419D01*
X13429512Y6424524D01*
X13429604Y6424894D01*
Y6430071D01*
X13429697Y6430534D01*
X13429790Y6431088D01*
X13429881Y6431273D01*
X13429974Y6431458D01*
X13430067D01*
X13430344Y6431551D01*
X13430899Y6431643D01*
X13431361Y6431736D01*
X13431824D01*
X13433765D01*
X13433858D01*
X13433949D01*
X13434412Y6431551D01*
D02*
G37*
G36*
X13416937Y6389391D02*
X13417586D01*
X13418417Y6389298D01*
X13419434Y6389113D01*
X13420451Y6388836D01*
X13421654Y6388559D01*
X13422855Y6388189D01*
X13424149Y6387634D01*
X13425444Y6387079D01*
X13426738Y6386340D01*
X13428125Y6385508D01*
X13429419Y6384491D01*
X13430714Y6383381D01*
X13431915Y6382087D01*
X13432008Y6381994D01*
X13432193Y6381717D01*
X13432471Y6381347D01*
X13432840Y6380792D01*
X13433302Y6380145D01*
X13433858Y6379313D01*
X13434412Y6378389D01*
X13434967Y6377279D01*
X13435522Y6376170D01*
X13436076Y6374875D01*
X13436630Y6373488D01*
X13437093Y6371917D01*
X13437463Y6370345D01*
X13437740Y6368681D01*
X13437926Y6366924D01*
X13438017Y6365075D01*
Y6364335D01*
X13437926Y6363781D01*
Y6363133D01*
X13437833Y6362394D01*
X13437740Y6361469D01*
X13437556Y6360545D01*
X13437093Y6358511D01*
X13436446Y6356199D01*
X13435522Y6353888D01*
X13434227Y6351669D01*
Y6351576D01*
X13434042Y6351391D01*
X13433858Y6351206D01*
X13433580Y6350837D01*
X13432840Y6349912D01*
X13431731Y6348895D01*
X13430437Y6347971D01*
X13428957Y6347046D01*
X13428125Y6346676D01*
X13427200Y6346491D01*
X13426276Y6346306D01*
X13425259Y6346214D01*
X13425073D01*
X13424612D01*
X13423965Y6346306D01*
X13423132Y6346491D01*
X13422208Y6346861D01*
X13421191Y6347323D01*
X13420174Y6347971D01*
X13419249Y6348803D01*
X13419157Y6348895D01*
X13418880Y6349172D01*
X13418510Y6349727D01*
X13418140Y6350374D01*
X13417770Y6351206D01*
X13417400Y6352224D01*
X13417123Y6353333D01*
X13417030Y6354535D01*
Y6355090D01*
X13417215Y6355737D01*
X13417400Y6356476D01*
X13417677Y6357401D01*
X13418140Y6358233D01*
X13418787Y6359065D01*
X13419620Y6359805D01*
X13419804Y6359897D01*
X13420081Y6359990D01*
X13420451Y6360175D01*
X13421005Y6360452D01*
X13421745Y6360729D01*
X13422670Y6361099D01*
X13423779Y6361469D01*
X13423965Y6361562D01*
X13424335Y6361654D01*
X13424889Y6362024D01*
X13425536Y6362394D01*
X13426183Y6363041D01*
X13426738Y6363781D01*
X13427107Y6364705D01*
X13427293Y6365815D01*
Y6366184D01*
X13427200Y6366647D01*
X13427016Y6367201D01*
X13426831Y6367756D01*
X13426460Y6368496D01*
X13425906Y6369143D01*
X13425259Y6369790D01*
X13425166Y6369883D01*
X13424889Y6370068D01*
X13424426Y6370252D01*
X13423872Y6370530D01*
X13423132Y6370900D01*
X13422301Y6371085D01*
X13421376Y6371269D01*
X13420267Y6371362D01*
X13420174D01*
X13420081D01*
X13419804D01*
X13419434Y6371269D01*
X13418417Y6371177D01*
X13417215Y6370900D01*
X13415828Y6370437D01*
X13414256Y6369790D01*
X13412778Y6368866D01*
X13411206Y6367664D01*
X13411113Y6367479D01*
X13410744Y6367109D01*
X13410188Y6366462D01*
X13409634Y6365630D01*
X13408987Y6364520D01*
X13408524Y6363226D01*
X13408154Y6361839D01*
X13407970Y6360175D01*
Y6359435D01*
X13408063Y6358973D01*
X13408154Y6357771D01*
X13408339Y6356661D01*
Y6356569D01*
X13408432Y6356384D01*
X13408524Y6356107D01*
X13408710Y6355644D01*
X13408894Y6355090D01*
X13409079Y6354442D01*
X13409448Y6353703D01*
X13409819Y6352871D01*
X13409911Y6352778D01*
X13410004Y6352501D01*
X13410097Y6352039D01*
Y6351299D01*
X13410004Y6351022D01*
X13409911Y6350652D01*
X13409726Y6350282D01*
X13409541Y6349820D01*
X13409172Y6349450D01*
X13408710Y6348988D01*
X13408617Y6348895D01*
X13408524Y6348803D01*
X13408247Y6348618D01*
X13407877Y6348433D01*
X13406860Y6348063D01*
X13406213Y6347878D01*
X13405566D01*
X13405473D01*
X13405196D01*
X13404826Y6347971D01*
X13404364Y6348063D01*
X13403717Y6348248D01*
X13403069Y6348525D01*
X13402330Y6348895D01*
X13401498Y6349450D01*
X13401405Y6349542D01*
X13401128Y6349727D01*
X13400758Y6350097D01*
X13400296Y6350559D01*
X13399741Y6351114D01*
X13399094Y6351854D01*
X13398540Y6352686D01*
X13397893Y6353610D01*
Y6353703D01*
X13397707Y6353888D01*
X13397615Y6354165D01*
X13397337Y6354535D01*
X13397153Y6355090D01*
X13396875Y6355737D01*
X13396506Y6356476D01*
X13396228Y6357309D01*
X13395581Y6359158D01*
X13395119Y6361377D01*
X13394748Y6363873D01*
X13394563Y6366647D01*
Y6367479D01*
X13394656Y6368126D01*
X13394748Y6368866D01*
X13394841Y6369790D01*
X13395026Y6370715D01*
X13395210Y6371824D01*
X13395766Y6374136D01*
X13396690Y6376632D01*
X13397244Y6377926D01*
X13397893Y6379128D01*
X13398724Y6380330D01*
X13399556Y6381532D01*
X13399649Y6381625D01*
X13399834Y6381902D01*
X13400203Y6382272D01*
X13400758Y6382734D01*
X13401405Y6383381D01*
X13402145Y6384028D01*
X13403069Y6384768D01*
X13404086Y6385508D01*
X13405196Y6386247D01*
X13406398Y6386987D01*
X13407785Y6387634D01*
X13409264Y6388281D01*
X13410835Y6388744D01*
X13412408Y6389113D01*
X13414165Y6389391D01*
X13416013Y6389483D01*
X13416106D01*
X13416476D01*
X13416937Y6389391D01*
D02*
G37*
G36*
X13400388Y6344087D02*
X13401035Y6343995D01*
X13401498Y6343718D01*
X13401590Y6343625D01*
X13401961Y6343255D01*
X13402237Y6342978D01*
X13402608Y6342516D01*
X13402977Y6342053D01*
X13403439Y6341406D01*
X13403532Y6341314D01*
X13403717Y6341129D01*
X13404086Y6340851D01*
X13404642Y6340574D01*
X13405380Y6340204D01*
X13406490Y6339834D01*
X13407877Y6339557D01*
X13409541Y6339280D01*
X13409634D01*
X13409819D01*
X13410097Y6339187D01*
X13410558D01*
X13411113Y6339095D01*
X13411760D01*
X13412592Y6339002D01*
X13413518Y6338910D01*
X13414626D01*
X13415828Y6338817D01*
X13417215D01*
X13418787Y6338725D01*
X13420451D01*
X13422208Y6338632D01*
X13424149D01*
X13426276D01*
X13426369D01*
X13426646D01*
X13427107D01*
X13427756D01*
X13428494D01*
X13429327D01*
X13431268Y6338725D01*
X13433395D01*
X13435522Y6338817D01*
X13437370Y6338910D01*
X13438203Y6339002D01*
X13438942Y6339095D01*
X13439035D01*
X13439127D01*
X13439682Y6339280D01*
X13440329Y6339465D01*
X13440884Y6339742D01*
X13440976Y6339834D01*
X13441254Y6340112D01*
X13441716Y6340667D01*
X13442178Y6341406D01*
X13442271Y6341499D01*
X13442456Y6341776D01*
X13442732Y6342238D01*
X13443103Y6342701D01*
X13443472Y6343163D01*
X13444028Y6343625D01*
X13444675Y6343902D01*
X13445322Y6343995D01*
X13445415D01*
X13445692D01*
X13446062Y6343902D01*
X13446524Y6343718D01*
X13447079Y6343533D01*
X13447633Y6343163D01*
X13448187Y6342701D01*
X13448743Y6342053D01*
X13448836Y6341961D01*
X13448927Y6341684D01*
X13449205Y6341129D01*
X13449574Y6340297D01*
X13450037Y6339280D01*
X13450499Y6337985D01*
X13451054Y6336321D01*
X13451608Y6334380D01*
Y6334287D01*
X13451701Y6334010D01*
X13451794Y6333640D01*
X13451979Y6333085D01*
X13452071Y6332438D01*
X13452255Y6331698D01*
X13452718Y6329942D01*
X13453088Y6328000D01*
X13453366Y6325966D01*
X13453642Y6324024D01*
X13453735Y6322175D01*
Y6321805D01*
X13453642Y6321343D01*
X13453458Y6320973D01*
X13453181Y6320511D01*
X13452811Y6320141D01*
X13452348Y6319864D01*
X13451608Y6319771D01*
X13433765Y6320326D01*
X13433672D01*
X13433302D01*
X13432748Y6320234D01*
X13432193Y6320141D01*
X13431638Y6319864D01*
X13431084Y6319587D01*
X13430714Y6319032D01*
X13430621Y6318385D01*
Y6318200D01*
X13430806Y6317737D01*
X13430991Y6317460D01*
X13431177Y6317090D01*
X13431546Y6316720D01*
X13432008Y6316351D01*
X13432101Y6316258D01*
X13432286Y6316166D01*
X13432562Y6315888D01*
X13432933Y6315611D01*
X13433949Y6314686D01*
X13435059Y6313484D01*
X13436076Y6311913D01*
X13437093Y6309971D01*
X13437463Y6308954D01*
X13437740Y6307845D01*
X13437926Y6306643D01*
X13438017Y6305348D01*
Y6304701D01*
X13437926Y6304239D01*
Y6303684D01*
X13437833Y6303037D01*
X13437463Y6301465D01*
X13437001Y6299801D01*
X13436261Y6297952D01*
X13435245Y6296195D01*
X13434596Y6295363D01*
X13433858Y6294623D01*
X13433765Y6294531D01*
X13433487Y6294346D01*
X13433118Y6294069D01*
X13432655Y6293606D01*
X13432008Y6293237D01*
X13431268Y6292867D01*
X13430437Y6292404D01*
X13429512Y6292127D01*
X13429419D01*
X13429050Y6292035D01*
X13428494Y6291850D01*
X13427663Y6291757D01*
X13426646Y6291572D01*
X13425444Y6291480D01*
X13423965Y6291387D01*
X13422301Y6291295D01*
X13406953Y6290925D01*
X13406860D01*
X13406676D01*
X13406305Y6290833D01*
X13405843D01*
X13404919Y6290648D01*
X13403995Y6290370D01*
X13403809Y6290278D01*
X13403346Y6289908D01*
X13403069Y6289538D01*
X13402608Y6289169D01*
X13402145Y6288614D01*
X13401683Y6288059D01*
Y6287967D01*
X13401498Y6287874D01*
X13401035Y6287412D01*
X13400296Y6287042D01*
X13399834Y6286950D01*
X13399371Y6286857D01*
X13399278D01*
X13399187D01*
X13398631Y6287042D01*
X13398354Y6287319D01*
X13397984Y6287597D01*
X13397522Y6288059D01*
X13397153Y6288614D01*
X13396690Y6289353D01*
X13396320Y6290278D01*
X13395857Y6291387D01*
X13395581Y6292682D01*
X13395303Y6294254D01*
X13395026Y6296103D01*
X13394933Y6298322D01*
X13394841Y6300726D01*
Y6301835D01*
X13394933Y6302667D01*
Y6303592D01*
X13395026Y6304609D01*
X13395396Y6306828D01*
X13395857Y6309139D01*
X13396228Y6310156D01*
X13396597Y6311081D01*
X13397153Y6311913D01*
X13397707Y6312467D01*
X13398354Y6312837D01*
X13399094Y6313022D01*
X13399187D01*
X13399556D01*
X13399834Y6312930D01*
X13400203Y6312837D01*
X13400296Y6312745D01*
X13400574Y6312560D01*
X13400851Y6312375D01*
X13401221Y6312098D01*
X13401683Y6311820D01*
X13402237Y6311358D01*
X13402330Y6311266D01*
X13402792Y6311081D01*
X13403069Y6310896D01*
X13403439Y6310803D01*
X13403995Y6310618D01*
X13404549Y6310433D01*
X13405289Y6310248D01*
X13406120Y6310064D01*
X13407045Y6309971D01*
X13408154Y6309786D01*
X13409357Y6309694D01*
X13410744Y6309601D01*
X13412222Y6309509D01*
X13413887D01*
X13413979D01*
X13414165D01*
X13414442D01*
X13414812D01*
X13415828Y6309601D01*
X13417030D01*
X13418417Y6309786D01*
X13419804Y6309971D01*
X13421098Y6310248D01*
X13422208Y6310618D01*
X13422392Y6310711D01*
X13422763Y6310896D01*
X13423317Y6311266D01*
X13423965Y6311728D01*
X13424612Y6312467D01*
X13425166Y6313300D01*
X13425536Y6314317D01*
X13425722Y6315611D01*
Y6316073D01*
X13425629Y6316535D01*
X13425444Y6317090D01*
X13425259Y6317737D01*
X13424889Y6318292D01*
X13424426Y6318939D01*
X13423779Y6319494D01*
X13423688D01*
X13423502Y6319587D01*
X13423132Y6319771D01*
X13422670Y6319864D01*
X13421930Y6320049D01*
X13421098Y6320234D01*
X13419989Y6320326D01*
X13418695D01*
X13410466D01*
X13410373D01*
X13410281D01*
X13410004D01*
X13409634Y6320234D01*
X13408710D01*
X13407692Y6320141D01*
X13406583Y6320049D01*
X13405658D01*
X13404826Y6319956D01*
X13404549Y6319864D01*
X13404364D01*
X13404179Y6319771D01*
X13403717Y6319494D01*
X13403346Y6319309D01*
X13402885Y6318939D01*
X13402330Y6318477D01*
X13401683Y6317922D01*
X13401498Y6317830D01*
X13401035Y6317460D01*
X13400388Y6317183D01*
X13399556Y6317090D01*
X13399464D01*
X13399371D01*
X13398816Y6317275D01*
X13398447Y6317460D01*
X13398077Y6317737D01*
X13397615Y6318107D01*
X13397244Y6318662D01*
X13396782Y6319309D01*
X13396320Y6320141D01*
X13395950Y6321158D01*
X13395581Y6322360D01*
X13395303Y6323747D01*
X13395026Y6325411D01*
X13394933Y6327353D01*
X13394841Y6329572D01*
Y6330959D01*
X13394933Y6331883D01*
X13395026Y6332993D01*
X13395119Y6334195D01*
X13395488Y6336876D01*
X13396043Y6339557D01*
X13396413Y6340759D01*
X13396875Y6341868D01*
X13397430Y6342793D01*
X13398169Y6343533D01*
X13398909Y6343995D01*
X13399741Y6344180D01*
X13399834D01*
X13399927D01*
X13400388Y6344087D01*
D02*
G37*
G36*
X13449297Y6263003D02*
X13449667Y6262911D01*
X13450130Y6262634D01*
X13450684Y6262356D01*
X13451147Y6261894D01*
X13451517Y6261339D01*
X13451608Y6261247D01*
X13451701Y6260969D01*
X13451886Y6260507D01*
X13452164Y6259860D01*
X13452533Y6259028D01*
X13452811Y6258011D01*
X13453181Y6256716D01*
X13453551Y6255145D01*
Y6255052D01*
X13453642Y6254867D01*
Y6254590D01*
X13453735Y6254220D01*
X13453828Y6253758D01*
X13453920Y6253203D01*
X13454105Y6251816D01*
X13454289Y6250152D01*
X13454382Y6248303D01*
X13454567Y6246361D01*
Y6242571D01*
X13454475Y6241369D01*
X13454382Y6239982D01*
X13454198Y6238410D01*
X13453735Y6235174D01*
Y6235082D01*
X13453642Y6234897D01*
Y6234619D01*
X13453458Y6234250D01*
X13453181Y6233325D01*
X13452718Y6232308D01*
X13451979Y6231291D01*
X13451147Y6230367D01*
X13450684Y6229997D01*
X13450130Y6229719D01*
X13449483Y6229534D01*
X13448836Y6229442D01*
X13448743D01*
X13448650D01*
X13448187Y6229534D01*
X13447540Y6229627D01*
X13446986Y6229997D01*
X13446893Y6230089D01*
X13446709Y6230274D01*
X13446524Y6230551D01*
X13446246Y6230921D01*
X13445969Y6231476D01*
X13445599Y6232123D01*
X13445137Y6232955D01*
Y6233048D01*
X13444952Y6233233D01*
X13444675Y6233602D01*
X13444305Y6233972D01*
X13443658Y6234435D01*
X13442918Y6234897D01*
X13441994Y6235267D01*
X13440884Y6235544D01*
X13440698D01*
X13440514Y6235637D01*
X13440237D01*
X13439867D01*
X13439313Y6235729D01*
X13438757D01*
X13438017Y6235821D01*
X13437186Y6235914D01*
X13436261D01*
X13435245Y6236006D01*
X13434042D01*
X13432748D01*
X13431268Y6236099D01*
X13429697D01*
X13427940D01*
X13427756D01*
X13427200D01*
X13426460D01*
X13425351D01*
X13424057D01*
X13422578Y6236006D01*
X13421005D01*
X13419342D01*
X13415921Y6235914D01*
X13414256Y6235821D01*
X13412592Y6235729D01*
X13411113Y6235637D01*
X13409819Y6235544D01*
X13408710Y6235452D01*
X13407877Y6235267D01*
X13407785D01*
X13407692Y6235174D01*
X13407138Y6235082D01*
X13406490Y6234804D01*
X13405936Y6234435D01*
X13405843Y6234342D01*
X13405566Y6233880D01*
X13405103Y6233233D01*
X13404549Y6232216D01*
X13404456Y6232123D01*
X13404271Y6231753D01*
X13403995Y6231291D01*
X13403624Y6230829D01*
X13403069Y6230274D01*
X13402422Y6229904D01*
X13401683Y6229534D01*
X13400851Y6229442D01*
X13400665D01*
X13400296Y6229534D01*
X13399741Y6229719D01*
X13399001Y6230089D01*
X13398169Y6230736D01*
X13397430Y6231661D01*
X13397060Y6232216D01*
X13396690Y6232863D01*
X13396413Y6233695D01*
X13396135Y6234619D01*
Y6234712D01*
X13396043Y6234897D01*
Y6235174D01*
X13395950Y6235637D01*
X13395857Y6236191D01*
X13395766Y6236838D01*
X13395581Y6237578D01*
X13395488Y6238410D01*
X13395396Y6239427D01*
X13395210Y6240444D01*
X13395026Y6242756D01*
X13394933Y6245437D01*
X13394841Y6248303D01*
Y6249597D01*
X13394933Y6250429D01*
X13395026Y6251539D01*
X13395119Y6252648D01*
X13395488Y6255237D01*
X13396135Y6257826D01*
X13396506Y6258935D01*
X13397060Y6260045D01*
X13397615Y6260877D01*
X13398354Y6261617D01*
X13399094Y6261986D01*
X13400018Y6262171D01*
X13400111D01*
X13400388D01*
X13400758Y6261986D01*
X13401221Y6261802D01*
X13401775Y6261524D01*
X13402330Y6261062D01*
X13402977Y6260415D01*
X13403624Y6259490D01*
X13403717Y6259398D01*
X13403902Y6259120D01*
X13404179Y6258750D01*
X13404549Y6258381D01*
X13405011Y6257918D01*
X13405658Y6257549D01*
X13406398Y6257179D01*
X13407138Y6256994D01*
X13407230D01*
X13407414D01*
X13407692Y6256901D01*
X13408154D01*
X13408710Y6256809D01*
X13409448Y6256716D01*
X13410373D01*
X13411482Y6256624D01*
X13412778Y6256532D01*
X13414256Y6256439D01*
X13415921D01*
X13417862Y6256347D01*
X13419896D01*
X13422301Y6256254D01*
X13424889D01*
X13427663D01*
X13427756D01*
X13428125D01*
X13428680D01*
X13429419D01*
X13430252D01*
X13431268Y6256347D01*
X13433487D01*
X13435892Y6256532D01*
X13438203Y6256716D01*
X13439220Y6256809D01*
X13440144Y6256994D01*
X13440976Y6257179D01*
X13441624Y6257364D01*
X13441716D01*
X13441901Y6257456D01*
X13442271Y6257641D01*
X13442641Y6257918D01*
X13443195Y6258288D01*
X13443658Y6258750D01*
X13444212Y6259398D01*
X13444768Y6260137D01*
X13444859Y6260230D01*
X13444952Y6260415D01*
X13445229Y6260692D01*
X13445506Y6261062D01*
X13446062Y6261894D01*
X13446431Y6262264D01*
X13446709Y6262541D01*
X13446802Y6262634D01*
X13447263Y6262819D01*
X13447818Y6263003D01*
X13448650Y6263096D01*
X13448743D01*
X13448927D01*
X13449297Y6263003D01*
D02*
G37*
G36*
X13429327Y6227315D02*
X13429697Y6227223D01*
X13430159Y6227038D01*
X13430621Y6226761D01*
X13431084Y6226391D01*
X13431453Y6225929D01*
X13431546Y6225836D01*
X13431638Y6225651D01*
X13431915Y6225189D01*
X13432193Y6224634D01*
X13432655Y6223802D01*
X13433118Y6222693D01*
X13433672Y6221398D01*
X13434227Y6219827D01*
Y6219734D01*
X13434320Y6219642D01*
X13434505Y6219087D01*
X13434782Y6218347D01*
X13435059Y6217330D01*
X13435429Y6216128D01*
X13435892Y6214834D01*
X13436630Y6211968D01*
X13436723Y6211783D01*
X13436816Y6211321D01*
X13437001Y6210673D01*
X13437186Y6209934D01*
X13437463Y6208177D01*
X13437648Y6207437D01*
Y6206605D01*
X13437556Y6206051D01*
X13437279Y6205311D01*
X13436723Y6204664D01*
X13436539Y6204479D01*
X13436076Y6204201D01*
X13435429Y6203924D01*
X13434505Y6203739D01*
X13434320D01*
X13434042D01*
X13433487Y6203832D01*
X13433395D01*
X13433302D01*
X13432840D01*
X13432748D01*
X13432562D01*
X13432193Y6203739D01*
X13431824Y6203647D01*
X13431453Y6203462D01*
X13431084Y6203092D01*
X13430899Y6202722D01*
X13430806Y6202167D01*
Y6201983D01*
X13430991Y6201520D01*
X13431177Y6201150D01*
X13431546Y6200781D01*
X13431915Y6200411D01*
X13432471Y6199948D01*
X13432562D01*
X13432655Y6199764D01*
X13432933Y6199579D01*
X13433302Y6199301D01*
X13434135Y6198469D01*
X13435152Y6197267D01*
X13436076Y6195788D01*
X13436908Y6193939D01*
X13437279Y6192922D01*
X13437556Y6191812D01*
X13437648Y6190610D01*
X13437740Y6189316D01*
Y6188391D01*
X13437556Y6187374D01*
X13437370Y6186173D01*
X13437093Y6184693D01*
X13436539Y6183214D01*
X13435892Y6181642D01*
X13434967Y6180163D01*
X13434874Y6180070D01*
X13434596Y6179701D01*
X13434135Y6179238D01*
X13433580Y6178684D01*
X13432933Y6178036D01*
X13432101Y6177482D01*
X13431177Y6176927D01*
X13430159Y6176465D01*
X13430067Y6176372D01*
X13429697Y6176280D01*
X13429050Y6176095D01*
X13428217Y6175910D01*
X13427107Y6175633D01*
X13425722Y6175448D01*
X13424149Y6175170D01*
X13422301Y6175078D01*
X13407323Y6174523D01*
X13407230D01*
X13407045D01*
X13406767Y6174431D01*
X13406398D01*
X13405566Y6174246D01*
X13404826Y6173968D01*
X13404642Y6173876D01*
X13404456Y6173691D01*
X13404086Y6173506D01*
X13403717Y6173136D01*
X13403162Y6172674D01*
X13402515Y6172119D01*
X13401683Y6171380D01*
X13401590Y6171287D01*
X13401221Y6171010D01*
X13400665Y6170825D01*
X13399834Y6170732D01*
X13399741D01*
X13399371Y6170825D01*
X13398909Y6170917D01*
X13398262Y6171102D01*
X13397615Y6171564D01*
X13396967Y6172119D01*
X13396320Y6172951D01*
X13395857Y6174061D01*
Y6174246D01*
X13395673Y6174708D01*
X13395581Y6175078D01*
Y6175540D01*
X13395488Y6176095D01*
X13395396Y6176834D01*
X13395303Y6177574D01*
X13395210Y6178499D01*
X13395119Y6179423D01*
X13395026Y6180533D01*
X13394933Y6181735D01*
Y6183029D01*
X13394841Y6184508D01*
Y6187005D01*
X13394933Y6188022D01*
Y6189316D01*
X13395026Y6190610D01*
X13395210Y6191997D01*
X13395488Y6193292D01*
X13395766Y6194309D01*
X13395857Y6194401D01*
X13395950Y6194678D01*
X13396228Y6195141D01*
X13396597Y6195603D01*
X13397153Y6196065D01*
X13397707Y6196528D01*
X13398447Y6196805D01*
X13399278Y6196897D01*
X13399464D01*
X13399741D01*
X13400111Y6196805D01*
X13400481Y6196620D01*
X13400574Y6196528D01*
X13400943Y6196250D01*
X13401498Y6195788D01*
X13401961Y6195326D01*
X13402515Y6194863D01*
X13402608Y6194771D01*
X13402977Y6194586D01*
X13403255Y6194494D01*
X13403624Y6194309D01*
X13404086Y6194216D01*
X13404642Y6194031D01*
X13405380Y6193846D01*
X13406213Y6193754D01*
X13407138Y6193569D01*
X13408247Y6193477D01*
X13409541Y6193384D01*
X13410928Y6193292D01*
X13412592Y6193199D01*
X13414349D01*
X13414442D01*
X13414626D01*
X13414903D01*
X13415366D01*
X13416383Y6193292D01*
X13417677Y6193384D01*
X13419064Y6193569D01*
X13420544Y6193754D01*
X13421838Y6194124D01*
X13423039Y6194586D01*
X13423132Y6194678D01*
X13423410Y6194771D01*
X13423779Y6195048D01*
X13424242Y6195511D01*
X13424612Y6196065D01*
X13424982Y6196805D01*
X13425259Y6197637D01*
X13425351Y6198654D01*
Y6199116D01*
X13425259Y6199579D01*
X13425166Y6200226D01*
X13424889Y6200873D01*
X13424612Y6201520D01*
X13424149Y6202167D01*
X13423502Y6202630D01*
X13423410D01*
X13423132Y6202815D01*
X13422670Y6202907D01*
X13422023Y6203092D01*
X13421098Y6203277D01*
X13419896Y6203462D01*
X13418510Y6203554D01*
X13416846Y6203647D01*
X13408432D01*
X13408339D01*
X13408063D01*
X13407600D01*
X13407045D01*
X13405936Y6203554D01*
X13405380Y6203462D01*
X13405011Y6203369D01*
X13404826Y6203277D01*
X13404549Y6203184D01*
X13404179Y6202907D01*
X13403717Y6202630D01*
X13403069Y6202260D01*
X13402330Y6201798D01*
X13401405Y6201150D01*
X13401221Y6201058D01*
X13400851Y6200873D01*
X13400296Y6200781D01*
X13399649Y6200688D01*
X13399556D01*
X13399278Y6200781D01*
X13398816Y6200873D01*
X13398262Y6201150D01*
X13397615Y6201520D01*
X13397060Y6202167D01*
X13396413Y6203000D01*
X13395950Y6204201D01*
Y6204386D01*
X13395766Y6204849D01*
X13395581Y6205681D01*
X13395396Y6206883D01*
X13395210Y6208362D01*
X13395026Y6210304D01*
X13394933Y6212523D01*
X13394841Y6215111D01*
Y6216221D01*
X13394933Y6216960D01*
X13395026Y6217885D01*
X13395119Y6218810D01*
X13395488Y6221028D01*
X13396043Y6223155D01*
X13396413Y6224172D01*
X13396875Y6225097D01*
X13397430Y6225836D01*
X13398077Y6226391D01*
X13398816Y6226853D01*
X13399649Y6226946D01*
X13399741D01*
X13399834D01*
X13400203Y6226853D01*
X13400665Y6226761D01*
X13401128Y6226576D01*
X13401221Y6226483D01*
X13401498Y6226206D01*
X13402052Y6225651D01*
X13402330Y6225281D01*
X13402699Y6224819D01*
Y6224727D01*
X13402885Y6224634D01*
X13403255Y6224264D01*
X13403809Y6223802D01*
X13404549Y6223432D01*
X13404642D01*
X13404733Y6223340D01*
X13405103D01*
X13405566Y6223247D01*
X13406213Y6223155D01*
X13407138Y6223062D01*
X13408247Y6222970D01*
X13409634Y6222878D01*
X13409726D01*
X13409819D01*
X13410097D01*
X13410466Y6222785D01*
X13411482D01*
X13412778Y6222693D01*
X13414256D01*
X13416013Y6222600D01*
X13417862D01*
X13419804D01*
X13419896D01*
X13420267D01*
X13420821D01*
X13421376Y6222693D01*
X13422670Y6222785D01*
X13423225Y6222878D01*
X13423688Y6223062D01*
X13423872Y6223155D01*
X13424057Y6223340D01*
X13424335Y6223525D01*
X13424612Y6223895D01*
X13424982Y6224357D01*
X13425444Y6224912D01*
X13425906Y6225651D01*
X13425999Y6225744D01*
X13426091Y6225929D01*
X13426646Y6226483D01*
X13427570Y6227131D01*
X13428125Y6227315D01*
X13428680Y6227408D01*
X13428772D01*
X13428957D01*
X13429327Y6227315D01*
D02*
G37*
G36*
X11779375Y5943055D02*
X11780022D01*
X11780762Y5942962D01*
X11781686Y5942870D01*
X11782611Y5942685D01*
X11784645Y5942223D01*
X11786956Y5941576D01*
X11789268Y5940651D01*
X11791487Y5939357D01*
X11791579D01*
X11791764Y5939172D01*
X11791949Y5938987D01*
X11792319Y5938709D01*
X11793243Y5937970D01*
X11794260Y5936860D01*
X11795185Y5935566D01*
X11796110Y5934087D01*
X11796479Y5933255D01*
X11796664Y5932330D01*
X11796849Y5931405D01*
X11796942Y5930388D01*
Y5930204D01*
Y5929741D01*
X11796849Y5929094D01*
X11796664Y5928262D01*
X11796294Y5927337D01*
X11795832Y5926320D01*
X11795185Y5925303D01*
X11794353Y5924379D01*
X11794260Y5924286D01*
X11793983Y5924009D01*
X11793428Y5923639D01*
X11792781Y5923269D01*
X11791949Y5922900D01*
X11790932Y5922530D01*
X11789822Y5922252D01*
X11788621Y5922160D01*
X11788066D01*
X11787419Y5922345D01*
X11786679Y5922530D01*
X11785754Y5922807D01*
X11784922Y5923269D01*
X11784090Y5923917D01*
X11783351Y5924749D01*
X11783258Y5924934D01*
X11783166Y5925211D01*
X11782981Y5925581D01*
X11782703Y5926135D01*
X11782426Y5926875D01*
X11782056Y5927800D01*
X11781686Y5928909D01*
X11781594Y5929094D01*
X11781501Y5929464D01*
X11781132Y5930019D01*
X11780762Y5930666D01*
X11780115Y5931313D01*
X11779375Y5931868D01*
X11778450Y5932238D01*
X11777341Y5932422D01*
X11776971D01*
X11776509Y5932330D01*
X11775954Y5932145D01*
X11775399Y5931960D01*
X11774660Y5931590D01*
X11774013Y5931036D01*
X11773365Y5930388D01*
X11773273Y5930296D01*
X11773088Y5930019D01*
X11772903Y5929556D01*
X11772626Y5929002D01*
X11772256Y5928262D01*
X11772071Y5927430D01*
X11771886Y5926505D01*
X11771794Y5925396D01*
Y5925303D01*
Y5925211D01*
Y5924934D01*
X11771886Y5924564D01*
X11771978Y5923547D01*
X11772256Y5922345D01*
X11772718Y5920958D01*
X11773365Y5919386D01*
X11774290Y5917907D01*
X11775492Y5916335D01*
X11775677Y5916243D01*
X11776047Y5915873D01*
X11776694Y5915318D01*
X11777526Y5914763D01*
X11778635Y5914116D01*
X11779930Y5913654D01*
X11781317Y5913284D01*
X11782981Y5913099D01*
X11783720D01*
X11784183Y5913192D01*
X11785385Y5913284D01*
X11786494Y5913469D01*
X11786587D01*
X11786771Y5913561D01*
X11787049Y5913654D01*
X11787511Y5913839D01*
X11788066Y5914024D01*
X11788713Y5914209D01*
X11789453Y5914578D01*
X11790285Y5914948D01*
X11790377Y5915041D01*
X11790655Y5915133D01*
X11791117Y5915226D01*
X11791857D01*
X11792134Y5915133D01*
X11792504Y5915041D01*
X11792874Y5914856D01*
X11793336Y5914671D01*
X11793706Y5914301D01*
X11794168Y5913839D01*
X11794260Y5913746D01*
X11794353Y5913654D01*
X11794538Y5913377D01*
X11794723Y5913007D01*
X11795092Y5911990D01*
X11795277Y5911343D01*
Y5910695D01*
Y5910603D01*
Y5910325D01*
X11795185Y5909956D01*
X11795092Y5909493D01*
X11794908Y5908846D01*
X11794630Y5908199D01*
X11794260Y5907459D01*
X11793706Y5906627D01*
X11793613Y5906535D01*
X11793428Y5906257D01*
X11793058Y5905888D01*
X11792596Y5905425D01*
X11792041Y5904871D01*
X11791302Y5904223D01*
X11790470Y5903669D01*
X11789545Y5903021D01*
X11789453D01*
X11789268Y5902837D01*
X11788990Y5902744D01*
X11788621Y5902467D01*
X11788066Y5902282D01*
X11787419Y5902004D01*
X11786679Y5901635D01*
X11785847Y5901357D01*
X11783998Y5900710D01*
X11781779Y5900248D01*
X11779283Y5899878D01*
X11776509Y5899693D01*
X11775677D01*
X11775030Y5899786D01*
X11774290Y5899878D01*
X11773365Y5899970D01*
X11772441Y5900155D01*
X11771331Y5900340D01*
X11769020Y5900895D01*
X11766524Y5901820D01*
X11765229Y5902374D01*
X11764027Y5903021D01*
X11762825Y5903854D01*
X11761623Y5904686D01*
X11761531Y5904778D01*
X11761254Y5904963D01*
X11760884Y5905333D01*
X11760421Y5905888D01*
X11759774Y5906535D01*
X11759127Y5907274D01*
X11758387Y5908199D01*
X11757648Y5909216D01*
X11756908Y5910325D01*
X11756169Y5911527D01*
X11755521Y5912914D01*
X11754874Y5914394D01*
X11754412Y5915965D01*
X11754042Y5917537D01*
X11753765Y5919294D01*
X11753672Y5921143D01*
Y5921235D01*
Y5921605D01*
X11753765Y5922067D01*
Y5922715D01*
X11753857Y5923547D01*
X11754042Y5924564D01*
X11754319Y5925581D01*
X11754597Y5926783D01*
X11754967Y5927985D01*
X11755521Y5929279D01*
X11756076Y5930573D01*
X11756816Y5931868D01*
X11757648Y5933255D01*
X11758665Y5934549D01*
X11759774Y5935843D01*
X11761069Y5937045D01*
X11761161Y5937138D01*
X11761439Y5937323D01*
X11761808Y5937600D01*
X11762363Y5937970D01*
X11763010Y5938432D01*
X11763842Y5938987D01*
X11764767Y5939542D01*
X11765876Y5940096D01*
X11766986Y5940651D01*
X11768280Y5941206D01*
X11769667Y5941761D01*
X11771239Y5942223D01*
X11772811Y5942593D01*
X11774475Y5942870D01*
X11776231Y5943055D01*
X11778081Y5943147D01*
X11778820D01*
X11779375Y5943055D01*
D02*
G37*
G36*
X11996831Y5942685D02*
X11997571Y5942500D01*
X11998311Y5942223D01*
X11999050Y5941668D01*
X11999790Y5940836D01*
X12000067Y5940374D01*
X12000252Y5939727D01*
X12000437Y5939079D01*
Y5938247D01*
Y5938155D01*
Y5937877D01*
Y5937230D01*
Y5936860D01*
Y5936306D01*
Y5936213D01*
Y5935936D01*
Y5935474D01*
Y5934919D01*
X12000345Y5934179D01*
Y5933347D01*
Y5932422D01*
Y5931405D01*
Y5912637D01*
Y5912544D01*
Y5912360D01*
X12000437Y5912082D01*
X12000622Y5911712D01*
X12000900Y5911343D01*
X12001362Y5910880D01*
X12001917Y5910418D01*
X12002749Y5909956D01*
X12002841D01*
X12003118Y5909771D01*
X12003396Y5909493D01*
X12003858Y5909216D01*
X12004228Y5908754D01*
X12004505Y5908291D01*
X12004783Y5907644D01*
X12004875Y5906997D01*
Y5906812D01*
X12004783Y5906350D01*
X12004413Y5905703D01*
X12004136Y5905240D01*
X12003766Y5904871D01*
X12003303Y5904408D01*
X12002656Y5903854D01*
X12001917Y5903391D01*
X12001084Y5902929D01*
X11999975Y5902374D01*
X11998773Y5901912D01*
X11997386Y5901542D01*
X11995814Y5901080D01*
X11995537D01*
X11995260Y5900987D01*
X11994890Y5900895D01*
X11993873Y5900710D01*
X11992486Y5900525D01*
X11990914Y5900340D01*
X11989158Y5900155D01*
X11987309Y5900063D01*
X11985459Y5899970D01*
X11984812D01*
X11984350Y5900063D01*
X11983425Y5900155D01*
X11983056Y5900248D01*
X11982686Y5900433D01*
X11982593Y5900525D01*
X11982316Y5900803D01*
X11982039Y5901357D01*
X11981946Y5901727D01*
X11981854Y5902189D01*
Y5902282D01*
X11981761Y5902559D01*
Y5903021D01*
X11981576Y5903484D01*
X11981391Y5903946D01*
X11981114Y5904408D01*
X11980652Y5904686D01*
X11980189Y5904778D01*
X11979912D01*
X11979635Y5904686D01*
X11979265Y5904501D01*
X11979172Y5904408D01*
X11979080D01*
X11978803Y5904223D01*
X11978433Y5904038D01*
X11978063Y5903761D01*
X11977416Y5903299D01*
X11976676Y5902837D01*
X11976491Y5902744D01*
X11975936Y5902374D01*
X11975104Y5901912D01*
X11973902Y5901450D01*
X11972516Y5900895D01*
X11970944Y5900433D01*
X11969280Y5900063D01*
X11967430Y5899970D01*
X11966691D01*
X11966136Y5900063D01*
X11965489Y5900155D01*
X11964657Y5900248D01*
X11962993Y5900525D01*
X11961051Y5901080D01*
X11959202Y5901912D01*
X11958277Y5902467D01*
X11957445Y5903114D01*
X11956613Y5903761D01*
X11955966Y5904593D01*
Y5904686D01*
X11955873Y5904778D01*
X11955689Y5905055D01*
X11955504Y5905333D01*
X11955319Y5905795D01*
X11955041Y5906350D01*
X11954764Y5906997D01*
X11954579Y5907737D01*
X11954302Y5908661D01*
X11954024Y5909586D01*
X11953747Y5910695D01*
X11953562Y5911897D01*
X11953377Y5913192D01*
X11953192Y5914671D01*
X11953100Y5916243D01*
Y5917907D01*
Y5918092D01*
Y5918462D01*
Y5919109D01*
Y5919941D01*
Y5920958D01*
Y5921882D01*
Y5922900D01*
Y5923917D01*
Y5924009D01*
Y5924101D01*
Y5924656D01*
Y5925303D01*
Y5925858D01*
Y5926043D01*
Y5926413D01*
Y5927060D01*
X11953007Y5927892D01*
X11952822Y5929649D01*
X11952638Y5930481D01*
X11952453Y5931221D01*
Y5931313D01*
X11952360Y5931498D01*
X11952175Y5931868D01*
X11951898Y5932238D01*
X11951620Y5932607D01*
X11951158Y5933070D01*
X11950696Y5933532D01*
X11950049Y5933902D01*
X11949956D01*
X11949771Y5934087D01*
X11949124Y5934364D01*
X11948477Y5934826D01*
X11948107Y5935104D01*
X11947922Y5935289D01*
X11947830Y5935381D01*
X11947737Y5935658D01*
X11947645Y5936121D01*
X11947552Y5936675D01*
Y5936860D01*
X11947645Y5937230D01*
X11947830Y5937785D01*
X11948200Y5938432D01*
X11948754Y5939172D01*
X11949586Y5939911D01*
X11950141Y5940189D01*
X11950881Y5940559D01*
X11951620Y5940836D01*
X11952453Y5941021D01*
X11952545D01*
X11952822Y5941113D01*
X11953285Y5941206D01*
X11953932Y5941298D01*
X11954672Y5941391D01*
X11955504Y5941576D01*
X11956521Y5941761D01*
X11957630Y5941945D01*
X11958832Y5942038D01*
X11960219Y5942223D01*
X11962993Y5942500D01*
X11965951Y5942685D01*
X11969095Y5942778D01*
X11969465D01*
X11969927Y5942685D01*
X11970389Y5942500D01*
X11970759Y5942223D01*
X11971221Y5941853D01*
X11971499Y5941391D01*
X11971591Y5940651D01*
Y5917630D01*
Y5917537D01*
Y5917352D01*
Y5916982D01*
X11971683Y5916520D01*
X11971868Y5915318D01*
X11972238Y5913931D01*
X11972793Y5912544D01*
X11973625Y5911435D01*
X11974180Y5910880D01*
X11974919Y5910510D01*
X11975659Y5910325D01*
X11976491Y5910233D01*
X11976676D01*
X11977231Y5910325D01*
X11977970Y5910510D01*
X11978895Y5910880D01*
X11978987D01*
X11979080Y5910973D01*
X11979542Y5911343D01*
X11980097Y5911897D01*
X11980559Y5912637D01*
Y5912729D01*
X11980744Y5913099D01*
X11980837Y5913654D01*
X11981022Y5914578D01*
X11981206Y5915780D01*
X11981299Y5916520D01*
Y5917352D01*
X11981391Y5918277D01*
X11981484Y5919386D01*
Y5920496D01*
Y5921790D01*
Y5921882D01*
Y5922067D01*
Y5922437D01*
Y5922900D01*
Y5923454D01*
Y5924101D01*
X11981391Y5925581D01*
Y5927152D01*
X11981299Y5928724D01*
X11981206Y5930204D01*
X11981114Y5930758D01*
X11981022Y5931313D01*
Y5931405D01*
Y5931498D01*
X11980837Y5931868D01*
X11980652Y5932330D01*
X11980374Y5932792D01*
X11980282Y5932885D01*
X11980004Y5933162D01*
X11979542Y5933532D01*
X11978803Y5933994D01*
X11978710Y5934087D01*
X11978433Y5934272D01*
X11978063Y5934549D01*
X11977601Y5934919D01*
X11977138Y5935381D01*
X11976769Y5935936D01*
X11976491Y5936491D01*
X11976399Y5937230D01*
Y5937323D01*
X11976491Y5937692D01*
X11976584Y5938062D01*
X11976953Y5938617D01*
X11977416Y5939264D01*
X11978155Y5939819D01*
X11979172Y5940374D01*
X11979820Y5940651D01*
X11980559Y5940836D01*
X11980652D01*
X11980929Y5940928D01*
X11981391Y5941021D01*
X11981946Y5941113D01*
X11982686Y5941298D01*
X11983518Y5941483D01*
X11984442Y5941668D01*
X11985459Y5941853D01*
X11987863Y5942130D01*
X11990544Y5942500D01*
X11993318Y5942685D01*
X11996184Y5942778D01*
X11996369D01*
X11996831Y5942685D01*
D02*
G37*
G36*
X11821812Y5958772D02*
X11822182Y5958588D01*
X11822644Y5958310D01*
X11823014Y5957940D01*
X11823292Y5957478D01*
X11823384Y5956738D01*
X11822829Y5938894D01*
Y5938802D01*
Y5938432D01*
X11822922Y5937877D01*
X11823014Y5937323D01*
X11823292Y5936768D01*
X11823569Y5936213D01*
X11824124Y5935843D01*
X11824771Y5935751D01*
X11824956D01*
X11825418Y5935936D01*
X11825695Y5936121D01*
X11826065Y5936306D01*
X11826435Y5936675D01*
X11826805Y5937138D01*
X11826897Y5937230D01*
X11826990Y5937415D01*
X11827267Y5937692D01*
X11827545Y5938062D01*
X11828469Y5939079D01*
X11829671Y5940189D01*
X11831243Y5941206D01*
X11833184Y5942223D01*
X11834201Y5942593D01*
X11835311Y5942870D01*
X11836513Y5943055D01*
X11837807Y5943147D01*
X11838454D01*
X11838917Y5943055D01*
X11839471D01*
X11840119Y5942962D01*
X11841690Y5942593D01*
X11843355Y5942130D01*
X11845204Y5941391D01*
X11846960Y5940374D01*
X11847792Y5939727D01*
X11848532Y5938987D01*
X11848625Y5938894D01*
X11848809Y5938617D01*
X11849087Y5938247D01*
X11849549Y5937785D01*
X11849919Y5937138D01*
X11850289Y5936398D01*
X11850751Y5935566D01*
X11851028Y5934641D01*
Y5934549D01*
X11851121Y5934179D01*
X11851306Y5933624D01*
X11851398Y5932792D01*
X11851583Y5931775D01*
X11851676Y5930573D01*
X11851768Y5929094D01*
X11851860Y5927430D01*
X11852230Y5912082D01*
Y5911990D01*
Y5911805D01*
X11852323Y5911435D01*
Y5910973D01*
X11852508Y5910048D01*
X11852785Y5909124D01*
X11852877Y5908939D01*
X11853247Y5908476D01*
X11853617Y5908199D01*
X11853987Y5907737D01*
X11854542Y5907274D01*
X11855096Y5906812D01*
X11855189D01*
X11855281Y5906627D01*
X11855744Y5906165D01*
X11856113Y5905425D01*
X11856206Y5904963D01*
X11856298Y5904501D01*
Y5904408D01*
Y5904316D01*
X11856113Y5903761D01*
X11855836Y5903484D01*
X11855559Y5903114D01*
X11855096Y5902652D01*
X11854542Y5902282D01*
X11853802Y5901820D01*
X11852877Y5901450D01*
X11851768Y5900987D01*
X11850474Y5900710D01*
X11848902Y5900433D01*
X11847053Y5900155D01*
X11844834Y5900063D01*
X11842430Y5899970D01*
X11841320D01*
X11840488Y5900063D01*
X11839564D01*
X11838547Y5900155D01*
X11836328Y5900525D01*
X11834016Y5900987D01*
X11832999Y5901357D01*
X11832075Y5901727D01*
X11831243Y5902282D01*
X11830688Y5902837D01*
X11830318Y5903484D01*
X11830133Y5904223D01*
Y5904316D01*
Y5904686D01*
X11830226Y5904963D01*
X11830318Y5905333D01*
X11830411Y5905425D01*
X11830596Y5905703D01*
X11830781Y5905980D01*
X11831058Y5906350D01*
X11831335Y5906812D01*
X11831798Y5907367D01*
X11831890Y5907459D01*
X11832075Y5907922D01*
X11832260Y5908199D01*
X11832352Y5908569D01*
X11832537Y5909124D01*
X11832722Y5909678D01*
X11832907Y5910418D01*
X11833092Y5911250D01*
X11833184Y5912175D01*
X11833369Y5913284D01*
X11833462Y5914486D01*
X11833554Y5915873D01*
X11833647Y5917352D01*
Y5919016D01*
Y5919109D01*
Y5919294D01*
Y5919571D01*
Y5919941D01*
X11833554Y5920958D01*
Y5922160D01*
X11833369Y5923547D01*
X11833184Y5924934D01*
X11832907Y5926228D01*
X11832537Y5927337D01*
X11832445Y5927522D01*
X11832260Y5927892D01*
X11831890Y5928447D01*
X11831428Y5929094D01*
X11830688Y5929741D01*
X11829856Y5930296D01*
X11828839Y5930666D01*
X11827545Y5930851D01*
X11827082D01*
X11826620Y5930758D01*
X11826065Y5930573D01*
X11825418Y5930388D01*
X11824863Y5930019D01*
X11824216Y5929556D01*
X11823661Y5928909D01*
Y5928817D01*
X11823569Y5928632D01*
X11823384Y5928262D01*
X11823292Y5927800D01*
X11823107Y5927060D01*
X11822922Y5926228D01*
X11822829Y5925118D01*
Y5923824D01*
Y5915595D01*
Y5915503D01*
Y5915411D01*
Y5915133D01*
X11822922Y5914763D01*
Y5913839D01*
X11823014Y5912822D01*
X11823107Y5911712D01*
Y5910788D01*
X11823199Y5909956D01*
X11823292Y5909678D01*
Y5909493D01*
X11823384Y5909308D01*
X11823661Y5908846D01*
X11823846Y5908476D01*
X11824216Y5908014D01*
X11824678Y5907459D01*
X11825233Y5906812D01*
X11825326Y5906627D01*
X11825695Y5906165D01*
X11825973Y5905518D01*
X11826065Y5904686D01*
Y5904593D01*
Y5904501D01*
X11825880Y5903946D01*
X11825695Y5903576D01*
X11825418Y5903206D01*
X11825048Y5902744D01*
X11824493Y5902374D01*
X11823846Y5901912D01*
X11823014Y5901450D01*
X11821997Y5901080D01*
X11820795Y5900710D01*
X11819408Y5900433D01*
X11817744Y5900155D01*
X11815803Y5900063D01*
X11813584Y5899970D01*
X11812197D01*
X11811272Y5900063D01*
X11810163Y5900155D01*
X11808961Y5900248D01*
X11806280Y5900618D01*
X11803598Y5901172D01*
X11802397Y5901542D01*
X11801287Y5902004D01*
X11800362Y5902559D01*
X11799623Y5903299D01*
X11799161Y5904038D01*
X11798976Y5904871D01*
Y5904963D01*
Y5905055D01*
X11799068Y5905518D01*
X11799161Y5906165D01*
X11799438Y5906627D01*
X11799530Y5906720D01*
X11799900Y5907090D01*
X11800178Y5907367D01*
X11800640Y5907737D01*
X11801102Y5908107D01*
X11801749Y5908569D01*
X11801842Y5908661D01*
X11802027Y5908846D01*
X11802304Y5909216D01*
X11802581Y5909771D01*
X11802951Y5910510D01*
X11803321Y5911620D01*
X11803598Y5913007D01*
X11803876Y5914671D01*
Y5914763D01*
Y5914948D01*
X11803968Y5915226D01*
Y5915688D01*
X11804061Y5916243D01*
Y5916890D01*
X11804153Y5917722D01*
X11804246Y5918647D01*
Y5919756D01*
X11804338Y5920958D01*
Y5922345D01*
X11804431Y5923917D01*
Y5925581D01*
X11804523Y5927337D01*
Y5929279D01*
Y5931405D01*
Y5931498D01*
Y5931775D01*
Y5932238D01*
Y5932885D01*
Y5933624D01*
Y5934457D01*
X11804431Y5936398D01*
Y5938525D01*
X11804338Y5940651D01*
X11804246Y5942500D01*
X11804153Y5943332D01*
X11804061Y5944072D01*
Y5944164D01*
Y5944257D01*
X11803876Y5944812D01*
X11803691Y5945459D01*
X11803414Y5946014D01*
X11803321Y5946106D01*
X11803044Y5946383D01*
X11802489Y5946846D01*
X11801749Y5947308D01*
X11801657Y5947400D01*
X11801379Y5947585D01*
X11800917Y5947863D01*
X11800455Y5948232D01*
X11799993Y5948602D01*
X11799530Y5949157D01*
X11799253Y5949804D01*
X11799161Y5950451D01*
Y5950544D01*
Y5950821D01*
X11799253Y5951191D01*
X11799438Y5951653D01*
X11799623Y5952208D01*
X11799993Y5952763D01*
X11800455Y5953318D01*
X11801102Y5953872D01*
X11801195Y5953965D01*
X11801472Y5954057D01*
X11802027Y5954335D01*
X11802859Y5954704D01*
X11803876Y5955167D01*
X11805170Y5955629D01*
X11806834Y5956184D01*
X11808776Y5956738D01*
X11808868D01*
X11809146Y5956831D01*
X11809516Y5956923D01*
X11810070Y5957108D01*
X11810718Y5957201D01*
X11811457Y5957386D01*
X11813214Y5957848D01*
X11815155Y5958218D01*
X11817189Y5958495D01*
X11819131Y5958772D01*
X11820980Y5958865D01*
X11821350D01*
X11821812Y5958772D01*
D02*
G37*
G36*
X12031318Y5953225D02*
X12031780Y5953133D01*
X12032150Y5952855D01*
X12032242Y5952763D01*
X12032335Y5952485D01*
X12032427Y5951838D01*
X12032519Y5951468D01*
Y5950914D01*
Y5945181D01*
Y5945089D01*
Y5944996D01*
X12032612Y5944534D01*
X12032704Y5943979D01*
X12032889Y5943517D01*
X12032982Y5943425D01*
X12033259Y5943332D01*
X12033814Y5943240D01*
X12034646Y5943147D01*
X12042782D01*
X12043337Y5943055D01*
X12043984Y5942962D01*
X12044354Y5942778D01*
X12044539Y5942593D01*
X12044631Y5942500D01*
X12044816Y5942038D01*
Y5941761D01*
X12044909Y5941298D01*
X12045001Y5940744D01*
Y5940096D01*
Y5937600D01*
Y5937508D01*
Y5937230D01*
Y5936953D01*
X12044909Y5936491D01*
X12044816Y5935566D01*
X12044631Y5935104D01*
X12044446Y5934734D01*
X12044354Y5934641D01*
X12043984Y5934364D01*
X12043337Y5934087D01*
X12042875Y5933994D01*
X12034369D01*
X12033906Y5933902D01*
X12033352Y5933809D01*
X12032889Y5933532D01*
X12032797Y5933439D01*
X12032704Y5933162D01*
X12032612Y5932700D01*
X12032519Y5931960D01*
Y5917630D01*
Y5917537D01*
Y5917167D01*
X12032612Y5916705D01*
X12032704Y5916150D01*
X12033074Y5914763D01*
X12033352Y5914024D01*
X12033721Y5913377D01*
X12033814Y5913284D01*
X12033999Y5913099D01*
X12034276Y5912914D01*
X12034646Y5912637D01*
X12035663Y5912082D01*
X12036218Y5911897D01*
X12036957Y5911805D01*
X12037235D01*
X12037605Y5911897D01*
X12038159Y5911990D01*
X12038807Y5912175D01*
X12039546Y5912452D01*
X12040378Y5912822D01*
X12041395Y5913377D01*
X12041488Y5913469D01*
X12041765Y5913561D01*
X12042227Y5913654D01*
X12042690Y5913746D01*
X12042875D01*
X12043337Y5913561D01*
X12043892Y5913192D01*
X12044261Y5912914D01*
X12044539Y5912452D01*
Y5912360D01*
X12044631Y5912267D01*
X12045001Y5911712D01*
X12045278Y5910788D01*
X12045371Y5909771D01*
Y5909678D01*
Y5909308D01*
X12045186Y5908846D01*
X12045001Y5908199D01*
X12044631Y5907459D01*
X12044169Y5906535D01*
X12043429Y5905703D01*
X12042505Y5904778D01*
X12042412Y5904686D01*
X12042227Y5904593D01*
X12041858Y5904316D01*
X12041395Y5903946D01*
X12040841Y5903576D01*
X12040193Y5903206D01*
X12039361Y5902744D01*
X12038437Y5902282D01*
X12037420Y5901727D01*
X12036310Y5901265D01*
X12033814Y5900525D01*
X12031040Y5899878D01*
X12029468Y5899786D01*
X12027897Y5899693D01*
X12027250D01*
X12026787Y5899786D01*
X12026140D01*
X12025493Y5899878D01*
X12023921Y5900155D01*
X12022164Y5900618D01*
X12020408Y5901265D01*
X12018559Y5902189D01*
X12016894Y5903484D01*
Y5903576D01*
X12016710Y5903669D01*
X12016247Y5904223D01*
X12015600Y5905055D01*
X12014860Y5906165D01*
X12014121Y5907644D01*
X12013474Y5909308D01*
X12013011Y5911343D01*
X12012919Y5912452D01*
X12012826Y5913561D01*
Y5933255D01*
Y5933439D01*
Y5933717D01*
X12012734Y5934179D01*
X12012549Y5934457D01*
Y5934549D01*
X12012364Y5934641D01*
X12011994Y5934734D01*
X12006817D01*
X12006354Y5934826D01*
X12005800Y5934919D01*
X12005615Y5935011D01*
X12005430Y5935104D01*
Y5935196D01*
X12005337Y5935474D01*
X12005245Y5936028D01*
X12005153Y5936491D01*
Y5936953D01*
Y5938894D01*
Y5938987D01*
Y5939079D01*
X12005337Y5939542D01*
X12005615Y5940189D01*
X12006077Y5940744D01*
X12025493Y5952948D01*
X12025585Y5953040D01*
X12026048Y5953133D01*
X12026602Y5953225D01*
X12027342Y5953318D01*
X12030948D01*
X12031318Y5953225D01*
D02*
G37*
G36*
X11915100Y5959882D02*
X11916025Y5959789D01*
X11917134Y5959605D01*
X11918336Y5959420D01*
X11919723Y5959235D01*
X11921202Y5958865D01*
X11922682Y5958495D01*
X11924346Y5957940D01*
X11925918Y5957386D01*
X11927582Y5956646D01*
X11929246Y5955814D01*
X11930818Y5954889D01*
X11932390Y5953780D01*
X11932482Y5953687D01*
X11932667Y5953595D01*
X11932944Y5953318D01*
X11933314Y5953040D01*
X11934331Y5952023D01*
X11935533Y5950729D01*
X11937012Y5949157D01*
X11938492Y5947215D01*
X11939971Y5944996D01*
X11941358Y5942593D01*
Y5942500D01*
X11941543Y5942315D01*
X11941635Y5941945D01*
X11941913Y5941391D01*
X11942098Y5940836D01*
X11942375Y5940096D01*
X11942745Y5939264D01*
X11943022Y5938340D01*
X11943669Y5936306D01*
X11944132Y5933994D01*
X11944501Y5931590D01*
X11944686Y5929002D01*
Y5928909D01*
Y5928539D01*
Y5927985D01*
X11944594Y5927337D01*
X11944501Y5926413D01*
X11944316Y5925396D01*
X11944132Y5924286D01*
X11943854Y5922992D01*
X11943484Y5921605D01*
X11943022Y5920218D01*
X11942560Y5918739D01*
X11941913Y5917167D01*
X11941081Y5915595D01*
X11940248Y5914116D01*
X11939231Y5912544D01*
X11938029Y5911065D01*
X11937937Y5910973D01*
X11937752Y5910788D01*
X11937475Y5910418D01*
X11937012Y5909956D01*
X11936458Y5909401D01*
X11935811Y5908754D01*
X11934978Y5908107D01*
X11934146Y5907367D01*
X11933129Y5906535D01*
X11932020Y5905703D01*
X11930818Y5904963D01*
X11929524Y5904131D01*
X11928137Y5903391D01*
X11926657Y5902652D01*
X11923421Y5901357D01*
X11923329D01*
X11923144Y5901265D01*
X11922867Y5901172D01*
X11922497Y5901080D01*
X11921942Y5900987D01*
X11921387Y5900803D01*
X11919908Y5900525D01*
X11918244Y5900248D01*
X11916302Y5899970D01*
X11914268Y5899786D01*
X11912234Y5899693D01*
X11911495D01*
X11910940Y5899786D01*
X11910293D01*
X11909553Y5899878D01*
X11908628Y5899970D01*
X11907704Y5900063D01*
X11905577Y5900433D01*
X11903174Y5900987D01*
X11900677Y5901635D01*
X11898088Y5902652D01*
X11897996Y5902744D01*
X11897719Y5902837D01*
X11897349Y5903021D01*
X11896794Y5903391D01*
X11896054Y5903761D01*
X11895315Y5904223D01*
X11893466Y5905425D01*
X11891432Y5906997D01*
X11889398Y5908939D01*
X11887271Y5911250D01*
X11885422Y5913839D01*
X11885330Y5913931D01*
X11885237Y5914209D01*
X11885052Y5914578D01*
X11884775Y5915133D01*
X11884405Y5915780D01*
X11884035Y5916613D01*
X11883665Y5917537D01*
X11883203Y5918554D01*
X11882833Y5919664D01*
X11882371Y5920958D01*
X11881724Y5923639D01*
X11881169Y5926598D01*
X11881077Y5928169D01*
X11880984Y5929834D01*
Y5929926D01*
Y5930296D01*
Y5930851D01*
X11881077Y5931498D01*
X11881169Y5932422D01*
X11881261Y5933439D01*
X11881446Y5934549D01*
X11881724Y5935843D01*
X11882371Y5938617D01*
X11882833Y5940096D01*
X11883388Y5941576D01*
X11884035Y5943147D01*
X11884867Y5944719D01*
X11885699Y5946198D01*
X11886716Y5947678D01*
X11886809Y5947770D01*
X11886994Y5947955D01*
X11887271Y5948325D01*
X11887641Y5948787D01*
X11888196Y5949342D01*
X11888750Y5949989D01*
X11889490Y5950729D01*
X11890322Y5951468D01*
X11891247Y5952301D01*
X11892264Y5953133D01*
X11893373Y5953965D01*
X11894668Y5954797D01*
X11897349Y5956369D01*
X11900400Y5957755D01*
X11900492D01*
X11900677Y5957848D01*
X11900955Y5957940D01*
X11901417Y5958125D01*
X11901972Y5958310D01*
X11902619Y5958495D01*
X11903358Y5958680D01*
X11904191Y5958865D01*
X11906132Y5959235D01*
X11908259Y5959605D01*
X11910662Y5959882D01*
X11913251Y5959974D01*
X11914361D01*
X11915100Y5959882D01*
D02*
G37*
G36*
X11737585Y5953225D02*
X11738047Y5953133D01*
X11738417Y5952855D01*
X11738509Y5952763D01*
X11738602Y5952485D01*
X11738694Y5951838D01*
X11738787Y5951468D01*
Y5950914D01*
Y5945181D01*
Y5945089D01*
Y5944996D01*
X11738879Y5944534D01*
X11738972Y5943979D01*
X11739157Y5943517D01*
X11739249Y5943425D01*
X11739526Y5943332D01*
X11740081Y5943240D01*
X11740913Y5943147D01*
X11749049D01*
X11749604Y5943055D01*
X11750251Y5942962D01*
X11750621Y5942778D01*
X11750806Y5942593D01*
X11750899Y5942500D01*
X11751083Y5942038D01*
Y5941761D01*
X11751176Y5941298D01*
X11751268Y5940744D01*
Y5940096D01*
Y5937600D01*
Y5937508D01*
Y5937230D01*
Y5936953D01*
X11751176Y5936491D01*
X11751083Y5935566D01*
X11750899Y5935104D01*
X11750714Y5934734D01*
X11750621Y5934641D01*
X11750251Y5934364D01*
X11749604Y5934087D01*
X11749142Y5933994D01*
X11740636D01*
X11740174Y5933902D01*
X11739619Y5933809D01*
X11739157Y5933532D01*
X11739064Y5933439D01*
X11738972Y5933162D01*
X11738879Y5932700D01*
X11738787Y5931960D01*
Y5917630D01*
Y5917537D01*
Y5917167D01*
X11738879Y5916705D01*
X11738972Y5916150D01*
X11739342Y5914763D01*
X11739619Y5914024D01*
X11739989Y5913377D01*
X11740081Y5913284D01*
X11740266Y5913099D01*
X11740543Y5912914D01*
X11740913Y5912637D01*
X11741930Y5912082D01*
X11742485Y5911897D01*
X11743225Y5911805D01*
X11743502D01*
X11743872Y5911897D01*
X11744427Y5911990D01*
X11745074Y5912175D01*
X11745813Y5912452D01*
X11746646Y5912822D01*
X11747663Y5913377D01*
X11747755Y5913469D01*
X11748032Y5913561D01*
X11748495Y5913654D01*
X11748957Y5913746D01*
X11749142D01*
X11749604Y5913561D01*
X11750159Y5913192D01*
X11750529Y5912914D01*
X11750806Y5912452D01*
Y5912360D01*
X11750899Y5912267D01*
X11751268Y5911712D01*
X11751546Y5910788D01*
X11751638Y5909771D01*
Y5909678D01*
Y5909308D01*
X11751453Y5908846D01*
X11751268Y5908199D01*
X11750899Y5907459D01*
X11750436Y5906535D01*
X11749697Y5905703D01*
X11748772Y5904778D01*
X11748680Y5904686D01*
X11748495Y5904593D01*
X11748125Y5904316D01*
X11747663Y5903946D01*
X11747108Y5903576D01*
X11746461Y5903206D01*
X11745629Y5902744D01*
X11744704Y5902282D01*
X11743687Y5901727D01*
X11742577Y5901265D01*
X11740081Y5900525D01*
X11737307Y5899878D01*
X11735736Y5899786D01*
X11734164Y5899693D01*
X11733517D01*
X11733055Y5899786D01*
X11732407D01*
X11731760Y5899878D01*
X11730188Y5900155D01*
X11728432Y5900618D01*
X11726675Y5901265D01*
X11724826Y5902189D01*
X11723162Y5903484D01*
Y5903576D01*
X11722977Y5903669D01*
X11722515Y5904223D01*
X11721867Y5905055D01*
X11721128Y5906165D01*
X11720388Y5907644D01*
X11719741Y5909308D01*
X11719279Y5911343D01*
X11719186Y5912452D01*
X11719094Y5913561D01*
Y5933255D01*
Y5933439D01*
Y5933717D01*
X11719001Y5934179D01*
X11718816Y5934457D01*
Y5934549D01*
X11718631Y5934641D01*
X11718262Y5934734D01*
X11713084D01*
X11712622Y5934826D01*
X11712067Y5934919D01*
X11711882Y5935011D01*
X11711697Y5935104D01*
Y5935196D01*
X11711605Y5935474D01*
X11711512Y5936028D01*
X11711420Y5936491D01*
Y5936953D01*
Y5938894D01*
Y5938987D01*
Y5939079D01*
X11711605Y5939542D01*
X11711882Y5940189D01*
X11712344Y5940744D01*
X11731760Y5952948D01*
X11731853Y5953040D01*
X11732315Y5953133D01*
X11732870Y5953225D01*
X11733609Y5953318D01*
X11737215D01*
X11737585Y5953225D01*
D02*
G37*
G36*
X11689693Y5943055D02*
X11690340D01*
X11691079Y5942962D01*
X11692836Y5942685D01*
X11694778Y5942223D01*
X11696904Y5941576D01*
X11698938Y5940651D01*
X11700972Y5939449D01*
X11701065Y5939357D01*
X11701435Y5939079D01*
X11701897Y5938709D01*
X11702452Y5938155D01*
X11703099Y5937415D01*
X11703746Y5936675D01*
X11704301Y5935751D01*
X11704763Y5934826D01*
X11704855Y5934734D01*
X11704948Y5934364D01*
X11705133Y5933809D01*
X11705318Y5932977D01*
X11705503Y5931960D01*
X11705688Y5930758D01*
X11705872Y5929371D01*
Y5927800D01*
X11705780Y5921420D01*
Y5921328D01*
Y5921143D01*
Y5920773D01*
Y5920403D01*
X11705872Y5919201D01*
Y5917907D01*
X11705965Y5916428D01*
X11706150Y5915041D01*
X11706427Y5913839D01*
X11706520Y5913377D01*
X11706705Y5912914D01*
X11706797Y5912729D01*
X11706982Y5912360D01*
X11707259Y5911897D01*
X11707629Y5911620D01*
X11707722D01*
X11707999Y5911527D01*
X11708554Y5911435D01*
X11709386Y5911250D01*
X11709478D01*
X11709571Y5911158D01*
X11710125Y5910880D01*
X11710310Y5910695D01*
X11710588Y5910325D01*
X11710680Y5909956D01*
X11710773Y5909401D01*
Y5909308D01*
Y5909031D01*
X11710680Y5908661D01*
X11710588Y5908107D01*
X11710403Y5907459D01*
X11710033Y5906720D01*
X11709663Y5905980D01*
X11709108Y5905148D01*
X11709016Y5905055D01*
X11708831Y5904778D01*
X11708461Y5904408D01*
X11707999Y5903854D01*
X11707444Y5903299D01*
X11706705Y5902652D01*
X11705872Y5902004D01*
X11704948Y5901450D01*
X11704763Y5901357D01*
X11704393Y5901172D01*
X11703746Y5900895D01*
X11702914Y5900618D01*
X11701897Y5900248D01*
X11700695Y5899970D01*
X11699493Y5899786D01*
X11698199Y5899693D01*
X11698014D01*
X11697459Y5899786D01*
X11696627Y5899878D01*
X11695702Y5900063D01*
X11694500Y5900433D01*
X11693391Y5900987D01*
X11692189Y5901635D01*
X11691172Y5902652D01*
Y5902744D01*
X11690987Y5902837D01*
X11690617Y5903206D01*
X11690062Y5903576D01*
X11689785Y5903761D01*
X11689323D01*
X11688953Y5903669D01*
X11688213Y5903299D01*
X11687751Y5903114D01*
X11687289Y5902744D01*
X11687104Y5902652D01*
X11686549Y5902282D01*
X11685625Y5901820D01*
X11684515Y5901265D01*
X11683036Y5900618D01*
X11681372Y5900155D01*
X11679522Y5899786D01*
X11677581Y5899693D01*
X11676656D01*
X11675639Y5899786D01*
X11674345Y5899970D01*
X11672958Y5900248D01*
X11671479Y5900710D01*
X11670000Y5901265D01*
X11668613Y5902004D01*
X11668520Y5902097D01*
X11668243Y5902282D01*
X11667781Y5902652D01*
X11667318Y5903114D01*
X11666764Y5903669D01*
X11666116Y5904408D01*
X11665562Y5905148D01*
X11665007Y5906073D01*
X11664914Y5906165D01*
X11664822Y5906535D01*
X11664637Y5906997D01*
X11664360Y5907737D01*
X11664082Y5908476D01*
X11663897Y5909401D01*
X11663805Y5910325D01*
X11663713Y5911343D01*
Y5911435D01*
Y5911527D01*
X11663805Y5912082D01*
X11663897Y5912914D01*
X11664175Y5914024D01*
X11664637Y5915226D01*
X11665192Y5916520D01*
X11666116Y5917907D01*
X11667318Y5919201D01*
X11667411Y5919294D01*
X11667596Y5919479D01*
X11667873Y5919664D01*
X11668335Y5920033D01*
X11668983Y5920496D01*
X11669630Y5920865D01*
X11670462Y5921420D01*
X11671479Y5921882D01*
X11672588Y5922437D01*
X11673790Y5922900D01*
X11675177Y5923362D01*
X11676656Y5923732D01*
X11678321Y5924101D01*
X11680077Y5924379D01*
X11681926Y5924564D01*
X11683960Y5924656D01*
X11684792D01*
X11685255Y5924749D01*
X11686272Y5924841D01*
X11686734Y5924934D01*
X11687011Y5925118D01*
X11687104Y5925211D01*
X11687381Y5925581D01*
X11687474Y5925858D01*
X11687566Y5926228D01*
X11687659Y5926783D01*
Y5927337D01*
Y5927430D01*
Y5927522D01*
Y5928077D01*
Y5928909D01*
X11687566Y5929834D01*
X11687474Y5930943D01*
X11687289Y5932053D01*
X11687011Y5933070D01*
X11686734Y5933902D01*
Y5933994D01*
X11686549Y5934179D01*
X11686364Y5934549D01*
X11685994Y5934919D01*
X11685625Y5935289D01*
X11685070Y5935658D01*
X11684423Y5935843D01*
X11683683Y5935936D01*
X11683498D01*
X11682943Y5935843D01*
X11682204Y5935566D01*
X11681372Y5935104D01*
X11681187Y5934919D01*
X11681002Y5934734D01*
X11680724Y5934457D01*
X11680355Y5934087D01*
X11679985Y5933624D01*
X11679522Y5933070D01*
X11678968Y5932330D01*
Y5932238D01*
X11678783Y5932145D01*
X11678598Y5931868D01*
X11678321Y5931498D01*
X11677581Y5930666D01*
X11676564Y5929649D01*
X11675362Y5928632D01*
X11673975Y5927800D01*
X11673328Y5927430D01*
X11672588Y5927245D01*
X11671756Y5927060D01*
X11671017Y5926968D01*
X11670647D01*
X11670277Y5927060D01*
X11669815Y5927152D01*
X11668705Y5927522D01*
X11668150Y5927800D01*
X11667596Y5928169D01*
X11667503Y5928262D01*
X11667411Y5928447D01*
X11667226Y5928724D01*
X11666948Y5929094D01*
X11666486Y5930111D01*
X11666394Y5930666D01*
X11666301Y5931405D01*
Y5931498D01*
Y5931775D01*
X11666394Y5932145D01*
X11666486Y5932700D01*
X11666671Y5933255D01*
X11666948Y5933994D01*
X11667318Y5934734D01*
X11667873Y5935474D01*
X11667965Y5935566D01*
X11668150Y5935843D01*
X11668520Y5936213D01*
X11669075Y5936675D01*
X11669722Y5937230D01*
X11670462Y5937877D01*
X11671386Y5938432D01*
X11672403Y5939079D01*
X11672496Y5939172D01*
X11672773Y5939264D01*
X11673143Y5939449D01*
X11673698Y5939727D01*
X11674437Y5940004D01*
X11675270Y5940374D01*
X11676194Y5940744D01*
X11677304Y5941113D01*
X11678413Y5941483D01*
X11679707Y5941853D01*
X11682389Y5942500D01*
X11685347Y5942962D01*
X11686919Y5943147D01*
X11689230D01*
X11689693Y5943055D01*
D02*
G37*
G36*
X11630151Y5959605D02*
X11632185Y5959512D01*
X11634219Y5959327D01*
X11636161Y5959050D01*
X11636993Y5958957D01*
X11637825Y5958772D01*
X11637917D01*
X11638010Y5958680D01*
X11638287D01*
X11638657Y5958588D01*
X11639489Y5958218D01*
X11640506Y5957755D01*
X11641431Y5957201D01*
X11642263Y5956369D01*
X11642633Y5955906D01*
X11642910Y5955444D01*
X11643002Y5954889D01*
X11643095Y5954242D01*
Y5954150D01*
Y5954057D01*
X11643002Y5953502D01*
X11642817Y5952763D01*
X11642355Y5952116D01*
X11642170Y5952023D01*
X11641985Y5951838D01*
X11641708Y5951653D01*
X11641246Y5951376D01*
X11640599Y5951099D01*
X11639859Y5950729D01*
X11638934Y5950266D01*
X11638842D01*
X11638657Y5950174D01*
X11638102Y5949712D01*
X11637732Y5949434D01*
X11637455Y5948972D01*
X11637085Y5948510D01*
X11636900Y5947863D01*
Y5947770D01*
X11636808Y5947493D01*
Y5947031D01*
X11636715Y5946291D01*
X11636623Y5945181D01*
Y5943887D01*
X11636530Y5942223D01*
Y5941298D01*
Y5940189D01*
Y5920681D01*
Y5920588D01*
Y5920403D01*
Y5920033D01*
Y5919664D01*
X11636623Y5918462D01*
X11636715Y5917167D01*
X11636808Y5915688D01*
X11636993Y5914301D01*
X11637270Y5913099D01*
X11637455Y5912637D01*
X11637640Y5912175D01*
X11637732Y5912082D01*
X11637917Y5911805D01*
X11638287Y5911435D01*
X11638934Y5911065D01*
X11639674Y5910695D01*
X11640691Y5910325D01*
X11641985Y5910048D01*
X11643557Y5909956D01*
X11644389D01*
X11645221Y5910048D01*
X11646331Y5910233D01*
X11647533Y5910510D01*
X11648827Y5910880D01*
X11650029Y5911343D01*
X11651138Y5912082D01*
X11651231Y5912175D01*
X11651601Y5912452D01*
X11652063Y5913007D01*
X11652710Y5913746D01*
X11653357Y5914671D01*
X11654005Y5915780D01*
X11654652Y5917167D01*
X11655114Y5918739D01*
Y5918831D01*
X11655299Y5919201D01*
X11655484Y5919664D01*
X11655761Y5920126D01*
X11656131Y5920681D01*
X11656593Y5921050D01*
X11657241Y5921420D01*
X11657980Y5921513D01*
X11658350D01*
X11658812Y5921420D01*
X11659275Y5921235D01*
X11659922Y5921050D01*
X11660477Y5920681D01*
X11661124Y5920126D01*
X11661678Y5919479D01*
X11661771Y5919386D01*
X11661956Y5919109D01*
X11662141Y5918647D01*
X11662418Y5918092D01*
X11662695Y5917260D01*
X11662973Y5916428D01*
X11663065Y5915411D01*
X11663158Y5914209D01*
Y5914116D01*
Y5913931D01*
Y5913654D01*
X11663065Y5913284D01*
Y5912822D01*
X11662973Y5912267D01*
X11662695Y5910788D01*
X11662233Y5909124D01*
X11661494Y5907274D01*
X11660477Y5905148D01*
X11659922Y5904038D01*
X11659182Y5902929D01*
X11659090Y5902837D01*
X11658997Y5902652D01*
X11658720Y5902282D01*
X11658443Y5901912D01*
X11657795Y5900987D01*
X11657426Y5900618D01*
X11657056Y5900340D01*
X11656871Y5900248D01*
X11656408Y5900063D01*
X11655669Y5899786D01*
X11654744Y5899693D01*
X11645314Y5900803D01*
X11614618D01*
X11613971Y5900895D01*
X11612677Y5901080D01*
X11612030Y5901265D01*
X11611475Y5901450D01*
X11611382Y5901542D01*
X11611198Y5901635D01*
X11610920Y5901820D01*
X11610643Y5902189D01*
X11610273Y5902559D01*
X11609996Y5903114D01*
X11609811Y5903669D01*
X11609718Y5904408D01*
Y5904501D01*
Y5904593D01*
X11609811Y5905055D01*
X11609996Y5905610D01*
X11610273Y5906073D01*
X11610458Y5906165D01*
X11610643Y5906350D01*
X11610920Y5906535D01*
X11611290Y5906812D01*
X11611752Y5907090D01*
X11612399Y5907367D01*
X11613139Y5907737D01*
X11613232Y5907829D01*
X11613509Y5907922D01*
X11613971Y5908199D01*
X11614433Y5908569D01*
X11614988Y5909031D01*
X11615450Y5909586D01*
X11615913Y5910233D01*
X11616190Y5910973D01*
Y5911065D01*
X11616283Y5911343D01*
X11616375Y5911990D01*
Y5912360D01*
X11616467Y5912914D01*
X11616560Y5913469D01*
Y5914209D01*
X11616652Y5915041D01*
Y5915965D01*
Y5917075D01*
X11616745Y5918277D01*
Y5919664D01*
Y5921143D01*
Y5921235D01*
Y5921328D01*
Y5921882D01*
Y5922807D01*
Y5924009D01*
Y5925673D01*
X11616652Y5927615D01*
Y5929834D01*
X11616560Y5932422D01*
Y5932515D01*
Y5932700D01*
Y5933070D01*
Y5933624D01*
Y5934179D01*
X11616467Y5934826D01*
Y5936398D01*
X11616375Y5938155D01*
Y5939911D01*
X11616283Y5941576D01*
Y5943055D01*
Y5943240D01*
Y5943610D01*
Y5944164D01*
X11616190Y5944904D01*
X11616098Y5946476D01*
X11615913Y5947123D01*
X11615728Y5947678D01*
Y5947770D01*
X11615635Y5947863D01*
X11615266Y5948417D01*
X11614988Y5948695D01*
X11614618Y5948972D01*
X11614156Y5949249D01*
X11613509Y5949527D01*
X11613416Y5949619D01*
X11613047Y5949712D01*
X11612584Y5949897D01*
X11612030Y5950082D01*
X11610828Y5950636D01*
X11610365Y5950914D01*
X11609996Y5951099D01*
X11609903Y5951191D01*
X11609811Y5951283D01*
X11609348Y5951838D01*
X11608794Y5952578D01*
X11608701Y5953040D01*
X11608609Y5953502D01*
Y5953687D01*
X11608701Y5954057D01*
X11608886Y5954612D01*
X11609256Y5955259D01*
X11609903Y5955999D01*
X11610828Y5956831D01*
X11611382Y5957201D01*
X11612122Y5957571D01*
X11612862Y5957940D01*
X11613786Y5958218D01*
X11613879D01*
X11613971Y5958310D01*
X11614249Y5958403D01*
X11614618Y5958495D01*
X11614988Y5958588D01*
X11615543Y5958680D01*
X11616930Y5958957D01*
X11618594Y5959235D01*
X11620536Y5959512D01*
X11622939Y5959605D01*
X11625528Y5959697D01*
X11628394D01*
X11630151Y5959605D01*
D02*
G37*
%LPC*%
G36*
X9857914Y10249649D02*
X9853476D01*
X9850980Y10249371D01*
X9846126Y10248678D01*
X9843907Y10248262D01*
X9841826Y10247707D01*
X9839885Y10247291D01*
X9838082Y10246736D01*
X9836418Y10246182D01*
X9835031Y10245627D01*
X9833783Y10245072D01*
X9832673Y10244656D01*
X9831841Y10244240D01*
X9831286Y10243963D01*
X9830870Y10243824D01*
X9830732Y10243685D01*
X9828790Y10242437D01*
X9826849Y10241189D01*
X9823520Y10238277D01*
X9820608Y10235364D01*
X9818250Y10232313D01*
X9816309Y10229678D01*
X9815615Y10228569D01*
X9815060Y10227459D01*
X9814506Y10226627D01*
X9814228Y10226073D01*
X9814090Y10225656D01*
X9813951Y10225518D01*
X9812009Y10220941D01*
X9810622Y10216365D01*
X9809513Y10211927D01*
X9809236Y10209846D01*
X9808820Y10207905D01*
X9808681Y10206102D01*
X9808404Y10204576D01*
X9808265Y10203051D01*
Y10201803D01*
X9808126Y10200832D01*
Y10199445D01*
X9808404Y10194314D01*
X9809097Y10189460D01*
X9809513Y10187241D01*
X9809929Y10185161D01*
X9810484Y10183080D01*
X9811039Y10181278D01*
X9811593Y10179613D01*
X9812148Y10178227D01*
X9812564Y10176840D01*
X9812980Y10175869D01*
X9813396Y10174898D01*
X9813674Y10174343D01*
X9813951Y10173927D01*
Y10173789D01*
X9816447Y10169767D01*
X9819221Y10166300D01*
X9822133Y10163249D01*
X9824907Y10160752D01*
X9827542Y10158811D01*
X9828513Y10158117D01*
X9829484Y10157424D01*
X9830316Y10157008D01*
X9830870Y10156592D01*
X9831286Y10156453D01*
X9831425Y10156314D01*
X9833644Y10155205D01*
X9835863Y10154373D01*
X9840301Y10152847D01*
X9844600Y10151877D01*
X9848622Y10151044D01*
X9850425Y10150906D01*
X9852089Y10150628D01*
X9853615Y10150490D01*
X9854863D01*
X9855833Y10150351D01*
X9857220D01*
X9861103Y10150490D01*
X9864848Y10150906D01*
X9868315Y10151599D01*
X9871366Y10152293D01*
X9872614Y10152570D01*
X9873862Y10152847D01*
X9874972Y10153263D01*
X9875943Y10153541D01*
X9876636Y10153818D01*
X9877191Y10153957D01*
X9877468Y10154096D01*
X9877607D01*
X9881351Y10155621D01*
X9884818Y10157424D01*
X9888147Y10159366D01*
X9891059Y10161168D01*
X9892307Y10162001D01*
X9893556Y10162833D01*
X9894526Y10163526D01*
X9895358Y10164081D01*
X9896052Y10164635D01*
X9896607Y10165052D01*
X9896884Y10165190D01*
X9897023Y10165329D01*
Y10200971D01*
X9856250D01*
Y10189599D01*
X9884541D01*
Y10171570D01*
X9882877Y10170183D01*
X9880935Y10168935D01*
X9878855Y10167825D01*
X9876913Y10166854D01*
X9875249Y10166022D01*
X9873724Y10165329D01*
X9873169Y10165052D01*
X9872892Y10164913D01*
X9872614Y10164774D01*
X9872476D01*
X9869563Y10163803D01*
X9866651Y10162971D01*
X9864016Y10162417D01*
X9861520Y10162139D01*
X9859439Y10161862D01*
X9858607D01*
X9857775Y10161723D01*
X9856388D01*
X9852921Y10161862D01*
X9849593Y10162417D01*
X9846542Y10163110D01*
X9843768Y10163803D01*
X9841549Y10164635D01*
X9840578Y10164913D01*
X9839885Y10165190D01*
X9839191Y10165468D01*
X9838775Y10165745D01*
X9838498Y10165884D01*
X9838359D01*
X9835447Y10167687D01*
X9832812Y10169628D01*
X9830593Y10171708D01*
X9828790Y10173789D01*
X9827265Y10175730D01*
X9826294Y10177256D01*
X9825878Y10177810D01*
X9825739Y10178227D01*
X9825462Y10178504D01*
Y10178643D01*
X9824075Y10182110D01*
X9822965Y10185715D01*
X9822272Y10189321D01*
X9821717Y10192788D01*
X9821579Y10194314D01*
X9821440Y10195701D01*
X9821301Y10197088D01*
Y10198197D01*
X9821162Y10199029D01*
Y10199723D01*
Y10200139D01*
Y10200277D01*
X9821301Y10204160D01*
X9821717Y10207628D01*
X9822272Y10210956D01*
X9822965Y10213868D01*
X9823243Y10215116D01*
X9823659Y10216226D01*
X9823936Y10217197D01*
X9824214Y10218029D01*
X9824491Y10218722D01*
X9824630Y10219138D01*
X9824768Y10219416D01*
Y10219554D01*
X9825739Y10221496D01*
X9826710Y10223299D01*
X9827681Y10224963D01*
X9828651Y10226350D01*
X9829484Y10227459D01*
X9830177Y10228430D01*
X9830732Y10228985D01*
X9830870Y10229124D01*
X9832396Y10230649D01*
X9834060Y10232036D01*
X9835863Y10233145D01*
X9837527Y10234255D01*
X9838914Y10234948D01*
X9840023Y10235642D01*
X9840856Y10235919D01*
X9841133Y10236058D01*
X9843629Y10237029D01*
X9846126Y10237722D01*
X9848761Y10238138D01*
X9851118Y10238554D01*
X9853198Y10238693D01*
X9854031D01*
X9854724Y10238831D01*
X9856250D01*
X9858885Y10238693D01*
X9861381Y10238415D01*
X9863600Y10237999D01*
X9865541Y10237583D01*
X9867206Y10237029D01*
X9868454Y10236612D01*
X9869147Y10236335D01*
X9869425Y10236196D01*
X9871505Y10235226D01*
X9873308Y10234116D01*
X9874972Y10233007D01*
X9876220Y10231897D01*
X9877191Y10230926D01*
X9878023Y10230233D01*
X9878439Y10229678D01*
X9878578Y10229540D01*
X9879826Y10227875D01*
X9880797Y10225934D01*
X9881767Y10224131D01*
X9882599Y10222189D01*
X9883154Y10220525D01*
X9883570Y10219277D01*
X9883709Y10218722D01*
X9883848Y10218306D01*
X9883986Y10218168D01*
Y10218029D01*
X9895497Y10221080D01*
X9894526Y10224547D01*
X9893278Y10227598D01*
X9892030Y10230372D01*
X9890921Y10232591D01*
X9889811Y10234394D01*
X9888979Y10235642D01*
X9888424Y10236474D01*
X9888147Y10236751D01*
X9886205Y10238970D01*
X9884125Y10240773D01*
X9881906Y10242437D01*
X9879826Y10243824D01*
X9877884Y10244795D01*
X9876359Y10245627D01*
X9875804Y10245904D01*
X9875388Y10246043D01*
X9875111Y10246182D01*
X9874972D01*
X9871782Y10247291D01*
X9868454Y10248123D01*
X9865403Y10248817D01*
X9862490Y10249233D01*
X9859855Y10249510D01*
X9858746D01*
X9857914Y10249649D01*
D02*
G37*
G36*
X9991189Y10247985D02*
X9978985D01*
Y10172540D01*
X9928643Y10247985D01*
X9915606D01*
Y10152015D01*
X9927810D01*
Y10227321D01*
X9978014Y10152015D01*
X9991189D01*
Y10247985D01*
D02*
G37*
G36*
X10049436D02*
X10012546D01*
Y10152015D01*
X10047079D01*
X10050268Y10152154D01*
X10053181Y10152293D01*
X10055816Y10152570D01*
X10058035Y10152847D01*
X10059976Y10153125D01*
X10061363Y10153263D01*
X10061779Y10153402D01*
X10062195Y10153541D01*
X10062473D01*
X10064969Y10154234D01*
X10067188Y10155066D01*
X10069129Y10155760D01*
X10070794Y10156592D01*
X10072181Y10157285D01*
X10073151Y10157840D01*
X10073706Y10158256D01*
X10073983Y10158395D01*
X10075786Y10159643D01*
X10077312Y10161168D01*
X10078837Y10162555D01*
X10080086Y10163942D01*
X10081195Y10165190D01*
X10082027Y10166161D01*
X10082582Y10166854D01*
X10082720Y10167132D01*
X10084107Y10169351D01*
X10085494Y10171708D01*
X10086604Y10173927D01*
X10087436Y10176146D01*
X10088268Y10178088D01*
X10088823Y10179613D01*
X10088961Y10180168D01*
X10089100Y10180584D01*
X10089239Y10180862D01*
Y10181000D01*
X10090071Y10184329D01*
X10090764Y10187657D01*
X10091180Y10190847D01*
X10091596Y10193898D01*
X10091735Y10196533D01*
Y10197642D01*
X10091874Y10198613D01*
Y10200416D01*
X10091735Y10205131D01*
X10091319Y10209430D01*
X10090625Y10213314D01*
X10090348Y10215116D01*
X10089932Y10216642D01*
X10089516Y10218168D01*
X10089239Y10219416D01*
X10088961Y10220525D01*
X10088545Y10221496D01*
X10088407Y10222328D01*
X10088129Y10222883D01*
X10087990Y10223160D01*
Y10223299D01*
X10086465Y10226905D01*
X10084662Y10230094D01*
X10082720Y10232868D01*
X10080918Y10235226D01*
X10079253Y10237167D01*
X10077867Y10238554D01*
X10077312Y10238970D01*
X10076896Y10239386D01*
X10076757Y10239525D01*
X10076618Y10239664D01*
X10074399Y10241466D01*
X10072042Y10242853D01*
X10069684Y10244101D01*
X10067465Y10245072D01*
X10065524Y10245766D01*
X10063998Y10246182D01*
X10063443Y10246459D01*
X10063027D01*
X10062750Y10246598D01*
X10062611D01*
X10060254Y10247014D01*
X10057480Y10247430D01*
X10054706Y10247707D01*
X10051933Y10247846D01*
X10049436Y10247985D01*
D02*
G37*
%LPD*%
G36*
X10049298Y10236474D02*
X10051101D01*
X10052765Y10236335D01*
X10055538Y10235919D01*
X10057757Y10235642D01*
X10059560Y10235226D01*
X10060808Y10234810D01*
X10061502Y10234671D01*
X10061779Y10234532D01*
X10064276Y10233284D01*
X10066633Y10231759D01*
X10068713Y10229956D01*
X10070516Y10228153D01*
X10071903Y10226489D01*
X10073013Y10225102D01*
X10073290Y10224547D01*
X10073567Y10224131D01*
X10073845Y10223854D01*
Y10223715D01*
X10074677Y10222189D01*
X10075509Y10220386D01*
X10076757Y10216781D01*
X10077589Y10212898D01*
X10078283Y10209153D01*
X10078421Y10207489D01*
X10078560Y10205825D01*
X10078699Y10204438D01*
Y10203190D01*
X10078837Y10202080D01*
Y10201387D01*
Y10200832D01*
Y10200693D01*
X10078699Y10196810D01*
X10078421Y10193204D01*
X10078005Y10190015D01*
X10077589Y10187241D01*
X10077312Y10186132D01*
X10077034Y10185161D01*
X10076757Y10184190D01*
X10076618Y10183497D01*
X10076480Y10182942D01*
X10076341Y10182526D01*
X10076202Y10182248D01*
Y10182110D01*
X10075232Y10179475D01*
X10074122Y10177117D01*
X10072874Y10175037D01*
X10071764Y10173234D01*
X10070794Y10171847D01*
X10069962Y10170876D01*
X10069407Y10170322D01*
X10069268Y10170044D01*
X10067881Y10168935D01*
X10066494Y10167964D01*
X10065108Y10167132D01*
X10063721Y10166300D01*
X10062473Y10165745D01*
X10061502Y10165329D01*
X10060808Y10165190D01*
X10060531Y10165052D01*
X10058451Y10164497D01*
X10055954Y10164081D01*
X10053458Y10163803D01*
X10051101Y10163665D01*
X10049020Y10163526D01*
X10048049Y10163387D01*
X10025305D01*
Y10236612D01*
X10047495D01*
X10049298Y10236474D01*
D02*
G37*
%LPC*%
G36*
X10281962Y10849025D02*
X10278495D01*
X10276553Y10848747D01*
X10272809Y10848054D01*
X10269619Y10846945D01*
X10266846Y10845835D01*
X10265597Y10845142D01*
X10264627Y10844587D01*
X10263656Y10844032D01*
X10262962Y10843477D01*
X10262408Y10843061D01*
X10261992Y10842784D01*
X10261714Y10842645D01*
X10261576Y10842507D01*
X10258941Y10839872D01*
X10256860Y10836959D01*
X10255196Y10833908D01*
X10253809Y10830857D01*
X10252977Y10828222D01*
X10252561Y10827113D01*
X10252284Y10826142D01*
X10252145Y10825310D01*
X10252006Y10824755D01*
X10251868Y10824339D01*
Y10824200D01*
X10263656Y10822120D01*
X10264211Y10825171D01*
X10265043Y10827806D01*
X10266014Y10830025D01*
X10266984Y10831828D01*
X10267955Y10833215D01*
X10268787Y10834186D01*
X10269342Y10834879D01*
X10269481Y10835018D01*
X10271283Y10836405D01*
X10273225Y10837514D01*
X10275028Y10838207D01*
X10276831Y10838762D01*
X10278495Y10839040D01*
X10279743Y10839317D01*
X10280853D01*
X10283349Y10839178D01*
X10285568Y10838623D01*
X10287510Y10837930D01*
X10289174Y10837237D01*
X10290422Y10836405D01*
X10291393Y10835711D01*
X10292086Y10835156D01*
X10292225Y10835018D01*
X10293750Y10833353D01*
X10294860Y10831551D01*
X10295553Y10829748D01*
X10296108Y10828083D01*
X10296385Y10826558D01*
X10296663Y10825449D01*
Y10824616D01*
Y10824478D01*
Y10824339D01*
Y10822814D01*
X10296385Y10821427D01*
X10295692Y10819069D01*
X10294721Y10816989D01*
X10293612Y10815186D01*
X10292502Y10813938D01*
X10291531Y10812967D01*
X10290838Y10812412D01*
X10290699Y10812274D01*
X10290561D01*
X10288203Y10811025D01*
X10285984Y10810055D01*
X10283626Y10809361D01*
X10281546Y10808945D01*
X10279743Y10808668D01*
X10278218Y10808390D01*
X10276415D01*
X10275860Y10808529D01*
X10275167D01*
X10273780Y10798128D01*
X10275583Y10798544D01*
X10277247Y10798821D01*
X10278634Y10799099D01*
X10279882Y10799237D01*
X10280853Y10799376D01*
X10282101D01*
X10285013Y10799099D01*
X10287648Y10798544D01*
X10290006Y10797712D01*
X10291947Y10796741D01*
X10293473Y10795770D01*
X10294582Y10794938D01*
X10295276Y10794383D01*
X10295553Y10794106D01*
X10297356Y10792026D01*
X10298743Y10789807D01*
X10299714Y10787588D01*
X10300268Y10785369D01*
X10300685Y10783566D01*
X10300823Y10782040D01*
X10300962Y10781486D01*
Y10781070D01*
Y10780792D01*
Y10780654D01*
X10300685Y10777603D01*
X10299991Y10774829D01*
X10299159Y10772471D01*
X10298050Y10770391D01*
X10296940Y10768727D01*
X10296108Y10767479D01*
X10295415Y10766646D01*
X10295137Y10766369D01*
X10292918Y10764428D01*
X10290561Y10763041D01*
X10288203Y10762070D01*
X10285984Y10761376D01*
X10284042Y10760960D01*
X10282517Y10760822D01*
X10281962Y10760683D01*
X10281130D01*
X10278634Y10760822D01*
X10276276Y10761376D01*
X10274196Y10762070D01*
X10272532Y10762902D01*
X10271145Y10763595D01*
X10270035Y10764289D01*
X10269481Y10764844D01*
X10269203Y10764982D01*
X10267539Y10766924D01*
X10266152Y10769143D01*
X10264904Y10771500D01*
X10263933Y10773997D01*
X10263240Y10776077D01*
X10262962Y10777048D01*
X10262824Y10777880D01*
X10262685Y10778573D01*
X10262546Y10779128D01*
X10262408Y10779405D01*
Y10779544D01*
X10250620Y10778019D01*
X10250897Y10775800D01*
X10251313Y10773719D01*
X10252561Y10769836D01*
X10254087Y10766508D01*
X10254919Y10765121D01*
X10255751Y10763734D01*
X10256583Y10762486D01*
X10257415Y10761515D01*
X10258109Y10760544D01*
X10258802Y10759851D01*
X10259218Y10759296D01*
X10259634Y10758880D01*
X10259911Y10758603D01*
X10260050Y10758464D01*
X10261714Y10757216D01*
X10263379Y10755968D01*
X10265043Y10754997D01*
X10266846Y10754165D01*
X10270313Y10752778D01*
X10273641Y10751946D01*
X10275167Y10751669D01*
X10276553Y10751391D01*
X10277802Y10751253D01*
X10278911Y10751114D01*
X10279743Y10750975D01*
X10280991D01*
X10283626Y10751114D01*
X10285984Y10751391D01*
X10288342Y10751807D01*
X10290561Y10752362D01*
X10292641Y10753055D01*
X10294444Y10753749D01*
X10296247Y10754581D01*
X10297772Y10755413D01*
X10299298Y10756107D01*
X10300546Y10756939D01*
X10301655Y10757632D01*
X10302487Y10758325D01*
X10303181Y10758880D01*
X10303736Y10759296D01*
X10304013Y10759574D01*
X10304152Y10759712D01*
X10305816Y10761376D01*
X10307203Y10763179D01*
X10308451Y10764982D01*
X10309560Y10766785D01*
X10310392Y10768449D01*
X10311224Y10770252D01*
X10312334Y10773581D01*
X10312611Y10775106D01*
X10312889Y10776493D01*
X10313166Y10777741D01*
X10313305Y10778851D01*
X10313443Y10779683D01*
Y10780931D01*
X10313305Y10784259D01*
X10312750Y10787310D01*
X10311918Y10789945D01*
X10311086Y10792164D01*
X10310254Y10793967D01*
X10309422Y10795354D01*
X10308867Y10796186D01*
X10308728Y10796464D01*
X10306787Y10798544D01*
X10304706Y10800347D01*
X10302487Y10801734D01*
X10300268Y10802843D01*
X10298327Y10803675D01*
X10296801Y10804230D01*
X10296247Y10804369D01*
X10295831Y10804507D01*
X10295553Y10804646D01*
X10295415D01*
X10297772Y10805894D01*
X10299714Y10807142D01*
X10301378Y10808529D01*
X10302765Y10809777D01*
X10303874Y10810887D01*
X10304706Y10811857D01*
X10305122Y10812412D01*
X10305261Y10812690D01*
X10306371Y10814631D01*
X10307203Y10816573D01*
X10307896Y10818514D01*
X10308312Y10820317D01*
X10308589Y10821843D01*
X10308728Y10822952D01*
Y10823784D01*
Y10824062D01*
X10308589Y10826419D01*
X10308173Y10828777D01*
X10307619Y10830857D01*
X10306925Y10832660D01*
X10306232Y10834186D01*
X10305677Y10835434D01*
X10305261Y10836127D01*
X10305122Y10836405D01*
X10303736Y10838485D01*
X10302071Y10840288D01*
X10300407Y10841813D01*
X10298743Y10843200D01*
X10297356Y10844171D01*
X10296108Y10845003D01*
X10295276Y10845419D01*
X10295137Y10845558D01*
X10294998D01*
X10292502Y10846667D01*
X10290006Y10847499D01*
X10287510Y10848193D01*
X10285291Y10848609D01*
X10283488Y10848886D01*
X10281962Y10849025D01*
D02*
G37*
G36*
X10117899D02*
X10114432D01*
X10112490Y10848747D01*
X10108746Y10848054D01*
X10105556Y10846945D01*
X10102782Y10845835D01*
X10101534Y10845142D01*
X10100563Y10844587D01*
X10099593Y10844032D01*
X10098899Y10843477D01*
X10098345Y10843061D01*
X10097928Y10842784D01*
X10097651Y10842645D01*
X10097512Y10842507D01*
X10094877Y10839872D01*
X10092797Y10836959D01*
X10091133Y10833908D01*
X10089746Y10830857D01*
X10088914Y10828222D01*
X10088498Y10827113D01*
X10088221Y10826142D01*
X10088082Y10825310D01*
X10087943Y10824755D01*
X10087805Y10824339D01*
Y10824200D01*
X10099593Y10822120D01*
X10100147Y10825171D01*
X10100980Y10827806D01*
X10101950Y10830025D01*
X10102921Y10831828D01*
X10103892Y10833215D01*
X10104724Y10834186D01*
X10105279Y10834879D01*
X10105417Y10835018D01*
X10107220Y10836405D01*
X10109162Y10837514D01*
X10110965Y10838207D01*
X10112768Y10838762D01*
X10114432Y10839040D01*
X10115680Y10839317D01*
X10116790D01*
X10119286Y10839178D01*
X10121505Y10838623D01*
X10123446Y10837930D01*
X10125111Y10837237D01*
X10126359Y10836405D01*
X10127330Y10835711D01*
X10128023Y10835156D01*
X10128162Y10835018D01*
X10129687Y10833353D01*
X10130797Y10831551D01*
X10131490Y10829748D01*
X10132045Y10828083D01*
X10132322Y10826558D01*
X10132599Y10825449D01*
Y10824616D01*
Y10824478D01*
Y10824339D01*
Y10822814D01*
X10132322Y10821427D01*
X10131629Y10819069D01*
X10130658Y10816989D01*
X10129548Y10815186D01*
X10128439Y10813938D01*
X10127468Y10812967D01*
X10126775Y10812412D01*
X10126636Y10812274D01*
X10126497D01*
X10124140Y10811025D01*
X10121921Y10810055D01*
X10119563Y10809361D01*
X10117483Y10808945D01*
X10115680Y10808668D01*
X10114155Y10808390D01*
X10112352D01*
X10111797Y10808529D01*
X10111103D01*
X10109717Y10798128D01*
X10111520Y10798544D01*
X10113184Y10798821D01*
X10114571Y10799099D01*
X10115819Y10799237D01*
X10116790Y10799376D01*
X10118038D01*
X10120950Y10799099D01*
X10123585Y10798544D01*
X10125943Y10797712D01*
X10127884Y10796741D01*
X10129410Y10795770D01*
X10130519Y10794938D01*
X10131213Y10794383D01*
X10131490Y10794106D01*
X10133293Y10792026D01*
X10134680Y10789807D01*
X10135651Y10787588D01*
X10136205Y10785369D01*
X10136621Y10783566D01*
X10136760Y10782040D01*
X10136899Y10781486D01*
Y10781070D01*
Y10780792D01*
Y10780654D01*
X10136621Y10777603D01*
X10135928Y10774829D01*
X10135096Y10772471D01*
X10133986Y10770391D01*
X10132877Y10768727D01*
X10132045Y10767479D01*
X10131351Y10766646D01*
X10131074Y10766369D01*
X10128855Y10764428D01*
X10126497Y10763041D01*
X10124140Y10762070D01*
X10121921Y10761376D01*
X10119979Y10760960D01*
X10118454Y10760822D01*
X10117899Y10760683D01*
X10117067D01*
X10114571Y10760822D01*
X10112213Y10761376D01*
X10110133Y10762070D01*
X10108468Y10762902D01*
X10107082Y10763595D01*
X10105972Y10764289D01*
X10105417Y10764844D01*
X10105140Y10764982D01*
X10103476Y10766924D01*
X10102089Y10769143D01*
X10100841Y10771500D01*
X10099870Y10773997D01*
X10099177Y10776077D01*
X10098899Y10777048D01*
X10098761Y10777880D01*
X10098622Y10778573D01*
X10098483Y10779128D01*
X10098345Y10779405D01*
Y10779544D01*
X10086556Y10778019D01*
X10086834Y10775800D01*
X10087250Y10773719D01*
X10088498Y10769836D01*
X10090024Y10766508D01*
X10090856Y10765121D01*
X10091688Y10763734D01*
X10092520Y10762486D01*
X10093352Y10761515D01*
X10094045Y10760544D01*
X10094739Y10759851D01*
X10095155Y10759296D01*
X10095571Y10758880D01*
X10095848Y10758603D01*
X10095987Y10758464D01*
X10097651Y10757216D01*
X10099315Y10755968D01*
X10100980Y10754997D01*
X10102782Y10754165D01*
X10106250Y10752778D01*
X10109578Y10751946D01*
X10111103Y10751669D01*
X10112490Y10751391D01*
X10113738Y10751253D01*
X10114848Y10751114D01*
X10115680Y10750975D01*
X10116928D01*
X10119563Y10751114D01*
X10121921Y10751391D01*
X10124278Y10751807D01*
X10126497Y10752362D01*
X10128578Y10753055D01*
X10130381Y10753749D01*
X10132183Y10754581D01*
X10133709Y10755413D01*
X10135234Y10756107D01*
X10136483Y10756939D01*
X10137592Y10757632D01*
X10138424Y10758325D01*
X10139118Y10758880D01*
X10139672Y10759296D01*
X10139950Y10759574D01*
X10140088Y10759712D01*
X10141753Y10761376D01*
X10143139Y10763179D01*
X10144388Y10764982D01*
X10145497Y10766785D01*
X10146329Y10768449D01*
X10147161Y10770252D01*
X10148271Y10773581D01*
X10148548Y10775106D01*
X10148826Y10776493D01*
X10149103Y10777741D01*
X10149242Y10778851D01*
X10149380Y10779683D01*
Y10780931D01*
X10149242Y10784259D01*
X10148687Y10787310D01*
X10147855Y10789945D01*
X10147023Y10792164D01*
X10146191Y10793967D01*
X10145358Y10795354D01*
X10144804Y10796186D01*
X10144665Y10796464D01*
X10142723Y10798544D01*
X10140643Y10800347D01*
X10138424Y10801734D01*
X10136205Y10802843D01*
X10134264Y10803675D01*
X10132738Y10804230D01*
X10132183Y10804369D01*
X10131767Y10804507D01*
X10131490Y10804646D01*
X10131351D01*
X10133709Y10805894D01*
X10135651Y10807142D01*
X10137315Y10808529D01*
X10138702Y10809777D01*
X10139811Y10810887D01*
X10140643Y10811857D01*
X10141059Y10812412D01*
X10141198Y10812690D01*
X10142307Y10814631D01*
X10143139Y10816573D01*
X10143833Y10818514D01*
X10144249Y10820317D01*
X10144526Y10821843D01*
X10144665Y10822952D01*
Y10823784D01*
Y10824062D01*
X10144526Y10826419D01*
X10144110Y10828777D01*
X10143556Y10830857D01*
X10142862Y10832660D01*
X10142169Y10834186D01*
X10141614Y10835434D01*
X10141198Y10836127D01*
X10141059Y10836405D01*
X10139672Y10838485D01*
X10138008Y10840288D01*
X10136344Y10841813D01*
X10134680Y10843200D01*
X10133293Y10844171D01*
X10132045Y10845003D01*
X10131213Y10845419D01*
X10131074Y10845558D01*
X10130935D01*
X10128439Y10846667D01*
X10125943Y10847499D01*
X10123446Y10848193D01*
X10121227Y10848609D01*
X10119425Y10848886D01*
X10117899Y10849025D01*
D02*
G37*
G36*
X10243824Y10848609D02*
X10230926D01*
X10204854Y10778851D01*
X10203744Y10775938D01*
X10202774Y10773165D01*
X10201941Y10770530D01*
X10201248Y10768172D01*
X10200555Y10766092D01*
X10200139Y10764566D01*
X10200000Y10764011D01*
X10199861Y10763595D01*
X10199723Y10763318D01*
Y10763179D01*
X10198058Y10768727D01*
X10197226Y10771362D01*
X10196394Y10773719D01*
X10195701Y10775800D01*
X10195423Y10776632D01*
X10195285Y10777464D01*
X10195007Y10778019D01*
X10194869Y10778435D01*
X10194730Y10778712D01*
Y10778851D01*
X10169767Y10848609D01*
X10155898D01*
X10193066Y10752639D01*
X10206379D01*
X10243824Y10848609D01*
D02*
G37*
G36*
X10528703Y10248817D02*
X10515805D01*
X10489733Y10179059D01*
X10488623Y10176146D01*
X10487653Y10173373D01*
X10486821Y10170738D01*
X10486127Y10168380D01*
X10485434Y10166300D01*
X10485018Y10164774D01*
X10484879Y10164219D01*
X10484740Y10163803D01*
X10484602Y10163526D01*
Y10163387D01*
X10482937Y10168935D01*
X10482105Y10171570D01*
X10481273Y10173927D01*
X10480580Y10176008D01*
X10480302Y10176840D01*
X10480164Y10177672D01*
X10479886Y10178227D01*
X10479748Y10178643D01*
X10479609Y10178920D01*
Y10179059D01*
X10454646Y10248817D01*
X10440777D01*
X10477945Y10152847D01*
X10491258D01*
X10528703Y10248817D01*
D02*
G37*
G36*
X10430376Y10247569D02*
X10382669D01*
X10373377Y10198197D01*
X10384472Y10196672D01*
X10385443Y10198197D01*
X10386691Y10199445D01*
X10387800Y10200693D01*
X10388910Y10201664D01*
X10390019Y10202358D01*
X10390851Y10203051D01*
X10391406Y10203328D01*
X10391545Y10203467D01*
X10393348Y10204299D01*
X10395150Y10204993D01*
X10396815Y10205409D01*
X10398479Y10205825D01*
X10399866Y10205963D01*
X10400975Y10206102D01*
X10403610D01*
X10405274Y10205825D01*
X10408187Y10205131D01*
X10410683Y10204160D01*
X10412902Y10203190D01*
X10414566Y10202080D01*
X10415814Y10201109D01*
X10416508Y10200416D01*
X10416785Y10200277D01*
Y10200139D01*
X10418727Y10197781D01*
X10420114Y10195285D01*
X10421084Y10192650D01*
X10421778Y10190015D01*
X10422194Y10187796D01*
X10422332Y10186825D01*
Y10185993D01*
X10422471Y10185299D01*
Y10184745D01*
Y10184467D01*
Y10184329D01*
Y10182387D01*
X10422194Y10180584D01*
X10421500Y10177117D01*
X10420530Y10174205D01*
X10419559Y10171847D01*
X10418449Y10169905D01*
X10417479Y10168380D01*
X10417062Y10167964D01*
X10416785Y10167548D01*
X10416646Y10167409D01*
X10416508Y10167270D01*
X10415398Y10166161D01*
X10414289Y10165190D01*
X10411792Y10163526D01*
X10409435Y10162417D01*
X10407077Y10161723D01*
X10405136Y10161168D01*
X10403471Y10161030D01*
X10402917Y10160891D01*
X10402085D01*
X10399450Y10161030D01*
X10397092Y10161584D01*
X10395012Y10162278D01*
X10393348Y10163110D01*
X10391822Y10163942D01*
X10390713Y10164635D01*
X10390158Y10165190D01*
X10389880Y10165329D01*
X10388216Y10167270D01*
X10386829Y10169351D01*
X10385720Y10171708D01*
X10384888Y10173789D01*
X10384333Y10175869D01*
X10383917Y10177394D01*
X10383778Y10178088D01*
X10383640Y10178504D01*
Y10178781D01*
Y10178920D01*
X10371297Y10177949D01*
X10371574Y10175730D01*
X10371990Y10173650D01*
X10373238Y10169767D01*
X10374764Y10166438D01*
X10375596Y10164913D01*
X10376428Y10163665D01*
X10377121Y10162417D01*
X10377954Y10161307D01*
X10378647Y10160475D01*
X10379340Y10159782D01*
X10379895Y10159227D01*
X10380173Y10158672D01*
X10380450Y10158533D01*
X10380589Y10158395D01*
X10382253Y10157147D01*
X10383917Y10156037D01*
X10385720Y10155066D01*
X10387523Y10154234D01*
X10390990Y10152986D01*
X10394457Y10152154D01*
X10395983Y10151738D01*
X10397508Y10151599D01*
X10398756Y10151461D01*
X10399866Y10151322D01*
X10400836Y10151183D01*
X10402085D01*
X10404997Y10151322D01*
X10407771Y10151738D01*
X10410406Y10152293D01*
X10412763Y10152986D01*
X10414982Y10153957D01*
X10417062Y10154928D01*
X10419004Y10155898D01*
X10420668Y10157008D01*
X10422194Y10158117D01*
X10423581Y10159088D01*
X10424690Y10160198D01*
X10425661Y10161030D01*
X10426354Y10161723D01*
X10426909Y10162278D01*
X10427186Y10162694D01*
X10427325Y10162833D01*
X10428712Y10164635D01*
X10429821Y10166577D01*
X10430931Y10168380D01*
X10431763Y10170322D01*
X10433150Y10174066D01*
X10433982Y10177672D01*
X10434259Y10179197D01*
X10434537Y10180723D01*
X10434675Y10181971D01*
X10434814Y10183080D01*
X10434953Y10184051D01*
Y10185299D01*
X10434814Y10187796D01*
X10434537Y10190153D01*
X10434121Y10192511D01*
X10433566Y10194591D01*
X10432872Y10196533D01*
X10432179Y10198474D01*
X10431347Y10200139D01*
X10430654Y10201664D01*
X10429821Y10203051D01*
X10428989Y10204299D01*
X10428296Y10205270D01*
X10427602Y10206241D01*
X10427048Y10206934D01*
X10426632Y10207350D01*
X10426354Y10207628D01*
X10426216Y10207766D01*
X10424551Y10209292D01*
X10422887Y10210679D01*
X10421084Y10211788D01*
X10419281Y10212759D01*
X10417479Y10213730D01*
X10415676Y10214423D01*
X10412347Y10215394D01*
X10410822Y10215810D01*
X10409435Y10216087D01*
X10408187Y10216226D01*
X10407077Y10216365D01*
X10406245Y10216503D01*
X10403194D01*
X10401530Y10216226D01*
X10398201Y10215533D01*
X10395150Y10214562D01*
X10392377Y10213452D01*
X10390158Y10212343D01*
X10389187Y10211788D01*
X10388355Y10211372D01*
X10387661Y10210956D01*
X10387245Y10210679D01*
X10386968Y10210540D01*
X10386829Y10210401D01*
X10391961Y10236335D01*
X10430376D01*
Y10247569D01*
D02*
G37*
G36*
X13408247Y6462154D02*
X13408154D01*
X13407877D01*
X13407507Y6462061D01*
X13407045D01*
X13406029Y6461784D01*
X13404919Y6461229D01*
X13404826Y6461137D01*
X13404733Y6461044D01*
X13404271Y6460489D01*
X13403809Y6459750D01*
X13403717Y6459195D01*
X13403624Y6458640D01*
Y6458455D01*
X13403717Y6458086D01*
X13403902Y6457531D01*
X13404364Y6456884D01*
X13405011Y6456329D01*
X13405566Y6456052D01*
X13406120Y6455774D01*
X13406767Y6455497D01*
X13407507Y6455404D01*
X13408432Y6455219D01*
X13409448D01*
X13409541D01*
X13409819D01*
X13410188D01*
X13410744Y6455312D01*
X13411760Y6455404D01*
X13412131Y6455497D01*
X13412500Y6455682D01*
X13412592Y6455774D01*
X13412962Y6456052D01*
X13413240Y6456699D01*
X13413425Y6457531D01*
Y6457808D01*
X13413332Y6458178D01*
X13413240Y6458640D01*
X13413055Y6459103D01*
X13412778Y6459657D01*
X13412408Y6460212D01*
X13411853Y6460767D01*
X13411760Y6460859D01*
X13411575Y6460952D01*
X13411298Y6461229D01*
X13410835Y6461414D01*
X13410281Y6461691D01*
X13409726Y6461969D01*
X13408987Y6462061D01*
X13408247Y6462154D01*
D02*
G37*
G36*
X11909183Y5947770D02*
X11908628D01*
X11907981Y5947585D01*
X11907149Y5947400D01*
X11906225Y5947031D01*
X11905300Y5946476D01*
X11904375Y5945644D01*
X11903543Y5944627D01*
X11903451Y5944534D01*
X11903266Y5944164D01*
X11903081Y5943702D01*
X11902804Y5943055D01*
X11902434Y5942223D01*
X11902249Y5941206D01*
X11902064Y5940189D01*
X11901972Y5938987D01*
Y5938894D01*
Y5938802D01*
Y5938525D01*
Y5938155D01*
X11902064Y5937692D01*
Y5937138D01*
X11902249Y5935751D01*
X11902434Y5934179D01*
X11902804Y5932238D01*
X11903266Y5930111D01*
X11903913Y5927800D01*
Y5927707D01*
X11904006Y5927522D01*
X11904098Y5927152D01*
X11904283Y5926783D01*
X11904468Y5926228D01*
X11904653Y5925581D01*
X11905300Y5924009D01*
X11905947Y5922345D01*
X11906779Y5920403D01*
X11907796Y5918462D01*
X11908813Y5916613D01*
X11908906Y5916520D01*
X11909091Y5916243D01*
X11909368Y5915873D01*
X11909738Y5915411D01*
X11910755Y5914394D01*
X11912049Y5913284D01*
X11912142Y5913192D01*
X11912419Y5913099D01*
X11912789Y5912914D01*
X11913251Y5912729D01*
X11913898Y5912452D01*
X11914546Y5912267D01*
X11915285Y5912175D01*
X11916025Y5912082D01*
X11916580D01*
X11917134Y5912175D01*
X11917874Y5912360D01*
X11918706Y5912637D01*
X11919538Y5913099D01*
X11920463Y5913654D01*
X11921202Y5914486D01*
X11921295Y5914578D01*
X11921480Y5914948D01*
X11921850Y5915503D01*
X11922219Y5916150D01*
X11922589Y5917075D01*
X11922959Y5918184D01*
X11923144Y5919479D01*
X11923237Y5920865D01*
Y5920958D01*
Y5921143D01*
Y5921420D01*
Y5921790D01*
X11923144Y5922252D01*
Y5922807D01*
X11923052Y5924194D01*
X11922867Y5925858D01*
X11922497Y5927707D01*
X11922127Y5929834D01*
X11921572Y5931960D01*
Y5932053D01*
X11921480Y5932238D01*
X11921387Y5932515D01*
X11921295Y5932977D01*
X11921110Y5933439D01*
X11920925Y5934087D01*
X11920370Y5935474D01*
X11919816Y5937045D01*
X11919076Y5938802D01*
X11918151Y5940466D01*
X11917227Y5942130D01*
X11917134Y5942223D01*
X11916949Y5942593D01*
X11916580Y5943055D01*
X11916210Y5943610D01*
X11915655Y5944257D01*
X11915008Y5944904D01*
X11914268Y5945644D01*
X11913529Y5946198D01*
X11913436Y5946291D01*
X11913159Y5946476D01*
X11912697Y5946661D01*
X11912234Y5946938D01*
X11911495Y5947215D01*
X11910847Y5947493D01*
X11910015Y5947678D01*
X11909183Y5947770D01*
D02*
G37*
G36*
X11685625Y5918554D02*
X11685347D01*
X11684977Y5918462D01*
X11684515Y5918369D01*
X11684053Y5918184D01*
X11683498Y5917907D01*
X11682943Y5917537D01*
X11682389Y5916982D01*
X11682296Y5916890D01*
X11682204Y5916705D01*
X11681926Y5916428D01*
X11681741Y5915965D01*
X11681464Y5915411D01*
X11681187Y5914856D01*
X11681094Y5914116D01*
X11681002Y5913377D01*
Y5913284D01*
Y5913007D01*
X11681094Y5912637D01*
Y5912175D01*
X11681372Y5911158D01*
X11681926Y5910048D01*
X11682019Y5909956D01*
X11682111Y5909863D01*
X11682666Y5909401D01*
X11683406Y5908939D01*
X11683960Y5908846D01*
X11684515Y5908754D01*
X11684700D01*
X11685070Y5908846D01*
X11685625Y5909031D01*
X11686272Y5909493D01*
X11686827Y5910141D01*
X11687104Y5910695D01*
X11687381Y5911250D01*
X11687659Y5911897D01*
X11687751Y5912637D01*
X11687936Y5913561D01*
Y5914578D01*
Y5914671D01*
Y5914948D01*
Y5915318D01*
X11687844Y5915873D01*
X11687751Y5916890D01*
X11687659Y5917260D01*
X11687474Y5917630D01*
X11687381Y5917722D01*
X11687104Y5918092D01*
X11686457Y5918369D01*
X11685625Y5918554D01*
D02*
G37*
%LPD*%
D44*
X10453354Y10495000D02*
G03*
X10450000Y10491646I0J-3354D01*
G01*
X10199354Y10495000D02*
G03*
X10200000Y10495646I0J646D01*
G01*
X9950000Y10490354D02*
G03*
X9945354Y10495000I-4646J0D01*
G01*
X13500000Y6550000D02*
G03*
X13450000Y6600000I-50000J0D01*
G01*
X13400000D02*
G03*
X13350000Y6550000I0J-50000D01*
G01*
X13350000Y6150000D02*
G03*
X13400000Y6100000I50000J0D01*
G01*
X13450000D02*
G03*
X13500000Y6150000I0J50000D01*
G01*
X13273000Y5922000D02*
G03*
X13400000Y6049000I0J127000D01*
G01*
X11500000Y5900000D02*
G03*
X11550000Y5850000I50000J0D01*
G01*
Y6000000D02*
G03*
X11500000Y5950000I0J-50000D01*
G01*
X12150000Y5950000D02*
G03*
X12100000Y6000000I-50000J0D01*
G01*
X12100000Y5850000D02*
G03*
X12150000Y5900000I0J50000D01*
G01*
X12632000Y5400000D02*
G03*
X12646000Y5414000I0J14000D01*
G01*
X12625000Y5675000D02*
G03*
X12650000Y5700000I0J25000D01*
G01*
X12646000Y5922000D02*
G03*
X12618000Y5950000I-28000J0D01*
G01*
X12150000Y5475000D02*
G03*
X12100000Y5525000I-50000J0D01*
G01*
X12100000Y5275000D02*
G03*
X12150000Y5325000I0J50000D01*
G01*
X11850000Y5325000D02*
G03*
X11900000Y5275000I50000J0D01*
G01*
Y5525000D02*
G03*
X11850000Y5475000I0J-50000D01*
G01*
X12150000Y5750000D02*
G03*
X12100000Y5800000I-50000J0D01*
G01*
X12100000Y5550000D02*
G03*
X12150000Y5600000I0J50000D01*
G01*
X11850000Y5600000D02*
G03*
X11900000Y5550000I50000J0D01*
G01*
Y5800000D02*
G03*
X11850000Y5750000I0J-50000D01*
G01*
X10450000Y10300000D02*
Y10371400D01*
X10200000Y10625970D02*
Y10700000D01*
X9952385Y10276791D02*
Y10366938D01*
X13400000Y6600000D02*
X13450000D01*
X13350000Y6150000D02*
Y6550000D01*
X13500000Y6150000D02*
Y6550000D01*
X13400000Y6100000D02*
X13450000D01*
X13400000Y6049000D02*
Y6100000D01*
X12900000Y5922000D02*
X13273000D01*
X11500000Y5900000D02*
Y5950000D01*
X11550000Y6000000D02*
X12100000D01*
X12150000Y5900000D02*
Y5950000D01*
X11550000Y5850000D02*
X12100000D01*
X12150000Y5900000D02*
X12600000D01*
X12150000Y5400000D02*
X12632000D01*
X12150000Y5675000D02*
X12625000D01*
X12000000Y5525000D02*
X12100000D01*
X12150000Y5325000D02*
Y5475000D01*
X11900000Y5275000D02*
X12100000D01*
X11850000Y5325000D02*
Y5475000D01*
X11900000Y5525000D02*
X12000000D01*
Y5800000D02*
X12100000D01*
X12150000Y5600000D02*
Y5750000D01*
X11900000Y5550000D02*
X12100000D01*
X11850000Y5600000D02*
Y5750000D01*
X11900000Y5800000D02*
X12000000D01*
X11925400Y5625400D02*
Y5725368D01*
X11992045Y5625400D01*
Y5725368D01*
X12092013Y5708706D02*
X12075352Y5725368D01*
X12042029D01*
X12025368Y5708706D01*
Y5642061D01*
X12042029Y5625400D01*
X12075352D01*
X12092013Y5642061D01*
X11925400Y5350400D02*
Y5450368D01*
X11992045Y5350400D01*
Y5450368D01*
X12092013Y5433707D02*
X12075352Y5450368D01*
X12042029D01*
X12025368Y5433707D01*
Y5367062D01*
X12042029Y5350400D01*
X12075352D01*
X12092013Y5367062D01*
X8079358Y11073603D02*
X8012713D01*
Y11023619D01*
X8046036Y11040280D01*
X8062697D01*
X8079358Y11023619D01*
Y10990297D01*
X8062697Y10973635D01*
X8029375D01*
X8012713Y10990297D01*
X8112681Y11073603D02*
Y11006958D01*
X8146004Y10973635D01*
X8179326Y11006958D01*
Y11073603D01*
X8362601D02*
X8329278D01*
X8312617Y11056942D01*
Y10990297D01*
X8329278Y10973635D01*
X8362601D01*
X8379262Y10990297D01*
Y11056942D01*
X8362601Y11073603D01*
X8412585Y11040280D02*
Y10990297D01*
X8429246Y10973635D01*
X8479230D01*
Y11040280D01*
X8529214Y11056942D02*
Y11040280D01*
X8512552D01*
X8545875D01*
X8529214D01*
Y10990297D01*
X8545875Y10973635D01*
X8695827Y11073603D02*
Y10973635D01*
X8845778Y11056942D02*
X8862440Y11073603D01*
X8895762D01*
X8912423Y11056942D01*
Y11040280D01*
X8895762Y11023619D01*
X8879101D01*
X8895762D01*
X8912423Y11006958D01*
Y10990297D01*
X8895762Y10973635D01*
X8862440D01*
X8845778Y10990297D01*
X8945746Y11073603D02*
Y11006958D01*
X8979069Y10973635D01*
X9012391Y11006958D01*
Y11073603D01*
X9045714Y11056942D02*
X9062375Y11073603D01*
X9095698D01*
X9112359Y11056942D01*
Y11040280D01*
X9095698Y11023619D01*
X9079036D01*
X9095698D01*
X9112359Y11006958D01*
Y10990297D01*
X9095698Y10973635D01*
X9062375D01*
X9045714Y10990297D01*
X9295633Y11073603D02*
X9262311D01*
X9245650Y11056942D01*
Y10990297D01*
X9262311Y10973635D01*
X9295633D01*
X9312295Y10990297D01*
Y11056942D01*
X9295633Y11073603D01*
X9345617Y11040280D02*
Y10990297D01*
X9362279Y10973635D01*
X9412262D01*
Y11040280D01*
X9462247Y11056942D02*
Y11040280D01*
X9445585D01*
X9478908D01*
X9462247D01*
Y10990297D01*
X9478908Y10973635D01*
X11259099Y9318213D02*
Y9165863D01*
X11335274D01*
X11360666Y9191254D01*
Y9292821D01*
X11335274Y9318213D01*
X11259099D01*
X11411450Y9140471D02*
X11513017D01*
X11563800Y9292821D02*
X11589192Y9318213D01*
X11639976D01*
X11665368Y9292821D01*
Y9267430D01*
X11639976Y9242038D01*
X11614584D01*
X11639976D01*
X11665368Y9216646D01*
Y9191254D01*
X11639976Y9165863D01*
X11589192D01*
X11563800Y9191254D01*
X11716151Y9318213D02*
Y9216646D01*
X11766935Y9165863D01*
X11817718Y9216646D01*
Y9318213D01*
X11868502Y9292821D02*
X11893894Y9318213D01*
X11944677D01*
X11970069Y9292821D01*
Y9267430D01*
X11944677Y9242038D01*
X11919285D01*
X11944677D01*
X11970069Y9216646D01*
Y9191254D01*
X11944677Y9165863D01*
X11893894D01*
X11868502Y9191254D01*
X9993644Y11097363D02*
X10027766D01*
X10010705D01*
Y10994996D01*
X9993644D01*
X10027766D01*
X10078950D02*
Y11063240D01*
X10130133D01*
X10147195Y11046179D01*
Y10994996D01*
X10181317Y10960873D02*
Y11063240D01*
X10232500D01*
X10249562Y11046179D01*
Y11012057D01*
X10232500Y10994996D01*
X10181317D01*
X10283684Y11063240D02*
Y11012057D01*
X10300745Y10994996D01*
X10351929D01*
Y11063240D01*
X10403112Y11080301D02*
Y11063240D01*
X10386051D01*
X10420173D01*
X10403112D01*
Y11012057D01*
X10420173Y10994996D01*
X11478497Y10964014D02*
Y10811664D01*
X11554673D01*
X11580064Y10837056D01*
Y10938623D01*
X11554673Y10964014D01*
X11478497D01*
X11630848Y10786272D02*
X11732415D01*
X11884766Y10964014D02*
X11783199D01*
Y10887839D01*
X11833982D01*
X11783199D01*
Y10811664D01*
X11935549Y10964014D02*
Y10837056D01*
X11960941Y10811664D01*
X12011725D01*
X12037117Y10837056D01*
Y10964014D01*
X12189467Y10938623D02*
X12164075Y10964014D01*
X12113292D01*
X12087900Y10938623D01*
Y10913231D01*
X12113292Y10887839D01*
X12164075D01*
X12189467Y10862447D01*
Y10837056D01*
X12164075Y10811664D01*
X12113292D01*
X12087900Y10837056D01*
X12341818Y10964014D02*
X12240251D01*
Y10811664D01*
X12341818D01*
X12240251Y10887839D02*
X12291034D01*
X8301468Y4136371D02*
Y3984020D01*
X8377644D01*
X8403036Y4009412D01*
Y4110979D01*
X8377644Y4136371D01*
X8301468D01*
X8453819Y3958629D02*
X8555386D01*
X8707737Y4136371D02*
X8606170D01*
Y3984020D01*
X8707737D01*
X8606170Y4060196D02*
X8656953D01*
X8758520Y3984020D02*
Y4136371D01*
X8860088Y3984020D01*
Y4136371D01*
X10405940Y9377332D02*
Y9224982D01*
X10482115D01*
X10507507Y9250373D01*
Y9351940D01*
X10482115Y9377332D01*
X10405940D01*
X10558291Y9199590D02*
X10659858D01*
X10812208Y9377332D02*
X10710641D01*
Y9301157D01*
X10761425Y9326549D01*
X10786817D01*
X10812208Y9301157D01*
Y9250373D01*
X10786817Y9224982D01*
X10736033D01*
X10710641Y9250373D01*
X10862992Y9377332D02*
Y9275765D01*
X10913775Y9224982D01*
X10964559Y9275765D01*
Y9377332D01*
D45*
X8464880Y10027500D02*
G03*
X8464880Y10027500I-12500J0D01*
G01*
X9013044Y8362500D02*
G03*
X9013044Y8362500I-12500J0D01*
G01*
Y7212500D02*
G03*
X9013044Y7212500I-12500J0D01*
G01*
Y4612500D02*
G03*
X9013044Y4612500I-12500J0D01*
G01*
X8125854Y3360500D02*
G03*
X8125854Y3360500I-12500J0D01*
G01*
D46*
X6484100Y9808200D02*
G03*
X6484100Y9808200I-38100J0D01*
G01*
X12684100D02*
G03*
X12684100Y9808200I-38100J0D01*
G01*
D47*
X9343587Y8320000D02*
G03*
X9343587Y8320000I-25000J0D01*
G01*
Y7170000D02*
G03*
X9343587Y7170000I-25000J0D01*
G01*
Y4570000D02*
G03*
X9343587Y4570000I-25000J0D01*
G01*
D48*
X9150000Y10320000D02*
Y10680000D01*
X9050000Y10320000D02*
X9150000D01*
X9050000Y10680000D02*
X9150000D01*
X8250000Y10320000D02*
X8350000D01*
X8250000D02*
Y10680000D01*
X8350000D01*
X11760357Y10295573D02*
X11938687D01*
Y10361313D01*
X11760357Y10295573D02*
Y10360357D01*
X11362417Y9756665D02*
X11537532D01*
X11362417Y9687583D02*
Y9756665D01*
X11537532Y9687533D02*
Y9756665D01*
X10659886Y9757292D02*
X10840052D01*
X10659886Y9690114D02*
Y9757292D01*
X10840052Y9690053D02*
Y9757292D01*
X8426284Y3677073D02*
Y3857910D01*
Y3677073D02*
X8493705D01*
X8426284Y3857910D02*
X8493722D01*
X9243588Y7745000D02*
Y8395000D01*
Y7745000D02*
X9563121D01*
Y8395000D01*
X9243588D02*
X9563121D01*
X9243588Y6595000D02*
Y7245000D01*
Y6595000D02*
X9563121D01*
Y7245000D01*
X9243588D02*
X9563121D01*
X9243588Y3995000D02*
Y4645000D01*
Y3995000D02*
X9563121D01*
Y4645000D01*
X9243588D02*
X9563121D01*
X8345858Y2920000D02*
X8660851D01*
X8345858Y3420000D02*
X8660851D01*
D49*
X6124040Y9744700D02*
X7023200D01*
Y3877300D02*
Y9744700D01*
X6124040Y3877300D02*
X7023200D01*
X6124040D02*
Y9744700D01*
X12324040D02*
X13223199D01*
Y3877300D02*
Y9744700D01*
X12324040Y3877300D02*
X13223199D01*
X12324040D02*
Y9744700D01*
D50*
X9607516Y3174973D02*
Y2925027D01*
X9619419Y3174973D02*
Y2925027D01*
X9571810Y3174973D02*
X9714636D01*
X9750343Y3163071D01*
X9762245Y3151169D01*
X9774148Y3127365D01*
Y3091658D01*
X9762245Y3067853D01*
X9750343Y3055951D01*
X9714636Y3044049D01*
X9619419D01*
X9714636Y3174973D02*
X9738441Y3163071D01*
X9750343Y3151169D01*
X9762245Y3127365D01*
Y3091658D01*
X9750343Y3067853D01*
X9738441Y3055951D01*
X9714636Y3044049D01*
X9571810Y2925027D02*
X9655125D01*
X9843180Y3174973D02*
Y2925027D01*
X9855082Y3174973D02*
Y2925027D01*
X9807474Y3174973D02*
X9890789D01*
X9807474Y2925027D02*
X9890789D01*
X10327600Y3139267D02*
X10339503Y3103560D01*
Y3174973D01*
X10327600Y3139267D01*
X10303796Y3163071D01*
X10268089Y3174973D01*
X10244285D01*
X10208578Y3163071D01*
X10184774Y3139267D01*
X10172871Y3115462D01*
X10160969Y3079756D01*
Y3020245D01*
X10172871Y2984538D01*
X10184774Y2960733D01*
X10208578Y2936929D01*
X10244285Y2925027D01*
X10268089D01*
X10303796Y2936929D01*
X10327600Y2960733D01*
X10244285Y3174973D02*
X10220480Y3163071D01*
X10196676Y3139267D01*
X10184774Y3115462D01*
X10172871Y3079756D01*
Y3020245D01*
X10184774Y2984538D01*
X10196676Y2960733D01*
X10220480Y2936929D01*
X10244285Y2925027D01*
X10327600Y3020245D02*
Y2925027D01*
X10339503Y3020245D02*
Y2925027D01*
X10291894Y3020245D02*
X10375209D01*
X10443052Y3174973D02*
Y2925027D01*
X10454954Y3174973D02*
Y2925027D01*
X10407345Y3174973D02*
X10550171D01*
X10585878Y3163071D01*
X10597780Y3151169D01*
X10609683Y3127365D01*
Y3091658D01*
X10597780Y3067853D01*
X10585878Y3055951D01*
X10550171Y3044049D01*
X10454954D01*
X10550171Y3174973D02*
X10573976Y3163071D01*
X10585878Y3151169D01*
X10597780Y3127365D01*
Y3091658D01*
X10585878Y3067853D01*
X10573976Y3055951D01*
X10550171Y3044049D01*
X10407345Y2925027D02*
X10490661D01*
X10678715Y3174973D02*
Y2925027D01*
X10690617Y3174973D02*
Y2925027D01*
X10643009Y3174973D02*
X10726324D01*
X10643009Y2925027D02*
X10726324D01*
X10854868Y3174973D02*
X10819161Y3163071D01*
X10795357Y3139267D01*
X10783455Y3115462D01*
X10771552Y3067853D01*
Y3032147D01*
X10783455Y2984538D01*
X10795357Y2960733D01*
X10819161Y2936929D01*
X10854868Y2925027D01*
X10878672D01*
X10914379Y2936929D01*
X10938183Y2960733D01*
X10950086Y2984538D01*
X10961988Y3032147D01*
Y3067853D01*
X10950086Y3115462D01*
X10938183Y3139267D01*
X10914379Y3163071D01*
X10878672Y3174973D01*
X10854868D01*
X10831064Y3163071D01*
X10807259Y3139267D01*
X10795357Y3115462D01*
X10783455Y3067853D01*
Y3032147D01*
X10795357Y2984538D01*
X10807259Y2960733D01*
X10831064Y2936929D01*
X10854868Y2925027D01*
X10878672D02*
X10902477Y2936929D01*
X10926281Y2960733D01*
X10938183Y2984538D01*
X10950086Y3032147D01*
Y3067853D01*
X10938183Y3115462D01*
X10926281Y3139267D01*
X10902477Y3163071D01*
X10878672Y3174973D01*
X11257163D02*
Y2925027D01*
X11269065Y3174973D02*
Y2925027D01*
X11221456Y3174973D02*
X11364283D01*
X11399989Y3163071D01*
X11411892Y3151169D01*
X11423794Y3127365D01*
Y3091658D01*
X11411892Y3067853D01*
X11399989Y3055951D01*
X11364283Y3044049D01*
X11269065D01*
X11364283Y3174973D02*
X11388087Y3163071D01*
X11399989Y3151169D01*
X11411892Y3127365D01*
Y3091658D01*
X11399989Y3067853D01*
X11388087Y3055951D01*
X11364283Y3044049D01*
X11221456Y2925027D02*
X11304772D01*
X11492826Y3091658D02*
Y2925027D01*
X11504729Y3091658D02*
Y2925027D01*
Y3020245D02*
X11516631Y3055951D01*
X11540435Y3079756D01*
X11564240Y3091658D01*
X11599946D01*
X11611849Y3079756D01*
Y3067853D01*
X11599946Y3055951D01*
X11588044Y3067853D01*
X11599946Y3079756D01*
X11457120Y3091658D02*
X11504729D01*
X11457120Y2925027D02*
X11540435D01*
X11721349Y3091658D02*
X11685642Y3079756D01*
X11661838Y3055951D01*
X11649936Y3020245D01*
Y2996440D01*
X11661838Y2960733D01*
X11685642Y2936929D01*
X11721349Y2925027D01*
X11745153D01*
X11780860Y2936929D01*
X11804664Y2960733D01*
X11816566Y2996440D01*
Y3020245D01*
X11804664Y3055951D01*
X11780860Y3079756D01*
X11745153Y3091658D01*
X11721349D01*
X11697544Y3079756D01*
X11673740Y3055951D01*
X11661838Y3020245D01*
Y2996440D01*
X11673740Y2960733D01*
X11697544Y2936929D01*
X11721349Y2925027D01*
X11745153D02*
X11768958Y2936929D01*
X11792762Y2960733D01*
X11804664Y2996440D01*
Y3020245D01*
X11792762Y3055951D01*
X11768958Y3079756D01*
X11745153Y3091658D01*
X11924877Y2925027D02*
X11912975Y2936929D01*
X11901072Y2972636D01*
Y3174973D01*
X11889170D01*
Y2972636D01*
X11901072Y2936929D01*
X11924877Y2925027D01*
X11948681D01*
X11972486Y2936929D01*
X11984388Y2960733D01*
X11853463Y3091658D02*
X11948681D01*
X12036757Y3020245D02*
X12179584D01*
Y3044049D01*
X12167682Y3067853D01*
X12155780Y3079756D01*
X12131975Y3091658D01*
X12096269D01*
X12060562Y3079756D01*
X12036757Y3055951D01*
X12024855Y3020245D01*
Y2996440D01*
X12036757Y2960733D01*
X12060562Y2936929D01*
X12096269Y2925027D01*
X12120073D01*
X12155780Y2936929D01*
X12179584Y2960733D01*
X12167682Y3020245D02*
Y3055951D01*
X12155780Y3079756D01*
X12096269Y3091658D02*
X12072464Y3079756D01*
X12048660Y3055951D01*
X12036757Y3020245D01*
Y2996440D01*
X12048660Y2960733D01*
X12072464Y2936929D01*
X12096269Y2925027D01*
X12360498Y3055951D02*
X12348595Y3044049D01*
X12360498Y3032147D01*
X12372400Y3044049D01*
Y3055951D01*
X12348595Y3079756D01*
X12324791Y3091658D01*
X12289084D01*
X12253378Y3079756D01*
X12229573Y3055951D01*
X12217671Y3020245D01*
Y2996440D01*
X12229573Y2960733D01*
X12253378Y2936929D01*
X12289084Y2925027D01*
X12312889D01*
X12348595Y2936929D01*
X12372400Y2960733D01*
X12289084Y3091658D02*
X12265280Y3079756D01*
X12241475Y3055951D01*
X12229573Y3020245D01*
Y2996440D01*
X12241475Y2960733D01*
X12265280Y2936929D01*
X12289084Y2925027D01*
X12481900D02*
X12469998Y2936929D01*
X12458095Y2972636D01*
Y3174973D01*
X12446193D01*
Y2972636D01*
X12458095Y2936929D01*
X12481900Y2925027D01*
X12505704D01*
X12529509Y2936929D01*
X12541411Y2960733D01*
X12410487Y3091658D02*
X12505704D01*
X12617585Y3174973D02*
X12605683Y3163071D01*
X12617585Y3151169D01*
X12629487Y3163071D01*
X12617585Y3174973D01*
Y3091658D02*
Y2925027D01*
X12629487Y3091658D02*
Y2925027D01*
X12581879Y3091658D02*
X12629487D01*
X12581879Y2925027D02*
X12665194D01*
X12781836Y3091658D02*
X12746129Y3079756D01*
X12722325Y3055951D01*
X12710422Y3020245D01*
Y2996440D01*
X12722325Y2960733D01*
X12746129Y2936929D01*
X12781836Y2925027D01*
X12805640D01*
X12841347Y2936929D01*
X12865150Y2960733D01*
X12877052Y2996440D01*
Y3020245D01*
X12865150Y3055951D01*
X12841347Y3079756D01*
X12805640Y3091658D01*
X12781836D01*
X12758031Y3079756D01*
X12734227Y3055951D01*
X12722325Y3020245D01*
Y2996440D01*
X12734227Y2960733D01*
X12758031Y2936929D01*
X12781836Y2925027D01*
X12805640D02*
X12829443Y2936929D01*
X12853249Y2960733D01*
X12865150Y2996440D01*
Y3020245D01*
X12853249Y3055951D01*
X12829443Y3079756D01*
X12805640Y3091658D01*
X12949657D02*
Y2925027D01*
X12961559Y3091658D02*
Y2925027D01*
Y3055951D02*
X12985364Y3079756D01*
X13021069Y3091658D01*
X13044875D01*
X13080582Y3079756D01*
X13092484Y3055951D01*
Y2925027D01*
X13044875Y3091658D02*
X13068678Y3079756D01*
X13080582Y3055951D01*
Y2925027D01*
X12913950Y3091658D02*
X12961559D01*
X12913950Y2925027D02*
X12997266D01*
X13044875D02*
X13128191D01*
X10338811Y3639267D02*
X10350713Y3674973D01*
Y3603560D01*
X10338811Y3639267D01*
X10315006Y3663071D01*
X10279300Y3674973D01*
X10243593D01*
X10207886Y3663071D01*
X10184082Y3639267D01*
Y3615462D01*
X10195984Y3591658D01*
X10207886Y3579756D01*
X10231691Y3567853D01*
X10303104Y3544049D01*
X10326908Y3532147D01*
X10350713Y3508342D01*
X10184082Y3615462D02*
X10207886Y3591658D01*
X10231691Y3579756D01*
X10303104Y3555951D01*
X10326908Y3544049D01*
X10338811Y3532147D01*
X10350713Y3508342D01*
Y3460733D01*
X10326908Y3436929D01*
X10291202Y3425027D01*
X10255495D01*
X10219789Y3436929D01*
X10195984Y3460733D01*
X10184082Y3496440D01*
Y3425027D01*
X10195984Y3460733D01*
X10494730Y3674973D02*
X10411414Y3425027D01*
X10494730Y3674973D02*
X10578045Y3425027D01*
X10494730Y3639267D02*
X10566143Y3425027D01*
X10435219Y3496440D02*
X10542339D01*
X10387610Y3425027D02*
X10459023D01*
X10530436D02*
X10601850D01*
X10669692Y3674973D02*
Y3425027D01*
X10681594Y3674973D02*
Y3425027D01*
X10633986Y3674973D02*
X10717301D01*
X10633986Y3425027D02*
X10717301D01*
X10798236Y3674973D02*
Y3425027D01*
X10810138Y3674973D02*
Y3425027D01*
X10762529Y3674973D02*
X10845845D01*
X10762529Y3425027D02*
X10941063D01*
Y3496440D01*
X10929160Y3425027D01*
X11012476Y3674973D02*
Y3425027D01*
X11024378Y3674973D02*
Y3425027D01*
X10976769Y3674973D02*
X11119596D01*
X11155303Y3663071D01*
X11167205Y3651169D01*
X11179107Y3627365D01*
Y3603560D01*
X11167205Y3579756D01*
X11155303Y3567853D01*
X11119596Y3555951D01*
Y3674973D02*
X11143400Y3663071D01*
X11155303Y3651169D01*
X11167205Y3627365D01*
Y3603560D01*
X11155303Y3579756D01*
X11143400Y3567853D01*
X11119596Y3555951D01*
X11024378D02*
X11119596D01*
X11155303Y3544049D01*
X11167205Y3532147D01*
X11179107Y3508342D01*
Y3472636D01*
X11167205Y3448831D01*
X11155303Y3436929D01*
X11119596Y3425027D01*
X10976769D01*
X11119596Y3555951D02*
X11143400Y3544049D01*
X11155303Y3532147D01*
X11167205Y3508342D01*
Y3472636D01*
X11155303Y3448831D01*
X11143400Y3436929D01*
X11119596Y3425027D01*
X11295749Y3674973D02*
X11260042Y3663071D01*
X11236237Y3639267D01*
X11224335Y3615462D01*
X11212433Y3567853D01*
Y3532147D01*
X11224335Y3484538D01*
X11236237Y3460733D01*
X11260042Y3436929D01*
X11295749Y3425027D01*
X11319553D01*
X11355259Y3436929D01*
X11379064Y3460733D01*
X11390966Y3484538D01*
X11402868Y3532147D01*
Y3567853D01*
X11390966Y3615462D01*
X11379064Y3639267D01*
X11355259Y3663071D01*
X11319553Y3674973D01*
X11295749D01*
X11271944Y3663071D01*
X11248140Y3639267D01*
X11236237Y3615462D01*
X11224335Y3567853D01*
Y3532147D01*
X11236237Y3484538D01*
X11248140Y3460733D01*
X11271944Y3436929D01*
X11295749Y3425027D01*
X11319553D02*
X11343357Y3436929D01*
X11367162Y3460733D01*
X11379064Y3484538D01*
X11390966Y3532147D01*
Y3567853D01*
X11379064Y3615462D01*
X11367162Y3639267D01*
X11343357Y3663071D01*
X11319553Y3674973D01*
X11520700D02*
Y3425027D01*
X11532603Y3674973D02*
Y3425027D01*
X11449287Y3674973D02*
X11437385Y3603560D01*
Y3674973D01*
X11615918D01*
Y3603560D01*
X11604016Y3674973D01*
X11484994Y3425027D02*
X11568309D01*
D51*
X12547208Y10249968D02*
X12504360Y10235685D01*
X12475795Y10207120D01*
X12461512Y10178555D01*
X12447229Y10121424D01*
Y10078576D01*
X12461512Y10021446D01*
X12475795Y9992880D01*
X12504360Y9964315D01*
X12547208Y9950032D01*
X12575773D01*
X12618621Y9964315D01*
X12647187Y9992880D01*
X12661469Y10021446D01*
X12675752Y10078576D01*
Y10121424D01*
X12661469Y10178555D01*
X12647187Y10207120D01*
X12618621Y10235685D01*
X12575773Y10249968D01*
X12547208D01*
X12518643Y10235685D01*
X12490077Y10207120D01*
X12475795Y10178555D01*
X12461512Y10121424D01*
Y10078576D01*
X12475795Y10021446D01*
X12490077Y9992880D01*
X12518643Y9964315D01*
X12547208Y9950032D01*
X12575773D02*
X12604339Y9964315D01*
X12632904Y9992880D01*
X12647187Y10021446D01*
X12661469Y10078576D01*
Y10121424D01*
X12647187Y10178555D01*
X12632904Y10207120D01*
X12604339Y10235685D01*
X12575773Y10249968D01*
X12760019D02*
Y10035728D01*
X12774302Y9992880D01*
X12802867Y9964315D01*
X12845715Y9950032D01*
X12874281D01*
X12917130Y9964315D01*
X12945694Y9992880D01*
X12959976Y10035728D01*
Y10249968D01*
X12774302D02*
Y10035728D01*
X12788585Y9992880D01*
X12817149Y9964315D01*
X12845715Y9950032D01*
X12717171Y10249968D02*
X12817149D01*
X12917130D02*
X13002824D01*
X13138509D02*
Y9950032D01*
X13152792Y10249968D02*
Y9950032D01*
X13052814Y10249968D02*
X13038531Y10164272D01*
Y10249968D01*
X13252771D01*
Y10164272D01*
X13238487Y10249968D01*
X13095662Y9950032D02*
X13195641D01*
X6401461Y10249968D02*
Y9950032D01*
X6415743Y10249968D02*
Y9950032D01*
X6358613Y10249968D02*
X6530004D01*
X6572852Y10235685D01*
X6587135Y10221403D01*
X6601418Y10192837D01*
Y10149990D01*
X6587135Y10121424D01*
X6572852Y10107142D01*
X6530004Y10092859D01*
X6415743D01*
X6530004Y10249968D02*
X6558570Y10235685D01*
X6572852Y10221403D01*
X6587135Y10192837D01*
Y10149990D01*
X6572852Y10121424D01*
X6558570Y10107142D01*
X6530004Y10092859D01*
X6358613Y9950032D02*
X6458591D01*
X6684257Y10249968D02*
Y9950032D01*
X6698540Y10249968D02*
Y9950032D01*
X6641409Y10249968D02*
X6741388D01*
X6641409Y9950032D02*
X6741388D01*
%TF.MD5,7cef8e7c0c5c3328ecbe0239e555f44d*%
M02*
