%TF.GenerationSoftware,Altium Limited,Altium Designer,23.3.1 (30)*%
G04 Layer_Color=8421504*
%FSLAX45Y45*%
%MOMM*%
%TF.SameCoordinates,CA382BF2-D798-45FE-BEC5-AB2A3CF063FF*%
%TF.FilePolarity,Positive*%
%TF.FileFunction,Paste,Top*%
%TF.Part,Single*%
G01*
G75*
%TA.AperFunction,SMDPad,CuDef*%
%ADD10R,0.80000X1.00000*%
%ADD11R,1.20000X2.50000*%
%ADD12R,1.00000X0.80000*%
%ADD13R,1.40000X1.70000*%
%ADD14R,1.70000X1.40000*%
G04:AMPARAMS|DCode=15|XSize=1.35543mm|YSize=0.34077mm|CornerRadius=0.17038mm|HoleSize=0mm|Usage=FLASHONLY|Rotation=0.000|XOffset=0mm|YOffset=0mm|HoleType=Round|Shape=RoundedRectangle|*
%AMROUNDEDRECTD15*
21,1,1.35543,0.00000,0,0,0.0*
21,1,1.01467,0.34077,0,0,0.0*
1,1,0.34077,0.50733,0.00000*
1,1,0.34077,-0.50733,0.00000*
1,1,0.34077,-0.50733,0.00000*
1,1,0.34077,0.50733,0.00000*
%
%ADD15ROUNDEDRECTD15*%
%ADD16R,1.35543X0.34077*%
%ADD17R,1.84000X1.80000*%
%ADD18R,1.40000X0.60000*%
D10*
X7828400Y9170000D02*
D03*
X7978400D02*
D03*
X8509132Y3767500D02*
D03*
X8659132D02*
D03*
X6575000Y3500000D02*
D03*
X6425000D02*
D03*
X7628400Y9370000D02*
D03*
X7478400D02*
D03*
X7628400Y8970000D02*
D03*
X7478400D02*
D03*
X7978400Y8770000D02*
D03*
X7828400D02*
D03*
X7628400Y8570000D02*
D03*
X7478400D02*
D03*
X7978400Y8370000D02*
D03*
X7828400D02*
D03*
X7628400Y8170000D02*
D03*
X7478400D02*
D03*
X7978400Y7970000D02*
D03*
X7828400D02*
D03*
X7628400Y7770000D02*
D03*
X7478400D02*
D03*
X7978400Y7520000D02*
D03*
X7828400D02*
D03*
X7628400Y7320000D02*
D03*
X7478400D02*
D03*
X7978400Y7070000D02*
D03*
X7828400D02*
D03*
X7628400Y6870000D02*
D03*
X7478400D02*
D03*
X7978400Y6670000D02*
D03*
X7828400D02*
D03*
X7628400Y6470000D02*
D03*
X7478400D02*
D03*
X7978400Y6270000D02*
D03*
X7828400D02*
D03*
X7628400Y5450000D02*
D03*
X7478400D02*
D03*
X7978400Y5200000D02*
D03*
X7828400D02*
D03*
X7628400Y5000000D02*
D03*
X7478400D02*
D03*
X7978400Y4800000D02*
D03*
X7828400D02*
D03*
X7628400Y4600000D02*
D03*
X7478400D02*
D03*
X7978400Y4400000D02*
D03*
X7828400D02*
D03*
X7628400Y4250000D02*
D03*
X7478400D02*
D03*
X7978400Y4050000D02*
D03*
X7828400D02*
D03*
X8170257Y3767500D02*
D03*
X8020257D02*
D03*
X11525000Y10700000D02*
D03*
X11375000D02*
D03*
D11*
X8700000Y10775000D02*
D03*
Y10225000D02*
D03*
X8450000D02*
D03*
Y10775000D02*
D03*
X8950000D02*
D03*
Y10225000D02*
D03*
D12*
X11850000Y10375000D02*
D03*
Y10525000D02*
D03*
X11450000Y9675000D02*
D03*
Y9525000D02*
D03*
X10750000Y9675000D02*
D03*
Y9525000D02*
D03*
X6250000Y10875000D02*
D03*
Y10725000D02*
D03*
X11803354Y9525000D02*
D03*
Y9675000D02*
D03*
X6750000Y10875000D02*
D03*
Y10725000D02*
D03*
X7700000Y3775000D02*
D03*
Y3625000D02*
D03*
X9153354Y3695000D02*
D03*
Y3545000D02*
D03*
X10400000Y9525000D02*
D03*
Y9675000D02*
D03*
D13*
X9235700Y8850000D02*
D03*
X9464300D02*
D03*
X9235700Y9400000D02*
D03*
X9464300D02*
D03*
X9135700Y6250000D02*
D03*
X9364300D02*
D03*
X10217654Y9120000D02*
D03*
X9989054D02*
D03*
X10217654Y8620000D02*
D03*
X9989054D02*
D03*
X9135700Y5900000D02*
D03*
X9364300D02*
D03*
X9789054D02*
D03*
X10017654D02*
D03*
X9789054Y6250000D02*
D03*
X10017654D02*
D03*
D14*
X7803354Y3005700D02*
D03*
Y3234300D02*
D03*
X8603354Y5205700D02*
D03*
Y5434300D02*
D03*
X10103354Y5134300D02*
D03*
Y4905700D02*
D03*
X9003354D02*
D03*
Y5134300D02*
D03*
X9703354D02*
D03*
Y4905700D02*
D03*
X7403354Y3234300D02*
D03*
Y3005700D02*
D03*
D15*
X9680893Y8362500D02*
D03*
Y8297500D02*
D03*
Y8232500D02*
D03*
Y8167500D02*
D03*
Y8102500D02*
D03*
Y8037500D02*
D03*
Y7972500D02*
D03*
Y7907500D02*
D03*
Y7842500D02*
D03*
Y7777500D02*
D03*
X9125816D02*
D03*
Y7842500D02*
D03*
Y7907500D02*
D03*
Y7972500D02*
D03*
Y8037500D02*
D03*
Y8102500D02*
D03*
Y8167500D02*
D03*
Y8232500D02*
D03*
Y8297500D02*
D03*
X9680893Y7212500D02*
D03*
Y7147500D02*
D03*
Y7082500D02*
D03*
Y7017500D02*
D03*
Y6952500D02*
D03*
Y6887500D02*
D03*
Y6822500D02*
D03*
Y6757500D02*
D03*
Y6692500D02*
D03*
Y6627500D02*
D03*
X9125816D02*
D03*
Y6692500D02*
D03*
Y6757500D02*
D03*
Y6822500D02*
D03*
Y6887500D02*
D03*
Y6952500D02*
D03*
Y7017500D02*
D03*
Y7082500D02*
D03*
Y7147500D02*
D03*
X9680893Y4612500D02*
D03*
Y4547500D02*
D03*
Y4482500D02*
D03*
Y4417500D02*
D03*
Y4352500D02*
D03*
Y4287500D02*
D03*
Y4222500D02*
D03*
Y4157500D02*
D03*
Y4092500D02*
D03*
Y4027500D02*
D03*
X9125816D02*
D03*
Y4092500D02*
D03*
Y4157500D02*
D03*
Y4222500D02*
D03*
Y4287500D02*
D03*
Y4352500D02*
D03*
Y4417500D02*
D03*
Y4482500D02*
D03*
Y4547500D02*
D03*
D16*
Y8362500D02*
D03*
Y7212500D02*
D03*
Y4612500D02*
D03*
D17*
X11453354Y10370000D02*
D03*
Y10070000D02*
D03*
D18*
X8768351Y3360500D02*
D03*
Y3233500D02*
D03*
Y3106500D02*
D03*
Y2979500D02*
D03*
X8238358D02*
D03*
Y3106500D02*
D03*
Y3233500D02*
D03*
Y3360500D02*
D03*
%TF.MD5,dae21354efaa4238c69956ac0b5633f1*%
M02*
